<svg width="343" height="75" viewBox="0 0 343 75" fill="none" xmlns="http://www.w3.org/2000/svg">
<g filter="url(#filter0_d_206_281)">
<rect x="10" y="7.85547" width="320.837" height="52.551" rx="8.03572" fill="#292D32"/>
<path d="M67.5016 34.1714C68.4521 34.3781 69.1822 34.7913 69.6919 35.4112C70.2154 36.0173 70.4771 36.8025 70.4771 37.7668C70.4771 39.0066 70.0156 39.964 69.0927 40.639C68.1835 41.3002 66.8335 41.6309 65.0427 41.6309H58.3891V27.1666H64.6294C66.2411 27.1666 67.4878 27.4903 68.3694 28.1377C69.2649 28.7852 69.7126 29.7013 69.7126 30.886C69.7126 31.6849 69.5128 32.3668 69.1133 32.9316C68.7276 33.4826 68.1904 33.8959 67.5016 34.1714ZM59.9182 28.427V33.6755H64.5261C65.697 33.6755 66.5993 33.4551 67.233 33.0143C67.8666 32.5597 68.1835 31.9053 68.1835 31.0513C68.1835 30.1972 67.8666 29.5497 67.233 29.1089C66.5993 28.6543 65.697 28.427 64.5261 28.427H59.9182ZM65.022 40.3704C66.3169 40.3704 67.295 40.15 67.9562 39.7092C68.6174 39.2684 68.948 38.5796 68.948 37.6428C68.948 35.8383 67.6393 34.936 65.022 34.936H59.9182V40.3704H65.022ZM78.0999 41.7342C77.053 41.7342 76.1093 41.5 75.269 41.0316C74.4287 40.5495 73.7675 39.8883 73.2854 39.048C72.8032 38.2076 72.5622 37.2571 72.5622 36.1964C72.5622 35.1357 72.8032 34.1852 73.2854 33.3449C73.7675 32.5046 74.4287 31.8502 75.269 31.3819C76.1093 30.9135 77.053 30.6793 78.0999 30.6793C79.1468 30.6793 80.0905 30.9135 80.9308 31.3819C81.7711 31.8502 82.4254 32.5046 82.8938 33.3449C83.3759 34.1852 83.617 35.1357 83.617 36.1964C83.617 37.2571 83.3759 38.2076 82.8938 39.048C82.4254 39.8883 81.7711 40.5495 80.9308 41.0316C80.0905 41.5 79.1468 41.7342 78.0999 41.7342ZM78.0999 40.4324C78.8713 40.4324 79.5601 40.2602 80.1662 39.9158C80.7861 39.5576 81.2683 39.0548 81.6127 38.4074C81.9571 37.7599 82.1292 37.023 82.1292 36.1964C82.1292 35.3699 81.9571 34.6329 81.6127 33.9855C81.2683 33.338 80.7861 32.8421 80.1662 32.4977C79.5601 32.1395 78.8713 31.9605 78.0999 31.9605C77.3285 31.9605 76.6328 32.1395 76.0129 32.4977C75.4068 32.8421 74.9247 33.338 74.5665 33.9855C74.2221 34.6329 74.0499 35.3699 74.0499 36.1964C74.0499 37.023 74.2221 37.7599 74.5665 38.4074C74.9247 39.0548 75.4068 39.5576 76.0129 39.9158C76.6328 40.2602 77.3285 40.4324 78.0999 40.4324ZM91.0548 41.7342C90.0079 41.7342 89.0642 41.5 88.2239 41.0316C87.3836 40.5495 86.7224 39.8883 86.2403 39.048C85.7581 38.2076 85.5171 37.2571 85.5171 36.1964C85.5171 35.1357 85.7581 34.1852 86.2403 33.3449C86.7224 32.5046 87.3836 31.8502 88.2239 31.3819C89.0642 30.9135 90.0079 30.6793 91.0548 30.6793C92.1017 30.6793 93.0454 30.9135 93.8857 31.3819C94.726 31.8502 95.3803 32.5046 95.8487 33.3449C96.3308 34.1852 96.5719 35.1357 96.5719 36.1964C96.5719 37.2571 96.3308 38.2076 95.8487 39.048C95.3803 39.8883 94.726 40.5495 93.8857 41.0316C93.0454 41.5 92.1017 41.7342 91.0548 41.7342ZM91.0548 40.4324C91.8262 40.4324 92.515 40.2602 93.1211 39.9158C93.741 39.5576 94.2232 39.0548 94.5676 38.4074C94.912 37.7599 95.0841 37.023 95.0841 36.1964C95.0841 35.3699 94.912 34.6329 94.5676 33.9855C94.2232 33.338 93.741 32.8421 93.1211 32.4977C92.515 32.1395 91.8262 31.9605 91.0548 31.9605C90.2834 31.9605 89.5877 32.1395 88.9678 32.4977C88.3617 32.8421 87.8796 33.338 87.5214 33.9855C87.177 34.6329 87.0048 35.3699 87.0048 36.1964C87.0048 37.023 87.177 37.7599 87.5214 38.4074C87.8796 39.0548 88.3617 39.5576 88.9678 39.9158C89.5877 40.2602 90.2834 40.4324 91.0548 40.4324ZM103.596 36.1758L101.034 38.5314V41.6309H99.5671V26.2987H101.034V36.6923L107.522 30.762H109.341L104.692 35.2046L109.775 41.6309H107.977L103.596 36.1758ZM121.187 30.6793C122.606 30.6793 123.694 31.0375 124.452 31.7538C125.21 32.4564 125.588 33.5033 125.588 34.8946V41.6309H124.183V39.9365C123.853 40.5013 123.364 40.9421 122.716 41.2589C122.083 41.5758 121.325 41.7342 120.443 41.7342C119.231 41.7342 118.267 41.4449 117.55 40.8663C116.834 40.2877 116.476 39.5232 116.476 38.5727C116.476 37.6497 116.807 36.9059 117.468 36.3411C118.143 35.7763 119.21 35.4939 120.671 35.4939H124.121V34.8326C124.121 33.8959 123.86 33.1865 123.336 32.7043C122.813 32.2084 122.048 31.9605 121.043 31.9605C120.354 31.9605 119.693 32.0775 119.059 32.3117C118.425 32.5321 117.881 32.8421 117.426 33.2416L116.765 32.1464C117.316 31.6781 117.977 31.3199 118.749 31.0719C119.52 30.8102 120.333 30.6793 121.187 30.6793ZM120.671 40.577C121.497 40.577 122.207 40.3911 122.799 40.0191C123.391 39.6334 123.832 39.0824 124.121 38.3661V36.589H120.712C118.852 36.589 117.922 37.2365 117.922 38.5314C117.922 39.165 118.163 39.6678 118.646 40.0398C119.128 40.398 119.803 40.577 120.671 40.577ZM135.111 30.6793C136.475 30.6793 137.556 31.0788 138.355 31.8778C139.168 32.663 139.574 33.8133 139.574 35.3286V41.6309H138.107V35.4732C138.107 34.3436 137.825 33.4826 137.26 32.8903C136.695 32.298 135.889 32.0018 134.842 32.0018C133.671 32.0018 132.742 32.3531 132.053 33.0556C131.378 33.7444 131.04 34.7018 131.04 35.9278V41.6309H129.573V30.762H130.978V32.7663C131.378 32.1051 131.929 31.5954 132.631 31.2372C133.348 30.8653 134.174 30.6793 135.111 30.6793ZM152.767 30.6793C154.186 30.6793 155.274 31.0375 156.032 31.7538C156.79 32.4564 157.169 33.5033 157.169 34.8946V41.6309H155.763V39.9365C155.433 40.5013 154.944 40.9421 154.296 41.2589C153.663 41.5758 152.905 41.7342 152.023 41.7342C150.811 41.7342 149.847 41.4449 149.131 40.8663C148.414 40.2877 148.056 39.5232 148.056 38.5727C148.056 37.6497 148.387 36.9059 149.048 36.3411C149.723 35.7763 150.79 35.4939 152.251 35.4939H155.701V34.8326C155.701 33.8959 155.44 33.1865 154.916 32.7043C154.393 32.2084 153.628 31.9605 152.623 31.9605C151.934 31.9605 151.273 32.0775 150.639 32.3117C150.005 32.5321 149.461 32.8421 149.007 33.2416L148.345 32.1464C148.896 31.6781 149.558 31.3199 150.329 31.0719C151.1 30.8102 151.913 30.6793 152.767 30.6793ZM152.251 40.577C153.077 40.577 153.787 40.3911 154.379 40.0191C154.971 39.6334 155.412 39.0824 155.701 38.3661V36.589H152.292C150.432 36.589 149.502 37.2365 149.502 38.5314C149.502 39.165 149.744 39.6678 150.226 40.0398C150.708 40.398 151.383 40.577 152.251 40.577ZM166.753 30.6793C167.772 30.6793 168.695 30.9135 169.522 31.3819C170.348 31.8365 170.996 32.4839 171.464 33.3242C171.933 34.1645 172.167 35.1219 172.167 36.1964C172.167 37.2847 171.933 38.249 171.464 39.0893C170.996 39.9296 170.348 40.5839 169.522 41.0523C168.709 41.5069 167.786 41.7342 166.753 41.7342C165.871 41.7342 165.072 41.5551 164.356 41.1969C163.654 40.825 163.075 40.2877 162.62 39.5852V45.6395H161.153V30.762H162.558V32.911C162.999 32.1946 163.578 31.6436 164.294 31.2579C165.024 30.8722 165.844 30.6793 166.753 30.6793ZM166.65 40.4324C167.407 40.4324 168.096 40.2602 168.716 39.9158C169.336 39.5576 169.818 39.0548 170.163 38.4074C170.521 37.7599 170.7 37.023 170.7 36.1964C170.7 35.3699 170.521 34.6398 170.163 34.0061C169.818 33.3587 169.336 32.8559 168.716 32.4977C168.096 32.1395 167.407 31.9605 166.65 31.9605C165.878 31.9605 165.183 32.1395 164.563 32.4977C163.957 32.8559 163.474 33.3587 163.116 34.0061C162.772 34.6398 162.6 35.3699 162.6 36.1964C162.6 37.023 162.772 37.7599 163.116 38.4074C163.474 39.0548 163.957 39.5576 164.563 39.9158C165.183 40.2602 165.878 40.4324 166.65 40.4324ZM180.757 30.6793C181.777 30.6793 182.7 30.9135 183.526 31.3819C184.353 31.8365 185 32.4839 185.468 33.3242C185.937 34.1645 186.171 35.1219 186.171 36.1964C186.171 37.2847 185.937 38.249 185.468 39.0893C185 39.9296 184.353 40.5839 183.526 41.0523C182.713 41.5069 181.79 41.7342 180.757 41.7342C179.876 41.7342 179.077 41.5551 178.36 41.1969C177.658 40.825 177.079 40.2877 176.625 39.5852V45.6395H175.158V30.762H176.563V32.911C177.003 32.1946 177.582 31.6436 178.298 31.2579C179.028 30.8722 179.848 30.6793 180.757 30.6793ZM180.654 40.4324C181.412 40.4324 182.1 40.2602 182.72 39.9158C183.34 39.5576 183.822 39.0548 184.167 38.4074C184.525 37.7599 184.704 37.023 184.704 36.1964C184.704 35.3699 184.525 34.6398 184.167 34.0061C183.822 33.3587 183.34 32.8559 182.72 32.4977C182.1 32.1395 181.412 31.9605 180.654 31.9605C179.883 31.9605 179.187 32.1395 178.567 32.4977C177.961 32.8559 177.479 33.3587 177.121 34.0061C176.776 34.6398 176.604 35.3699 176.604 36.1964C176.604 37.023 176.776 37.7599 177.121 38.4074C177.479 39.0548 177.961 39.5576 178.567 39.9158C179.187 40.2602 179.883 40.4324 180.654 40.4324ZM193.604 41.7342C192.557 41.7342 191.614 41.5 190.773 41.0316C189.933 40.5495 189.272 39.8883 188.79 39.048C188.308 38.2076 188.067 37.2571 188.067 36.1964C188.067 35.1357 188.308 34.1852 188.79 33.3449C189.272 32.5046 189.933 31.8502 190.773 31.3819C191.614 30.9135 192.557 30.6793 193.604 30.6793C194.651 30.6793 195.595 30.9135 196.435 31.3819C197.275 31.8502 197.93 32.5046 198.398 33.3449C198.88 34.1852 199.121 35.1357 199.121 36.1964C199.121 37.2571 198.88 38.2076 198.398 39.048C197.93 39.8883 197.275 40.5495 196.435 41.0316C195.595 41.5 194.651 41.7342 193.604 41.7342ZM193.604 40.4324C194.376 40.4324 195.065 40.2602 195.671 39.9158C196.291 39.5576 196.773 39.0548 197.117 38.4074C197.461 37.7599 197.634 37.023 197.634 36.1964C197.634 35.3699 197.461 34.6329 197.117 33.9855C196.773 33.338 196.291 32.8421 195.671 32.4977C195.065 32.1395 194.376 31.9605 193.604 31.9605C192.833 31.9605 192.137 32.1395 191.517 32.4977C190.911 32.8421 190.429 33.338 190.071 33.9855C189.727 34.6329 189.554 35.3699 189.554 36.1964C189.554 37.023 189.727 37.7599 190.071 38.4074C190.429 39.0548 190.911 39.5576 191.517 39.9158C192.137 40.2602 192.833 40.4324 193.604 40.4324ZM202.117 30.762H203.584V41.6309H202.117V30.762ZM202.861 28.3857C202.557 28.3857 202.303 28.2824 202.096 28.0758C201.889 27.8691 201.786 27.6212 201.786 27.3319C201.786 27.0564 201.889 26.8153 202.096 26.6087C202.303 26.402 202.557 26.2987 202.861 26.2987C203.164 26.2987 203.418 26.402 203.625 26.6087C203.832 26.8015 203.935 27.0357 203.935 27.3112C203.935 27.6143 203.832 27.8691 203.625 28.0758C203.418 28.2824 203.164 28.3857 202.861 28.3857ZM213.204 30.6793C214.567 30.6793 215.649 31.0788 216.448 31.8778C217.26 32.663 217.667 33.8133 217.667 35.3286V41.6309H216.2V35.4732C216.2 34.3436 215.917 33.4826 215.353 32.8903C214.788 32.298 213.982 32.0018 212.935 32.0018C211.764 32.0018 210.834 32.3531 210.145 33.0556C209.47 33.7444 209.133 34.7018 209.133 35.9278V41.6309H207.666V30.762H209.071V32.7663C209.47 32.1051 210.021 31.5954 210.724 31.2372C211.44 30.8653 212.267 30.6793 213.204 30.6793ZM227.374 40.9696C227.098 41.2176 226.754 41.4105 226.34 41.5482C225.941 41.6722 225.521 41.7342 225.08 41.7342C224.061 41.7342 223.275 41.4587 222.724 40.9076C222.173 40.3566 221.898 39.5783 221.898 38.5727V32.0018H219.955V30.762H221.898V28.3857H223.365V30.762H226.671V32.0018H223.365V38.49C223.365 39.1375 223.523 39.6334 223.84 39.9778C224.171 40.3084 224.639 40.4737 225.245 40.4737C225.548 40.4737 225.838 40.4255 226.113 40.3291C226.402 40.2326 226.65 40.0949 226.857 39.9158L227.374 40.9696ZM243.599 30.6793C244.963 30.6793 246.031 31.0719 246.802 31.8571C247.587 32.6423 247.98 33.7995 247.98 35.3286V41.6309H246.513V35.4732C246.513 34.3436 246.237 33.4826 245.686 32.8903C245.149 32.298 244.385 32.0018 243.393 32.0018C242.263 32.0018 241.375 32.3531 240.727 33.0556C240.08 33.7444 239.756 34.7018 239.756 35.9278V41.6309H238.289V35.4732C238.289 34.3436 238.013 33.4826 237.462 32.8903C236.925 32.298 236.154 32.0018 235.148 32.0018C234.032 32.0018 233.144 32.3531 232.483 33.0556C231.835 33.7444 231.511 34.7018 231.511 35.9278V41.6309H230.044V30.762H231.449V32.7457C231.835 32.0844 232.372 31.5747 233.061 31.2166C233.75 30.8584 234.542 30.6793 235.437 30.6793C236.347 30.6793 237.132 30.8722 237.793 31.2579C238.468 31.6436 238.971 32.2153 239.301 32.973C239.701 32.2566 240.273 31.6987 241.017 31.2992C241.774 30.886 242.635 30.6793 243.599 30.6793ZM261.463 36.651H252.371C252.454 37.7806 252.888 38.6967 253.673 39.3992C254.458 40.088 255.45 40.4324 256.648 40.4324C257.323 40.4324 257.943 40.3153 258.508 40.0811C259.073 39.8332 259.562 39.475 259.975 39.0066L260.802 39.9571C260.319 40.5357 259.713 40.9765 258.983 41.2796C258.267 41.5826 257.475 41.7342 256.607 41.7342C255.491 41.7342 254.499 41.5 253.631 41.0316C252.777 40.5495 252.109 39.8883 251.627 39.048C251.145 38.2076 250.904 37.2571 250.904 36.1964C250.904 35.1357 251.131 34.1852 251.586 33.3449C252.054 32.5046 252.688 31.8502 253.487 31.3819C254.3 30.9135 255.209 30.6793 256.214 30.6793C257.22 30.6793 258.122 30.9135 258.921 31.3819C259.72 31.8502 260.347 32.5046 260.802 33.3449C261.256 34.1714 261.483 35.1219 261.483 36.1964L261.463 36.651ZM256.214 31.9398C255.167 31.9398 254.286 32.2773 253.569 32.9523C252.867 33.6135 252.467 34.4814 252.371 35.5559H260.078C259.982 34.4814 259.576 33.6135 258.859 32.9523C258.157 32.2773 257.275 31.9398 256.214 31.9398ZM270.007 30.6793C271.371 30.6793 272.453 31.0788 273.252 31.8778C274.064 32.663 274.471 33.8133 274.471 35.3286V41.6309H273.004V35.4732C273.004 34.3436 272.721 33.4826 272.156 32.8903C271.592 32.298 270.786 32.0018 269.739 32.0018C268.568 32.0018 267.638 32.3531 266.949 33.0556C266.274 33.7444 265.937 34.7018 265.937 35.9278V41.6309H264.47V30.762H265.875V32.7663C266.274 32.1051 266.825 31.5954 267.528 31.2372C268.244 30.8653 269.071 30.6793 270.007 30.6793ZM284.177 40.9696C283.902 41.2176 283.557 41.4105 283.144 41.5482C282.745 41.6722 282.325 41.7342 281.884 41.7342C280.864 41.7342 280.079 41.4587 279.528 40.9076C278.977 40.3566 278.702 39.5783 278.702 38.5727V32.0018H276.759V30.762H278.702V28.3857H280.169V30.762H283.475V32.0018H280.169V38.49C280.169 39.1375 280.327 39.6334 280.644 39.9778C280.975 40.3084 281.443 40.4737 282.049 40.4737C282.352 40.4737 282.641 40.4255 282.917 40.3291C283.206 40.2326 283.454 40.0949 283.661 39.9158L284.177 40.9696Z" fill="white"/>
</g>
<defs>
<filter id="filter0_d_206_281" x="0.816327" y="0.967714" width="341.5" height="73.214" filterUnits="userSpaceOnUse" color-interpolation-filters="sRGB">
<feFlood flood-opacity="0" result="BackgroundImageFix"/>
<feColorMatrix in="SourceAlpha" type="matrix" values="0 0 0 0 0 0 0 0 0 0 0 0 0 0 0 0 0 0 127 0" result="hardAlpha"/>
<feOffset dx="1.14796" dy="3.44388"/>
<feGaussianBlur stdDeviation="5.16582"/>
<feComposite in2="hardAlpha" operator="out"/>
<feColorMatrix type="matrix" values="0 0 0 0 0 0 0 0 0 0 0 0 0 0 0 0 0 0 0.3 0"/>
<feBlend mode="normal" in2="BackgroundImageFix" result="effect1_dropShadow_206_281"/>
<feBlend mode="normal" in="SourceGraphic" in2="effect1_dropShadow_206_281" result="shape"/>
</filter>
</defs>
</svg>
