<svg width="449" height="219" viewBox="0 0 449 219" fill="none" xmlns="http://www.w3.org/2000/svg">
<rect x="-0.000976562" y="-0.00195312" width="448.852" height="218.112" fill="#292D32"/>
<path d="M128.566 153.738H129.944V163.381H128.566V153.738ZM141.771 156.011C142.689 156.011 143.415 156.277 143.948 156.81C144.489 157.343 144.76 158.132 144.76 159.179V163.381H143.438V159.331C143.438 158.624 143.273 158.091 142.942 157.733C142.62 157.375 142.157 157.196 141.551 157.196C140.88 157.196 140.348 157.407 139.953 157.829C139.558 158.243 139.36 158.84 139.36 159.62V163.381H138.038V159.331C138.038 158.624 137.873 158.091 137.542 157.733C137.22 157.375 136.757 157.196 136.151 157.196C135.48 157.196 134.948 157.407 134.553 157.829C134.158 158.243 133.96 158.84 133.96 159.62V163.381H132.638V156.08H133.905V157.168C134.172 156.792 134.52 156.507 134.952 156.314C135.384 156.112 135.875 156.011 136.426 156.011C136.995 156.011 137.501 156.126 137.941 156.355C138.382 156.585 138.722 156.92 138.961 157.361C139.236 156.939 139.617 156.608 140.104 156.369C140.6 156.13 141.156 156.011 141.771 156.011ZM151.065 156.011C151.772 156.011 152.405 156.167 152.966 156.479C153.526 156.792 153.962 157.228 154.274 157.788C154.596 158.348 154.756 158.996 154.756 159.73C154.756 160.465 154.596 161.117 154.274 161.686C153.962 162.247 153.526 162.683 152.966 162.995C152.405 163.307 151.772 163.464 151.065 163.464C150.541 163.464 150.059 163.362 149.618 163.16C149.186 162.958 148.819 162.665 148.516 162.279V166.053H147.194V156.08H148.461V157.237C148.755 156.833 149.127 156.53 149.577 156.328C150.027 156.117 150.523 156.011 151.065 156.011ZM150.954 162.306C151.423 162.306 151.841 162.201 152.208 161.99C152.584 161.769 152.878 161.466 153.09 161.08C153.31 160.685 153.42 160.235 153.42 159.73C153.42 159.225 153.31 158.78 153.09 158.394C152.878 157.999 152.584 157.696 152.208 157.485C151.841 157.274 151.423 157.168 150.954 157.168C150.495 157.168 150.077 157.278 149.701 157.499C149.333 157.71 149.04 158.008 148.819 158.394C148.608 158.78 148.502 159.225 148.502 159.73C148.502 160.235 148.608 160.685 148.819 161.08C149.03 161.466 149.324 161.769 149.701 161.99C150.077 162.201 150.495 162.306 150.954 162.306ZM157.851 157.306C158.08 156.883 158.42 156.562 158.87 156.342C159.32 156.121 159.867 156.011 160.51 156.011V157.292C160.436 157.283 160.335 157.278 160.207 157.278C159.49 157.278 158.925 157.494 158.512 157.926C158.108 158.348 157.906 158.954 157.906 159.744V163.381H156.584V156.08H157.851V157.306ZM168.671 159.772C168.671 159.873 168.662 160.006 168.643 160.171H162.72C162.802 160.814 163.082 161.333 163.56 161.728C164.047 162.114 164.648 162.306 165.365 162.306C166.237 162.306 166.94 162.012 167.472 161.425L168.202 162.279C167.872 162.665 167.458 162.958 166.963 163.16C166.476 163.362 165.929 163.464 165.323 163.464C164.552 163.464 163.868 163.307 163.271 162.995C162.674 162.674 162.21 162.228 161.879 161.659C161.558 161.09 161.397 160.447 161.397 159.73C161.397 159.023 161.553 158.385 161.866 157.816C162.187 157.246 162.623 156.805 163.174 156.493C163.734 156.172 164.364 156.011 165.062 156.011C165.759 156.011 166.379 156.172 166.921 156.493C167.472 156.805 167.899 157.246 168.202 157.816C168.515 158.385 168.671 159.037 168.671 159.772ZM165.062 157.127C164.428 157.127 163.895 157.32 163.464 157.705C163.041 158.091 162.793 158.596 162.72 159.221H167.403C167.33 158.605 167.077 158.105 166.646 157.719C166.223 157.324 165.695 157.127 165.062 157.127ZM172.601 163.464C172.004 163.464 171.43 163.385 170.879 163.229C170.328 163.064 169.896 162.857 169.584 162.609L170.135 161.562C170.457 161.792 170.847 161.976 171.306 162.114C171.765 162.251 172.229 162.32 172.697 162.32C173.854 162.32 174.433 161.99 174.433 161.328C174.433 161.108 174.355 160.933 174.199 160.805C174.043 160.676 173.845 160.584 173.607 160.529C173.377 160.465 173.046 160.396 172.615 160.323C172.027 160.231 171.545 160.125 171.168 160.006C170.801 159.886 170.484 159.684 170.218 159.4C169.951 159.115 169.818 158.716 169.818 158.201C169.818 157.54 170.094 157.012 170.645 156.617C171.196 156.213 171.935 156.011 172.863 156.011C173.349 156.011 173.836 156.071 174.323 156.19C174.81 156.309 175.209 156.47 175.521 156.672L174.957 157.719C174.36 157.333 173.657 157.141 172.849 157.141C172.289 157.141 171.862 157.232 171.568 157.416C171.274 157.6 171.127 157.843 171.127 158.146C171.127 158.385 171.21 158.573 171.375 158.711C171.54 158.849 171.742 158.95 171.981 159.014C172.229 159.078 172.573 159.152 173.014 159.234C173.602 159.335 174.075 159.446 174.433 159.565C174.8 159.675 175.113 159.868 175.37 160.144C175.627 160.419 175.756 160.805 175.756 161.301C175.756 161.962 175.471 162.49 174.901 162.885C174.341 163.271 173.574 163.464 172.601 163.464ZM179.502 163.464C178.905 163.464 178.331 163.385 177.78 163.229C177.229 163.064 176.798 162.857 176.485 162.609L177.036 161.562C177.358 161.792 177.748 161.976 178.207 162.114C178.666 162.251 179.13 162.32 179.599 162.32C180.756 162.32 181.334 161.99 181.334 161.328C181.334 161.108 181.256 160.933 181.1 160.805C180.944 160.676 180.747 160.584 180.508 160.529C180.278 160.465 179.948 160.396 179.516 160.323C178.928 160.231 178.446 160.125 178.069 160.006C177.702 159.886 177.385 159.684 177.119 159.4C176.853 159.115 176.719 158.716 176.719 158.201C176.719 157.54 176.995 157.012 177.546 156.617C178.097 156.213 178.836 156.011 179.764 156.011C180.251 156.011 180.737 156.071 181.224 156.19C181.711 156.309 182.11 156.47 182.423 156.672L181.858 157.719C181.261 157.333 180.558 157.141 179.75 157.141C179.19 157.141 178.763 157.232 178.469 157.416C178.175 157.6 178.028 157.843 178.028 158.146C178.028 158.385 178.111 158.573 178.276 158.711C178.441 158.849 178.643 158.95 178.882 159.014C179.13 159.078 179.475 159.152 179.915 159.234C180.503 159.335 180.976 159.446 181.334 159.565C181.702 159.675 182.014 159.868 182.271 160.144C182.528 160.419 182.657 160.805 182.657 161.301C182.657 161.962 182.372 162.49 181.803 162.885C181.242 163.271 180.476 163.464 179.502 163.464ZM191.115 156.08V163.381H189.861V162.279C189.595 162.655 189.241 162.949 188.8 163.16C188.369 163.362 187.896 163.464 187.381 163.464C186.408 163.464 185.641 163.197 185.081 162.665C184.521 162.123 184.241 161.328 184.241 160.281V156.08H185.563V160.13C185.563 160.837 185.733 161.374 186.073 161.742C186.413 162.1 186.899 162.279 187.533 162.279C188.231 162.279 188.782 162.068 189.186 161.645C189.59 161.223 189.792 160.626 189.792 159.854V156.08H191.115ZM202.765 156.011C203.684 156.011 204.409 156.277 204.942 156.81C205.484 157.343 205.755 158.132 205.755 159.179V163.381H204.432V159.331C204.432 158.624 204.267 158.091 203.936 157.733C203.615 157.375 203.151 157.196 202.545 157.196C201.874 157.196 201.342 157.407 200.947 157.829C200.552 158.243 200.355 158.84 200.355 159.62V163.381H199.032V159.331C199.032 158.624 198.867 158.091 198.536 157.733C198.215 157.375 197.751 157.196 197.145 157.196C196.474 157.196 195.942 157.407 195.547 157.829C195.152 158.243 194.955 158.84 194.955 159.62V163.381H193.632V156.08H194.899V157.168C195.166 156.792 195.515 156.507 195.946 156.314C196.378 156.112 196.869 156.011 197.42 156.011C197.99 156.011 198.495 156.126 198.936 156.355C199.377 156.585 199.716 156.92 199.955 157.361C200.231 156.939 200.612 156.608 201.098 156.369C201.594 156.13 202.15 156.011 202.765 156.011Z" fill="white"/>
<path d="M127.12 164.758H206.939V165.447H127.12V164.758Z" fill="white"/>
<path d="M249.6 153.738H253.663C254.683 153.738 255.587 153.94 256.377 154.344C257.167 154.748 257.778 155.318 258.209 156.052C258.65 156.778 258.871 157.614 258.871 158.559C258.871 159.505 258.65 160.346 258.209 161.08C257.778 161.806 257.167 162.371 256.377 162.775C255.587 163.179 254.683 163.381 253.663 163.381H249.6V153.738ZM253.581 162.182C254.361 162.182 255.046 162.031 255.633 161.728C256.23 161.425 256.689 161.002 257.011 160.46C257.332 159.909 257.493 159.276 257.493 158.559C257.493 157.843 257.332 157.214 257.011 156.672C256.689 156.121 256.23 155.694 255.633 155.391C255.046 155.088 254.361 154.936 253.581 154.936H250.977V162.182H253.581ZM263.446 156.011C264.457 156.011 265.228 156.259 265.761 156.755C266.303 157.251 266.573 157.99 266.573 158.973V163.381H265.32V162.417C265.099 162.756 264.783 163.018 264.369 163.202C263.965 163.376 263.483 163.464 262.923 163.464C262.106 163.464 261.449 163.266 260.953 162.871C260.466 162.476 260.223 161.957 260.223 161.315C260.223 160.672 260.457 160.157 260.925 159.772C261.394 159.377 262.138 159.179 263.157 159.179H265.251V158.918C265.251 158.348 265.086 157.912 264.755 157.609C264.424 157.306 263.938 157.154 263.295 157.154C262.863 157.154 262.441 157.228 262.028 157.375C261.614 157.512 261.265 157.701 260.981 157.94L260.43 156.948C260.806 156.645 261.256 156.415 261.78 156.259C262.303 156.094 262.859 156.011 263.446 156.011ZM263.143 162.444C263.648 162.444 264.085 162.334 264.452 162.114C264.819 161.884 265.086 161.562 265.251 161.149V160.13H263.212C262.092 160.13 261.532 160.506 261.532 161.259C261.532 161.627 261.674 161.916 261.959 162.127C262.243 162.339 262.638 162.444 263.143 162.444ZM273.126 162.954C272.933 163.119 272.694 163.248 272.41 163.34C272.125 163.422 271.831 163.464 271.528 163.464C270.793 163.464 270.224 163.266 269.82 162.871C269.416 162.476 269.214 161.911 269.214 161.177V157.168H267.974V156.08H269.214V154.482H270.536V156.08H272.63V157.168H270.536V161.122C270.536 161.517 270.632 161.82 270.825 162.031C271.027 162.242 271.312 162.348 271.679 162.348C272.083 162.348 272.428 162.233 272.713 162.003L273.126 162.954ZM281.081 159.772C281.081 159.873 281.072 160.006 281.053 160.171H275.13C275.213 160.814 275.493 161.333 275.97 161.728C276.457 162.114 277.059 162.306 277.775 162.306C278.647 162.306 279.35 162.012 279.883 161.425L280.613 162.279C280.282 162.665 279.869 162.958 279.373 163.16C278.886 163.362 278.34 163.464 277.734 163.464C276.962 163.464 276.278 163.307 275.681 162.995C275.084 162.674 274.62 162.228 274.29 161.659C273.968 161.09 273.808 160.447 273.808 159.73C273.808 159.023 273.964 158.385 274.276 157.816C274.597 157.246 275.034 156.805 275.585 156.493C276.145 156.172 276.774 156.011 277.472 156.011C278.17 156.011 278.79 156.172 279.331 156.493C279.883 156.805 280.31 157.246 280.613 157.816C280.925 158.385 281.081 159.037 281.081 159.772ZM277.472 157.127C276.838 157.127 276.305 157.32 275.874 157.705C275.451 158.091 275.203 158.596 275.13 159.221H279.814C279.74 158.605 279.488 158.105 279.056 157.719C278.634 157.324 278.105 157.127 277.472 157.127ZM286.816 156.011C287.743 156.011 288.478 156.282 289.02 156.824C289.571 157.356 289.846 158.142 289.846 159.179V163.381H288.524V159.331C288.524 158.624 288.354 158.091 288.014 157.733C287.674 157.375 287.188 157.196 286.554 157.196C285.838 157.196 285.273 157.407 284.86 157.829C284.446 158.243 284.24 158.84 284.24 159.62V163.381H282.917V156.08H284.185V157.182C284.451 156.805 284.809 156.516 285.259 156.314C285.718 156.112 286.237 156.011 286.816 156.011ZM294.388 163.464C293.791 163.464 293.217 163.385 292.666 163.229C292.115 163.064 291.683 162.857 291.371 162.609L291.922 161.562C292.243 161.792 292.634 161.976 293.093 162.114C293.552 162.251 294.016 162.32 294.484 162.32C295.641 162.32 296.22 161.99 296.22 161.328C296.22 161.108 296.142 160.933 295.986 160.805C295.83 160.676 295.632 160.584 295.393 160.529C295.164 160.465 294.833 160.396 294.401 160.323C293.814 160.231 293.332 160.125 292.955 160.006C292.588 159.886 292.271 159.684 292.005 159.4C291.738 159.115 291.605 158.716 291.605 158.201C291.605 157.54 291.881 157.012 292.432 156.617C292.983 156.213 293.722 156.011 294.649 156.011C295.136 156.011 295.623 156.071 296.11 156.19C296.596 156.309 296.996 156.47 297.308 156.672L296.743 157.719C296.146 157.333 295.444 157.141 294.636 157.141C294.075 157.141 293.648 157.232 293.355 157.416C293.061 157.6 292.914 157.843 292.914 158.146C292.914 158.385 292.996 158.573 293.162 158.711C293.327 158.849 293.529 158.95 293.768 159.014C294.016 159.078 294.36 159.152 294.801 159.234C295.389 159.335 295.862 159.446 296.22 159.565C296.587 159.675 296.899 159.868 297.157 160.144C297.414 160.419 297.542 160.805 297.542 161.301C297.542 161.962 297.258 162.49 296.688 162.885C296.128 163.271 295.361 163.464 294.388 163.464ZM302.377 163.464C301.633 163.464 300.967 163.303 300.38 162.981C299.801 162.66 299.347 162.219 299.016 161.659C298.685 161.09 298.52 160.447 298.52 159.73C298.52 159.014 298.685 158.376 299.016 157.816C299.347 157.246 299.801 156.805 300.38 156.493C300.967 156.172 301.633 156.011 302.377 156.011C303.038 156.011 303.626 156.144 304.14 156.41C304.664 156.677 305.068 157.062 305.353 157.568L304.347 158.215C304.117 157.866 303.833 157.604 303.493 157.43C303.153 157.255 302.777 157.168 302.363 157.168C301.886 157.168 301.454 157.274 301.068 157.485C300.692 157.696 300.393 157.999 300.173 158.394C299.962 158.78 299.856 159.225 299.856 159.73C299.856 160.245 299.962 160.699 300.173 161.094C300.393 161.48 300.692 161.778 301.068 161.99C301.454 162.201 301.886 162.306 302.363 162.306C302.777 162.306 303.153 162.219 303.493 162.045C303.833 161.87 304.117 161.608 304.347 161.259L305.353 161.893C305.068 162.398 304.664 162.789 304.14 163.064C303.626 163.33 303.038 163.464 302.377 163.464ZM310.869 156.011C311.797 156.011 312.531 156.282 313.073 156.824C313.624 157.356 313.9 158.142 313.9 159.179V163.381H312.577V159.331C312.577 158.624 312.407 158.091 312.068 157.733C311.728 157.375 311.241 157.196 310.607 157.196C309.891 157.196 309.326 157.407 308.913 157.829C308.5 158.243 308.293 158.84 308.293 159.62V163.381H306.971V153.159H308.293V157.113C308.569 156.764 308.927 156.493 309.368 156.3C309.818 156.107 310.318 156.011 310.869 156.011ZM323.152 156.08V163.381H321.899V162.279C321.632 162.655 321.279 162.949 320.838 163.16C320.406 163.362 319.933 163.464 319.419 163.464C318.446 163.464 317.679 163.197 317.119 162.665C316.558 162.123 316.278 161.328 316.278 160.281V156.08H317.601V160.13C317.601 160.837 317.771 161.374 318.11 161.742C318.45 162.1 318.937 162.279 319.571 162.279C320.269 162.279 320.82 162.068 321.224 161.645C321.628 161.223 321.83 160.626 321.83 159.854V156.08H323.152ZM329.775 162.954C329.582 163.119 329.343 163.248 329.059 163.34C328.774 163.422 328.48 163.464 328.177 163.464C327.442 163.464 326.873 163.266 326.469 162.871C326.065 162.476 325.863 161.911 325.863 161.177V157.168H324.623V156.08H325.863V154.482H327.185V156.08H329.279V157.168H327.185V161.122C327.185 161.517 327.282 161.82 327.474 162.031C327.676 162.242 327.961 162.348 328.329 162.348C328.733 162.348 329.077 162.233 329.362 162.003L329.775 162.954ZM336.788 162.293V163.381H330.671V162.527L334.983 157.168H330.754V156.08H336.677V156.948L332.366 162.293H336.788Z" fill="white"/>
<path d="M248.153 164.758H337.297V165.447H248.153V164.758Z" fill="white"/>
<path d="M150.246 65.5359C150.246 67.1921 150.001 68.5217 149.511 69.5247C149.044 70.5511 148.449 71.3209 147.726 71.8341C147.027 72.3706 146.07 72.9304 144.857 73.5136L144.752 73.2686C145.569 72.8021 146.152 72.1956 146.502 71.4492C146.852 70.7027 147.062 69.7114 147.132 68.475C147.225 67.2621 147.271 65.326 147.271 62.6668V50.9452H145.872V50.4204H147.271V49.4406C147.271 48.2743 147.4 47.3413 147.656 46.6415C147.913 45.9183 148.391 45.3818 149.091 45.0319C149.791 44.6587 150.794 44.4721 152.1 44.4721H153.955V47.2713H153.85C153.5 46.2449 153.196 45.5918 152.94 45.3119C152.707 45.0319 152.427 44.892 152.1 44.892C151.47 44.892 151.004 45.2069 150.7 45.8367C150.397 46.4665 150.246 47.5745 150.246 49.1607V50.4204H153.045V50.9452H150.246V65.5359ZM155.19 66.4107C155.68 65.9208 155.972 65.4659 156.065 65.0461C156.182 64.6262 156.24 63.9497 156.24 63.0167V46.5715C156.24 45.6384 156.182 44.962 156.065 44.5421C155.972 44.1222 155.68 43.6673 155.19 43.1775L155.225 43.0725L159.214 41.6729V63.0167C159.214 63.9497 159.261 64.6262 159.354 65.0461C159.471 65.4659 159.774 65.9208 160.264 66.4107L160.229 66.5156H155.225L155.19 66.4107ZM171.953 52.8696C171.953 51.5634 171.732 50.6536 171.288 50.1404C170.868 49.6039 170.11 49.3357 169.014 49.3357C167.778 49.3357 166.705 49.6273 165.795 50.2104C164.885 50.7936 163.964 51.7266 163.031 53.0096L162.926 52.9746V50.3154C163.229 50.3154 163.532 50.2687 163.836 50.1754C164.162 50.0821 164.57 49.9422 165.06 49.7556C165.853 49.4756 166.53 49.2657 167.09 49.1257C167.649 48.9625 168.291 48.8808 169.014 48.8808C170.647 48.8808 172.035 49.2074 173.178 49.8605C174.344 50.4903 174.927 51.5634 174.927 53.0796V63.0167C174.927 63.9497 174.974 64.6262 175.067 65.0461C175.184 65.4659 175.487 65.9208 175.977 66.4107L175.942 66.5156H171.953V64.9061C171.393 65.5359 170.717 65.9908 169.924 66.2707C169.131 66.5273 168.314 66.6556 167.474 66.6556C165.608 66.6556 164.197 66.2357 163.241 65.396C162.308 64.5562 161.841 63.4832 161.841 62.1769C161.841 60.8939 162.156 59.8443 162.786 59.0278C163.416 58.1881 164.162 57.5466 165.025 57.1034C165.888 56.6602 166.985 56.1937 168.314 55.7038C169.597 55.2373 170.519 54.8291 171.078 54.4792C171.662 54.1293 171.953 53.6627 171.953 53.0796V52.8696ZM164.745 62.3169C164.745 63.3899 165.002 64.2996 165.515 65.0461C166.052 65.7692 166.821 66.1307 167.824 66.1307C168.874 66.1307 169.819 65.7925 170.659 65.116C171.522 64.4396 171.953 63.3316 171.953 61.792V54.2342C171.72 54.5142 171.417 54.7941 171.043 55.074C170.67 55.3306 170.169 55.6455 169.539 56.0187C168.559 56.6019 167.743 57.15 167.09 57.6632C166.46 58.1531 165.912 58.7946 165.445 59.5877C164.979 60.3574 164.745 61.2672 164.745 62.3169ZM178.792 53.5694C178.792 52.6364 178.734 51.9599 178.617 51.54C178.524 51.1201 178.232 50.6653 177.742 50.1754L177.777 50.0705L181.766 48.6709V63.0167C181.766 63.9497 181.813 64.6262 181.906 65.0461C182.023 65.4659 182.326 65.9208 182.816 66.4107L182.781 66.5156H177.777L177.742 66.4107C178.232 65.9208 178.524 65.4659 178.617 65.0461C178.734 64.6262 178.792 63.9497 178.792 63.0167V53.5694ZM178.162 45.5218C178.162 44.9386 178.36 44.4488 178.757 44.0522C179.177 43.6324 179.678 43.4224 180.262 43.4224C180.845 43.4224 181.335 43.6324 181.731 44.0522C182.151 44.4488 182.361 44.9386 182.361 45.5218V45.5568C182.361 47.003 182.536 48.0877 182.886 48.8108C183.259 49.5106 183.877 49.8605 184.74 49.8605C185.277 49.8605 185.883 49.7439 186.56 49.5106L188.939 48.6709V51.2251C190.595 49.6389 192.275 48.8458 193.978 48.8458C194.771 48.8458 195.4 48.9625 195.867 49.1957L194.432 51.54L194.292 51.505C193.943 50.5487 193.231 50.0705 192.158 50.0705C191.622 50.0705 191.097 50.2221 190.584 50.5253C190.07 50.8052 189.522 51.2368 188.939 51.8199V63.0167C188.939 63.9497 188.986 64.6262 189.079 65.0461C189.196 65.4659 189.499 65.9208 189.989 66.4107L189.954 66.5156H184.95L184.915 66.4107C185.405 65.9208 185.697 65.4659 185.79 65.0461C185.907 64.6262 185.965 63.9497 185.965 63.0167V50.8052C185.335 50.8052 184.764 50.7353 184.25 50.5953C183.737 50.432 183.259 50.0471 182.816 49.4406C182.396 48.8342 182.128 47.9128 182.011 46.6765C181.824 46.9564 181.58 47.1896 181.276 47.3762C180.973 47.5395 180.635 47.6212 180.262 47.6212C179.678 47.6212 179.177 47.4229 178.757 47.0264C178.36 46.6065 178.162 46.105 178.162 45.5218ZM232.106 66.4107C232.596 65.9208 232.888 65.4659 232.981 65.0461C233.098 64.6262 233.156 63.9497 233.156 63.0167V46.5715C233.156 45.6384 233.098 44.962 232.981 44.5421C232.888 44.1222 232.596 43.6673 232.106 43.1775L232.141 43.0725L236.13 41.6729V49.8955C236.643 49.5689 237.156 49.324 237.67 49.1607C238.183 48.9741 238.766 48.8808 239.419 48.8808C240.795 48.8808 242.055 49.1957 243.198 49.8255C244.341 50.432 245.251 51.4001 245.927 52.7297C246.627 54.0593 246.977 55.7388 246.977 57.7682C246.977 59.8443 246.639 61.5471 245.962 62.8767C245.286 64.2063 244.399 65.1744 243.303 65.7808C242.207 66.3873 241.005 66.6906 239.699 66.6906C238.323 66.6906 237.133 66.2124 236.13 65.256V66.5156H232.141L232.106 66.4107ZM236.13 61.687C236.13 63.3199 236.445 64.4862 237.075 65.186C237.728 65.8858 238.498 66.2357 239.384 66.2357C241.017 66.2357 242.195 65.5242 242.918 64.1013C243.641 62.6784 244.003 60.5674 244.003 57.7682C244.003 55.039 243.641 52.9513 242.918 51.505C242.195 50.0588 241.029 49.3357 239.419 49.3357C238.393 49.3357 237.588 49.6739 237.005 50.3504C236.422 51.0035 236.13 52.1349 236.13 53.7444V61.687ZM248.53 57.5233C248.576 54.5841 249.334 52.4148 250.804 51.0152C252.297 49.5923 254.21 48.8808 256.542 48.8808C258.618 48.8808 260.368 49.4406 261.791 50.5603C263.214 51.6567 264.1 53.3478 264.45 55.6338L262.945 56.0887L254.933 58.433C252.903 59.0162 251.889 59.8326 251.889 60.8823C251.889 61.0456 251.9 61.1622 251.924 61.2322C252.367 62.8184 253.102 63.9964 254.128 64.7661C255.154 65.5359 256.379 65.9208 257.802 65.9208C259.295 65.9208 260.601 65.4776 261.721 64.5912C262.84 63.7048 263.925 62.0719 264.975 59.6926C265.465 58.6896 266.188 57.9082 267.144 57.3483C268.124 56.7885 269.383 56.2286 270.923 55.6688C272.183 55.2256 273.104 54.8291 273.687 54.4792C274.27 54.1293 274.562 53.6627 274.562 53.0796V52.8696C274.562 51.5634 274.34 50.6536 273.897 50.1404C273.477 49.6039 272.719 49.3357 271.623 49.3357C270.386 49.3357 269.313 49.6273 268.404 50.2104C267.494 50.7936 266.573 51.7266 265.64 53.0096L265.535 52.9746V50.3154C265.838 50.3154 266.141 50.2687 266.444 50.1754C266.771 50.0821 267.179 49.9422 267.669 49.7556C268.462 49.4756 269.138 49.2657 269.698 49.1257C270.258 48.9625 270.9 48.8808 271.623 48.8808C273.256 48.8808 274.644 49.2074 275.787 49.8605C276.953 50.4903 277.536 51.5634 277.536 53.0796V63.0167C277.536 63.9497 277.583 64.6262 277.676 65.0461C277.793 65.4659 278.096 65.9208 278.586 66.4107L278.551 66.5156H274.562V64.9061C274.002 65.5359 273.326 65.9908 272.532 66.2707C271.739 66.5273 270.923 66.6556 270.083 66.6556C268.264 66.6556 266.887 66.2707 265.954 65.5009C265.021 64.7078 264.52 63.6931 264.45 62.4568C263.144 64.0663 261.872 65.1744 260.636 65.7808C259.4 66.364 257.93 66.6556 256.227 66.6556C254.898 66.6556 253.65 66.3173 252.483 65.6409C251.317 64.9644 250.372 63.973 249.649 62.6668C248.926 61.3605 248.553 59.7976 248.53 57.9781V57.5233ZM251.504 57.7682C251.504 58.5846 251.562 59.3777 251.679 60.1475C251.889 59.6343 252.25 59.2028 252.763 58.8529C253.276 58.503 253.976 58.1881 254.863 57.9082L261.546 55.9487C261.429 53.7794 260.974 52.1349 260.181 51.0152C259.388 49.8955 258.175 49.3357 256.542 49.3357C254.723 49.3357 253.428 50.0471 252.658 51.47C251.889 52.893 251.504 54.9923 251.504 57.7682ZM267.354 62.3169C267.354 63.3899 267.611 64.2996 268.124 65.0461C268.66 65.7692 269.43 66.1307 270.433 66.1307C271.483 66.1307 272.428 65.7925 273.267 65.116C274.13 64.4396 274.562 63.3316 274.562 61.792V54.2342C274.329 54.5142 274.025 54.7941 273.652 55.074C273.279 55.3306 272.777 55.6455 272.148 56.0187C271.168 56.6019 270.351 57.15 269.698 57.6632C269.069 58.1531 268.52 58.7946 268.054 59.5877C267.587 60.3574 267.354 61.2672 267.354 62.3169ZM284.553 66.9705C283.41 66.9705 282.501 66.6089 281.824 65.8858C281.171 65.1394 280.844 64.0197 280.844 62.5268V53.5694C280.844 52.6364 280.786 51.9599 280.67 51.54C280.576 51.1201 280.285 50.6653 279.795 50.1754L279.83 50.0705L283.819 48.6709V62.9117C283.819 63.8214 284.029 64.5212 284.448 65.0111C284.868 65.5009 285.451 65.7459 286.198 65.7459C287.574 65.7459 289.23 64.9644 291.166 63.4015V53.5694C291.166 52.6364 291.108 51.9599 290.991 51.54C290.898 51.1201 290.607 50.6653 290.117 50.1754L290.152 50.0705L294.141 48.6709V63.0167C294.141 63.9497 294.187 64.6262 294.281 65.0461C294.397 65.4659 294.7 65.9208 295.19 66.4107L295.155 66.5156H291.166V64.0663C290 64.9761 288.834 65.6875 287.667 66.2007C286.524 66.7139 285.486 66.9705 284.553 66.9705ZM300.2 66.6556C298.17 66.6556 297.156 65.2327 297.156 62.3868V49.5456H295.756V49.0208H297.156C297.156 48.251 297.097 47.6678 296.981 47.2713C296.864 46.8747 296.573 46.4432 296.106 45.9767L296.141 45.8717L300.13 44.4721V49.0208H308.317L308.352 49.1257C308.049 49.429 307.839 49.7089 307.723 49.9655C307.606 50.1988 307.548 50.467 307.548 50.7703C307.548 51.1901 307.688 51.7733 307.967 52.5197L311.886 62.5968L315.77 52.5197C316.05 51.7733 316.19 51.1901 316.19 50.7703C316.19 50.467 316.132 50.1988 316.015 49.9655C315.898 49.7089 315.689 49.429 315.385 49.1257L315.42 49.0208H318.01L318.045 49.1257C317.741 49.4756 317.461 49.9072 317.205 50.4204C316.972 50.9335 316.68 51.6333 316.33 52.5197L309.997 69.0349C309.367 70.6911 308.807 71.8457 308.317 72.4989C307.828 73.1753 307.198 73.5136 306.428 73.5136L305.133 70.6444L305.203 70.5744C305.95 70.761 306.533 70.8543 306.953 70.8543C307.629 70.8543 308.154 70.6911 308.527 70.3645C308.901 70.0379 309.227 69.5131 309.507 68.79L310.382 66.5156H310.242L304.783 52.5197C304.387 51.54 304.107 50.8752 303.944 50.5253C303.78 50.1521 303.605 49.8955 303.419 49.7556C303.256 49.6156 303.034 49.5456 302.754 49.5456H300.13V61.967C300.13 62.9233 300.176 63.6581 300.27 64.1713C300.363 64.6845 300.538 65.0577 300.795 65.291C301.051 65.5242 301.448 65.6409 301.984 65.6409C302.614 65.6409 303.384 65.3493 304.294 64.7661L304.434 65.0111C302.777 66.1074 301.366 66.6556 300.2 66.6556Z" fill="white"/>
<path d="M153.872 92.6462V102.289H152.494V97.9911H146.957V102.289H145.579V92.6462H146.957V96.7926H152.494V92.6462H153.872ZM159.224 94.9192C160.234 94.9192 161.006 95.1671 161.538 95.663C162.08 96.159 162.351 96.8982 162.351 97.8809V102.289H161.097V101.325C160.877 101.665 160.56 101.926 160.147 102.11C159.743 102.284 159.261 102.372 158.7 102.372C157.883 102.372 157.227 102.174 156.731 101.779C156.244 101.384 156 100.866 156 100.223C156 99.5799 156.235 99.0656 156.703 98.6799C157.171 98.285 157.915 98.0875 158.935 98.0875H161.029V97.8258C161.029 97.2564 160.863 96.8202 160.533 96.5171C160.202 96.2141 159.715 96.0625 159.072 96.0625C158.641 96.0625 158.218 96.136 157.805 96.2829C157.392 96.4207 157.043 96.609 156.758 96.8477L156.207 95.8559C156.584 95.5528 157.034 95.3232 157.557 95.1671C158.081 95.0018 158.636 94.9192 159.224 94.9192ZM158.921 101.352C159.426 101.352 159.862 101.242 160.23 101.022C160.597 100.792 160.863 100.471 161.029 100.057V99.038H158.99C157.869 99.038 157.309 99.4146 157.309 100.168C157.309 100.535 157.452 100.824 157.736 101.035C158.021 101.247 158.416 101.352 158.921 101.352ZM164.798 94.988H166.121V102.289H164.798V94.988ZM165.46 93.5829C165.202 93.5829 164.987 93.5003 164.812 93.335C164.647 93.1697 164.564 92.9676 164.564 92.7289C164.564 92.4901 164.647 92.288 164.812 92.1227C164.987 91.9482 165.202 91.861 165.46 91.861C165.717 91.861 165.928 91.9437 166.093 92.109C166.268 92.2651 166.355 92.4625 166.355 92.7013C166.355 92.9493 166.268 93.1605 166.093 93.335C165.928 93.5003 165.717 93.5829 165.46 93.5829ZM169.913 96.2141C170.143 95.7916 170.482 95.4702 170.932 95.2498C171.382 95.0294 171.929 94.9192 172.572 94.9192V96.2003C172.498 96.1911 172.397 96.1865 172.269 96.1865C171.552 96.1865 170.988 96.4023 170.574 96.834C170.17 97.2564 169.968 97.8625 169.968 98.6523V102.289H168.646V94.988H169.913V96.2141ZM180.998 102.399C180.273 102.399 179.57 102.289 178.891 102.069C178.22 101.839 177.692 101.545 177.307 101.187L177.816 100.113C178.184 100.443 178.652 100.714 179.221 100.925C179.8 101.127 180.392 101.228 180.998 101.228C181.797 101.228 182.394 101.095 182.789 100.829C183.184 100.553 183.382 100.191 183.382 99.7406C183.382 99.41 183.271 99.1437 183.051 98.9416C182.84 98.7304 182.573 98.5697 182.252 98.4595C181.94 98.3493 181.494 98.2253 180.916 98.0875C180.19 97.913 179.602 97.7386 179.152 97.5641C178.712 97.3896 178.331 97.1232 178.009 96.7651C177.697 96.3977 177.541 95.9064 177.541 95.2911C177.541 94.7768 177.674 94.313 177.94 93.8998C178.216 93.4865 178.629 93.1559 179.18 92.9079C179.731 92.66 180.415 92.536 181.233 92.536C181.802 92.536 182.362 92.6095 182.913 92.7564C183.464 92.9033 183.937 93.1146 184.332 93.3901L183.877 94.4921C183.473 94.235 183.042 94.0421 182.583 93.9136C182.123 93.7758 181.673 93.7069 181.233 93.7069C180.452 93.7069 179.864 93.8493 179.469 94.134C179.084 94.4187 178.891 94.786 178.891 95.236C178.891 95.5666 179.001 95.8375 179.221 96.0488C179.442 96.2508 179.713 96.4115 180.034 96.5309C180.365 96.6411 180.81 96.7605 181.37 96.8891C182.096 97.0636 182.679 97.238 183.12 97.4125C183.561 97.587 183.937 97.8533 184.249 98.2115C184.571 98.5697 184.732 99.0518 184.732 99.6579C184.732 100.163 184.594 100.627 184.318 101.049C184.043 101.463 183.625 101.793 183.065 102.041C182.505 102.28 181.816 102.399 180.998 102.399ZM190.656 101.862C190.463 102.027 190.225 102.156 189.94 102.248C189.655 102.33 189.361 102.372 189.058 102.372C188.324 102.372 187.754 102.174 187.35 101.779C186.946 101.384 186.744 100.82 186.744 100.085V96.0763H185.504V94.988H186.744V93.3901H188.067V94.988H190.16V96.0763H188.067V100.03C188.067 100.425 188.163 100.728 188.356 100.939C188.558 101.15 188.843 101.256 189.21 101.256C189.614 101.256 189.958 101.141 190.243 100.912L190.656 101.862ZM199.06 94.988V102.289H197.807V101.187C197.54 101.564 197.187 101.857 196.746 102.069C196.314 102.271 195.841 102.372 195.327 102.372C194.354 102.372 193.587 102.105 193.027 101.573C192.466 101.031 192.186 100.237 192.186 99.1896V94.988H193.509V99.038C193.509 99.7452 193.679 100.282 194.018 100.65C194.358 101.008 194.845 101.187 195.479 101.187C196.177 101.187 196.728 100.976 197.132 100.553C197.536 100.131 197.738 99.534 197.738 98.7625V94.988H199.06ZM208.466 92.0676V102.289H207.198V101.132C206.904 101.536 206.532 101.844 206.082 102.055C205.632 102.266 205.137 102.372 204.595 102.372C203.888 102.372 203.254 102.216 202.694 101.903C202.133 101.591 201.693 101.155 201.371 100.595C201.059 100.025 200.903 99.3732 200.903 98.6386C200.903 97.9039 201.059 97.2564 201.371 96.6962C201.693 96.136 202.133 95.6998 202.694 95.3875C203.254 95.0753 203.888 94.9192 204.595 94.9192C205.118 94.9192 205.6 95.0202 206.041 95.2222C206.482 95.4151 206.849 95.7044 207.143 96.0901V92.0676H208.466ZM204.705 101.215C205.164 101.215 205.582 101.109 205.958 100.898C206.335 100.677 206.629 100.374 206.84 99.9886C207.051 99.5937 207.157 99.1437 207.157 98.6386C207.157 98.1334 207.051 97.688 206.84 97.3023C206.629 96.9074 206.335 96.6044 205.958 96.3931C205.582 96.1819 205.164 96.0763 204.705 96.0763C204.237 96.0763 203.814 96.1819 203.438 96.3931C203.07 96.6044 202.776 96.9074 202.556 97.3023C202.345 97.688 202.239 98.1334 202.239 98.6386C202.239 99.1437 202.345 99.5937 202.556 99.9886C202.776 100.374 203.07 100.677 203.438 100.898C203.814 101.109 204.237 101.215 204.705 101.215ZM210.968 94.988H212.29V102.289H210.968V94.988ZM211.629 93.5829C211.372 93.5829 211.156 93.5003 210.982 93.335C210.816 93.1697 210.734 92.9676 210.734 92.7289C210.734 92.4901 210.816 92.288 210.982 92.1227C211.156 91.9482 211.372 91.861 211.629 91.861C211.886 91.861 212.097 91.9437 212.263 92.109C212.437 92.2651 212.524 92.4625 212.524 92.7013C212.524 92.9493 212.437 93.1605 212.263 93.335C212.097 93.5003 211.886 93.5829 211.629 93.5829ZM217.942 102.372C217.217 102.372 216.565 102.211 215.986 101.89C215.408 101.568 214.953 101.127 214.622 100.567C214.301 99.9977 214.14 99.3549 214.14 98.6386C214.14 97.9222 214.301 97.284 214.622 96.7238C214.953 96.1544 215.408 95.7136 215.986 95.4013C216.565 95.0799 217.217 94.9192 217.942 94.9192C218.668 94.9192 219.315 95.0799 219.885 95.4013C220.463 95.7136 220.913 96.1544 221.235 96.7238C221.565 97.284 221.731 97.9222 221.731 98.6386C221.731 99.3549 221.565 99.9977 221.235 100.567C220.913 101.127 220.463 101.568 219.885 101.89C219.315 102.211 218.668 102.372 217.942 102.372ZM217.942 101.215C218.411 101.215 218.829 101.109 219.196 100.898C219.572 100.677 219.866 100.374 220.077 99.9886C220.289 99.5937 220.394 99.1437 220.394 98.6386C220.394 98.1334 220.289 97.688 220.077 97.3023C219.866 96.9074 219.572 96.6044 219.196 96.3931C218.829 96.1819 218.411 96.0763 217.942 96.0763C217.474 96.0763 217.051 96.1819 216.675 96.3931C216.308 96.6044 216.014 96.9074 215.793 97.3023C215.582 97.688 215.476 98.1334 215.476 98.6386C215.476 99.1437 215.582 99.5937 215.793 99.9886C216.014 100.374 216.308 100.677 216.675 100.898C217.051 101.109 217.474 101.215 217.942 101.215ZM236.392 102.289L236.378 95.2636L232.893 101.118H232.259L228.774 95.3049V102.289H227.452V92.6462H228.581L232.604 99.4238L236.571 92.6462H237.701L237.715 102.289H236.392ZM247.221 94.988V102.289H245.967V101.187C245.701 101.564 245.347 101.857 244.906 102.069C244.475 102.271 244.002 102.372 243.488 102.372C242.514 102.372 241.747 102.105 241.187 101.573C240.627 101.031 240.347 100.237 240.347 99.1896V94.988H241.669V99.038C241.669 99.7452 241.839 100.282 242.179 100.65C242.519 101.008 243.005 101.187 243.639 101.187C244.337 101.187 244.888 100.976 245.292 100.553C245.696 100.131 245.898 99.534 245.898 98.7625V94.988H247.221ZM253.637 94.9192C254.564 94.9192 255.299 95.1901 255.841 95.7319C256.392 96.2646 256.667 97.0498 256.667 98.0875V102.289H255.345V98.2391C255.345 97.5319 255.175 96.9993 254.835 96.6411C254.495 96.2829 254.009 96.1039 253.375 96.1039C252.659 96.1039 252.094 96.3151 251.681 96.7375C251.267 97.1508 251.061 97.7477 251.061 98.5283V102.289H249.738V94.988H251.006V96.0901C251.272 95.7136 251.63 95.4243 252.08 95.2222C252.539 95.0202 253.058 94.9192 253.637 94.9192ZM259.115 94.988H260.437V102.289H259.115V94.988ZM259.776 93.5829C259.519 93.5829 259.303 93.5003 259.129 93.335C258.963 93.1697 258.881 92.9676 258.881 92.7289C258.881 92.4901 258.963 92.288 259.129 92.1227C259.303 91.9482 259.519 91.861 259.776 91.861C260.033 91.861 260.244 91.9437 260.41 92.109C260.584 92.2651 260.671 92.4625 260.671 92.7013C260.671 92.9493 260.584 93.1605 260.41 93.335C260.244 93.5003 260.033 93.5829 259.776 93.5829ZM266.144 102.372C265.401 102.372 264.735 102.211 264.147 101.89C263.568 101.568 263.114 101.127 262.783 100.567C262.453 99.9977 262.287 99.3549 262.287 98.6386C262.287 97.9222 262.453 97.284 262.783 96.7238C263.114 96.1544 263.568 95.7136 264.147 95.4013C264.735 95.0799 265.401 94.9192 266.144 94.9192C266.806 94.9192 267.393 95.0523 267.908 95.3187C268.431 95.585 268.835 95.9707 269.12 96.4758L268.114 97.1232C267.885 96.7743 267.6 96.5125 267.26 96.338C266.92 96.1636 266.544 96.0763 266.131 96.0763C265.653 96.0763 265.221 96.1819 264.836 96.3931C264.459 96.6044 264.161 96.9074 263.94 97.3023C263.729 97.688 263.623 98.1334 263.623 98.6386C263.623 99.1528 263.729 99.6074 263.94 100.002C264.161 100.388 264.459 100.687 264.836 100.898C265.221 101.109 265.653 101.215 266.131 101.215C266.544 101.215 266.92 101.127 267.26 100.953C267.6 100.778 267.885 100.517 268.114 100.168L269.12 100.801C268.835 101.306 268.431 101.697 267.908 101.972C267.393 102.239 266.806 102.372 266.144 102.372ZM274.636 94.9192C275.564 94.9192 276.299 95.1901 276.84 95.7319C277.391 96.2646 277.667 97.0498 277.667 98.0875V102.289H276.345V98.2391C276.345 97.5319 276.175 96.9993 275.835 96.6411C275.495 96.2829 275.008 96.1039 274.375 96.1039C273.658 96.1039 273.094 96.3151 272.68 96.7375C272.267 97.1508 272.06 97.7477 272.06 98.5283V102.289H270.738V92.0676H272.06V96.0212C272.336 95.6722 272.694 95.4013 273.135 95.2084C273.585 95.0156 274.085 94.9192 274.636 94.9192ZM280.445 100.484C280.702 100.484 280.913 100.576 281.079 100.76C281.253 100.934 281.34 101.155 281.34 101.421C281.34 101.559 281.322 101.692 281.285 101.821C281.258 101.949 281.198 102.147 281.106 102.413L280.459 104.328H279.591L280.101 102.275C279.926 102.211 279.784 102.105 279.674 101.958C279.573 101.802 279.522 101.623 279.522 101.421C279.522 101.146 279.609 100.921 279.784 100.746C279.958 100.572 280.179 100.484 280.445 100.484ZM293.12 101.091V102.289H286.191V101.352L290.117 97.5641C290.595 97.1049 290.916 96.71 291.081 96.3794C291.247 96.0396 291.329 95.6998 291.329 95.36C291.329 94.8549 291.15 94.4646 290.792 94.1891C290.443 93.9044 289.938 93.762 289.277 93.762C288.211 93.762 287.389 94.111 286.811 94.809L285.874 93.9962C286.251 93.537 286.742 93.1789 287.348 92.9217C287.963 92.6646 288.648 92.536 289.401 92.536C290.411 92.536 291.214 92.7794 291.811 93.2661C292.408 93.7437 292.707 94.3957 292.707 95.2222C292.707 95.7365 292.597 96.2232 292.376 96.6824C292.156 97.1416 291.738 97.6651 291.123 98.2528L288.175 101.091H293.12ZM298.152 102.399C297.39 102.399 296.71 102.206 296.113 101.821C295.526 101.426 295.062 100.856 294.722 100.113C294.382 99.3687 294.212 98.487 294.212 97.4676C294.212 96.4482 294.382 95.5666 294.722 94.8227C295.062 94.0789 295.526 93.5141 296.113 93.1283C296.71 92.7334 297.39 92.536 298.152 92.536C298.905 92.536 299.576 92.7334 300.163 93.1283C300.76 93.5141 301.229 94.0789 301.568 94.8227C301.908 95.5666 302.078 96.4482 302.078 97.4676C302.078 98.487 301.908 99.3687 301.568 100.113C301.229 100.856 300.76 101.426 300.163 101.821C299.576 102.206 298.905 102.399 298.152 102.399ZM298.152 101.173C298.924 101.173 299.539 100.856 299.998 100.223C300.466 99.5891 300.701 98.6707 300.701 97.4676C300.701 96.2646 300.466 95.3462 299.998 94.7125C299.539 94.0789 298.924 93.762 298.152 93.762C297.372 93.762 296.747 94.0789 296.279 94.7125C295.819 95.3462 295.59 96.2646 295.59 97.4676C295.59 98.6707 295.819 99.5891 296.279 100.223C296.747 100.856 297.372 101.173 298.152 101.173ZM310.138 101.091V102.289H303.209V101.352L307.135 97.5641C307.612 97.1049 307.934 96.71 308.099 96.3794C308.264 96.0396 308.347 95.6998 308.347 95.36C308.347 94.8549 308.168 94.4646 307.81 94.1891C307.461 93.9044 306.956 93.762 306.294 93.762C305.229 93.762 304.407 94.111 303.829 94.809L302.892 93.9962C303.268 93.537 303.76 93.1789 304.366 92.9217C304.981 92.6646 305.665 92.536 306.418 92.536C307.429 92.536 308.232 92.7794 308.829 93.2661C309.426 93.7437 309.724 94.3957 309.724 95.2222C309.724 95.7365 309.614 96.2232 309.394 96.6824C309.173 97.1416 308.756 97.6651 308.14 98.2528L305.192 101.091H310.138ZM314.962 96.6962C315.908 96.788 316.629 97.0819 317.125 97.5778C317.621 98.0646 317.869 98.6891 317.869 99.4513C317.869 100.002 317.731 100.503 317.455 100.953C317.18 101.394 316.767 101.747 316.216 102.014C315.674 102.271 315.008 102.399 314.218 102.399C313.529 102.399 312.868 102.298 312.235 102.096C311.601 101.885 311.082 101.596 310.678 101.228L311.312 100.14C311.642 100.452 312.065 100.705 312.579 100.898C313.093 101.081 313.64 101.173 314.218 101.173C314.935 101.173 315.49 101.022 315.885 100.719C316.289 100.416 316.491 99.9977 316.491 99.4651C316.491 98.9324 316.294 98.5192 315.899 98.2253C315.504 97.9314 314.907 97.7845 314.108 97.7845H313.337V96.8202L315.761 93.8447H311.119V92.6462H317.483V93.5829L314.962 96.6962Z" fill="white"/>
<path d="M216.009 42.4746L217.677 51.3333L226.535 53.0005L217.677 54.6677L216.009 63.5264L214.342 54.6677L205.483 53.0005L214.342 51.3333L216.009 42.4746Z" fill="white"/>
</svg>
