<svg width="448" height="104" viewBox="0 0 448 104" fill="none" xmlns="http://www.w3.org/2000/svg">
<rect width="448" height="104" fill="#F9DBCF"/>
<path d="M42.1025 81.9567C42.1025 83.4781 41.8775 84.6995 41.4275 85.621C40.9989 86.5638 40.4525 87.271 39.7882 87.7424C39.1453 88.2353 38.2668 88.7495 37.1525 89.2853L37.056 89.0603C37.806 88.6317 38.3418 88.0745 38.6632 87.3888C38.9846 86.7031 39.1775 85.7924 39.2418 84.6567C39.3275 83.5424 39.3703 81.7638 39.3703 79.321V68.5531H38.0846V68.071H39.3703V67.171C39.3703 66.0995 39.4882 65.2424 39.7239 64.5995C39.9596 63.9353 40.3989 63.4424 41.0418 63.121C41.6846 62.7781 42.606 62.6067 43.806 62.6067H45.5096V65.1781H45.4132C45.0918 64.2353 44.8132 63.6353 44.5775 63.3781C44.3632 63.121 44.106 62.9924 43.806 62.9924C43.2275 62.9924 42.7989 63.2817 42.5203 63.8603C42.2418 64.4388 42.1025 65.4567 42.1025 66.9138V68.071H44.6739V68.5531H42.1025V81.9567ZM46.6449 82.7603C47.0949 82.3103 47.3628 81.8924 47.4485 81.5067C47.5556 81.121 47.6092 80.4995 47.6092 79.6424V64.5353C47.6092 63.6781 47.5556 63.0567 47.4485 62.671C47.3628 62.2853 47.0949 61.8674 46.6449 61.4174L46.6771 61.321L50.3413 60.0353V79.6424C50.3413 80.4995 50.3842 81.121 50.4699 81.5067C50.5771 81.8924 50.8556 82.3103 51.3056 82.7603L51.2735 82.8567H46.6771L46.6449 82.7603ZM62.0439 70.321C62.0439 69.121 61.8403 68.2853 61.4331 67.8138C61.0474 67.321 60.351 67.0745 59.3439 67.0745C58.2081 67.0745 57.2224 67.3424 56.3867 67.8781C55.551 68.4138 54.7046 69.271 53.8474 70.4495L53.751 70.4174V67.9745C54.0296 67.9745 54.3081 67.9317 54.5867 67.846C54.8867 67.7603 55.2617 67.6317 55.7117 67.4603C56.4403 67.2031 57.0617 67.0103 57.576 66.8817C58.0903 66.7317 58.6796 66.6567 59.3439 66.6567C60.8439 66.6567 62.1189 66.9567 63.1689 67.5567C64.2403 68.1353 64.776 69.121 64.776 70.5138V79.6424C64.776 80.4995 64.8189 81.121 64.9046 81.5067C65.0117 81.8924 65.2903 82.3103 65.7403 82.7603L65.7081 82.8567H62.0439V81.3781C61.5296 81.9567 60.9081 82.3745 60.1796 82.6317C59.451 82.8674 58.701 82.9853 57.9296 82.9853C56.2153 82.9853 54.9189 82.5995 54.0403 81.8281C53.1831 81.0567 52.7546 80.071 52.7546 78.871C52.7546 77.6924 53.0439 76.7281 53.6224 75.9781C54.201 75.2067 54.8867 74.6174 55.6796 74.2103C56.4724 73.8031 57.4796 73.3745 58.701 72.9245C59.8796 72.496 60.726 72.121 61.2403 71.7995C61.776 71.4781 62.0439 71.0495 62.0439 70.5138V70.321ZM55.4224 78.9995C55.4224 79.9853 55.6581 80.821 56.1296 81.5067C56.6224 82.171 57.3296 82.5031 58.251 82.5031C59.2153 82.5031 60.0831 82.1924 60.8546 81.571C61.6474 80.9495 62.0439 79.9317 62.0439 78.5174V71.5745C61.8296 71.8317 61.551 72.0888 61.2081 72.346C60.8653 72.5817 60.4046 72.871 59.826 73.2138C58.926 73.7495 58.176 74.2531 57.576 74.7245C56.9974 75.1745 56.4939 75.7638 56.0653 76.4924C55.6367 77.1995 55.4224 78.0353 55.4224 78.9995ZM68.3263 70.9638C68.3263 70.1067 68.2727 69.4853 68.1656 69.0995C68.0799 68.7138 67.812 68.296 67.362 67.846L67.3941 67.7495L71.0584 66.4638V79.6424C71.0584 80.4995 71.1013 81.121 71.187 81.5067C71.2941 81.8924 71.5727 82.3103 72.0227 82.7603L71.9906 82.8567H67.3941L67.362 82.7603C67.812 82.3103 68.0799 81.8924 68.1656 81.5067C68.2727 81.121 68.3263 80.4995 68.3263 79.6424V70.9638ZM67.7477 63.571C67.7477 63.0353 67.9299 62.5853 68.2941 62.221C68.6799 61.8353 69.1406 61.6424 69.6763 61.6424C70.212 61.6424 70.662 61.8353 71.0263 62.221C71.412 62.5853 71.6049 63.0353 71.6049 63.571V63.6031C71.6049 64.9317 71.7656 65.9281 72.087 66.5924C72.4299 67.2353 72.9977 67.5567 73.7906 67.5567C74.2834 67.5567 74.8406 67.4495 75.462 67.2353L77.6477 66.4638V68.8103C79.1691 67.3531 80.712 66.6245 82.2763 66.6245C83.0049 66.6245 83.5834 66.7317 84.012 66.946L82.6941 69.0995L82.5656 69.0674C82.2441 68.1888 81.5906 67.7495 80.6049 67.7495C80.112 67.7495 79.6299 67.8888 79.1584 68.1674C78.687 68.4245 78.1834 68.821 77.6477 69.3567V79.6424C77.6477 80.4995 77.6906 81.121 77.7763 81.5067C77.8834 81.8924 78.162 82.3103 78.612 82.7603L78.5799 82.8567H73.9834L73.9513 82.7603C74.4013 82.3103 74.6691 81.8924 74.7549 81.5067C74.862 81.121 74.9156 80.4995 74.9156 79.6424V68.4245C74.337 68.4245 73.812 68.3603 73.3406 68.2317C72.8691 68.0817 72.4299 67.7281 72.0227 67.171C71.637 66.6138 71.3906 65.7674 71.2834 64.6317C71.112 64.8888 70.887 65.1031 70.6084 65.2745C70.3299 65.4245 70.0191 65.4995 69.6763 65.4995C69.1406 65.4995 68.6799 65.3174 68.2941 64.9531C67.9299 64.5674 67.7477 64.1067 67.7477 63.571ZM117.303 82.7603C117.753 82.3103 118.021 81.8924 118.106 81.5067C118.213 81.121 118.267 80.4995 118.267 79.6424V64.5353C118.267 63.6781 118.213 63.0567 118.106 62.671C118.021 62.2853 117.753 61.8674 117.303 61.4174L117.335 61.321L120.999 60.0353V67.5888C121.471 67.2888 121.942 67.0638 122.413 66.9138C122.885 66.7424 123.421 66.6567 124.021 66.6567C125.285 66.6567 126.442 66.946 127.492 67.5245C128.542 68.0817 129.378 68.971 129.999 70.1924C130.642 71.4138 130.963 72.9567 130.963 74.821C130.963 76.7281 130.653 78.2924 130.031 79.5138C129.41 80.7353 128.596 81.6245 127.588 82.1817C126.581 82.7388 125.478 83.0174 124.278 83.0174C123.013 83.0174 121.921 82.5781 120.999 81.6995V82.8567H117.335L117.303 82.7603ZM120.999 78.421C120.999 79.921 121.288 80.9924 121.867 81.6353C122.467 82.2781 123.174 82.5995 123.988 82.5995C125.488 82.5995 126.571 81.946 127.235 80.6388C127.899 79.3317 128.231 77.3924 128.231 74.821C128.231 72.3138 127.899 70.396 127.235 69.0674C126.571 67.7388 125.499 67.0745 124.021 67.0745C123.078 67.0745 122.338 67.3853 121.803 68.0067C121.267 68.6067 120.999 69.646 120.999 71.1245V78.421ZM132.39 74.596C132.433 71.896 133.129 69.9031 134.479 68.6174C135.85 67.3103 137.608 66.6567 139.75 66.6567C141.658 66.6567 143.265 67.171 144.572 68.1995C145.879 69.2067 146.693 70.7603 147.015 72.8603L145.633 73.2781L138.272 75.4317C136.408 75.9674 135.475 76.7174 135.475 77.6817C135.475 77.8317 135.486 77.9388 135.508 78.0031C135.915 79.4603 136.59 80.5424 137.533 81.2495C138.475 81.9567 139.6 82.3103 140.908 82.3103C142.279 82.3103 143.479 81.9031 144.508 81.0888C145.536 80.2745 146.533 78.7745 147.497 76.5888C147.947 75.6674 148.611 74.9495 149.49 74.4353C150.39 73.921 151.547 73.4067 152.961 72.8924C154.118 72.4853 154.965 72.121 155.5 71.7995C156.036 71.4781 156.304 71.0495 156.304 70.5138V70.321C156.304 69.121 156.1 68.2853 155.693 67.8138C155.308 67.321 154.611 67.0745 153.604 67.0745C152.468 67.0745 151.483 67.3424 150.647 67.8781C149.811 68.4138 148.965 69.271 148.108 70.4495L148.011 70.4174V67.9745C148.29 67.9745 148.568 67.9317 148.847 67.846C149.147 67.7603 149.522 67.6317 149.972 67.4603C150.7 67.2031 151.322 67.0103 151.836 66.8817C152.35 66.7317 152.94 66.6567 153.604 66.6567C155.104 66.6567 156.379 66.9567 157.429 67.5567C158.5 68.1353 159.036 69.121 159.036 70.5138V79.6424C159.036 80.4995 159.079 81.121 159.165 81.5067C159.272 81.8924 159.55 82.3103 160 82.7603L159.968 82.8567H156.304V81.3781C155.79 81.9567 155.168 82.3745 154.44 82.6317C153.711 82.8674 152.961 82.9853 152.19 82.9853C150.518 82.9853 149.254 82.6317 148.397 81.9245C147.54 81.196 147.079 80.2638 147.015 79.1281C145.815 80.6067 144.647 81.6245 143.511 82.1817C142.375 82.7174 141.025 82.9853 139.461 82.9853C138.24 82.9853 137.093 82.6745 136.022 82.0531C134.95 81.4317 134.083 80.521 133.418 79.321C132.754 78.121 132.411 76.6853 132.39 75.0138V74.596ZM135.122 74.821C135.122 75.571 135.175 76.2995 135.283 77.0067C135.475 76.5353 135.808 76.1388 136.279 75.8174C136.75 75.496 137.393 75.2067 138.208 74.9495L144.347 73.1495C144.24 71.1567 143.822 69.646 143.093 68.6174C142.365 67.5888 141.25 67.0745 139.75 67.0745C138.079 67.0745 136.89 67.7281 136.183 69.0353C135.475 70.3424 135.122 72.271 135.122 74.821ZM149.683 78.9995C149.683 79.9853 149.918 80.821 150.39 81.5067C150.883 82.171 151.59 82.5031 152.511 82.5031C153.475 82.5031 154.343 82.1924 155.115 81.571C155.908 80.9495 156.304 79.9317 156.304 78.5174V71.5745C156.09 71.8317 155.811 72.0888 155.468 72.346C155.125 72.5817 154.665 72.871 154.086 73.2138C153.186 73.7495 152.436 74.2531 151.836 74.7245C151.258 75.1745 150.754 75.7638 150.325 76.4924C149.897 77.1995 149.683 78.0353 149.683 78.9995ZM165.483 83.2745C164.433 83.2745 163.597 82.9424 162.975 82.2781C162.375 81.5924 162.075 80.5638 162.075 79.1924V70.9638C162.075 70.1067 162.022 69.4853 161.915 69.0995C161.829 68.7138 161.561 68.296 161.111 67.846L161.143 67.7495L164.808 66.4638V79.546C164.808 80.3817 165 81.0245 165.386 81.4745C165.772 81.9245 166.308 82.1495 166.993 82.1495C168.258 82.1495 169.779 81.4317 171.558 79.996V70.9638C171.558 70.1067 171.504 69.4853 171.397 69.0995C171.311 68.7138 171.043 68.296 170.593 67.846L170.625 67.7495L174.29 66.4638V79.6424C174.29 80.4995 174.333 81.121 174.418 81.5067C174.525 81.8924 174.804 82.3103 175.254 82.7603L175.222 82.8567H171.558V80.6067C170.486 81.4424 169.415 82.096 168.343 82.5674C167.293 83.0388 166.34 83.2745 165.483 83.2745ZM179.856 82.9853C177.992 82.9853 177.06 81.6781 177.06 79.0638V67.2674H175.774V66.7853H177.06C177.06 66.0781 177.006 65.5424 176.899 65.1781C176.792 64.8138 176.524 64.4174 176.095 63.9888L176.127 63.8924L179.792 62.6067V66.7853H187.313L187.345 66.8817C187.067 67.1603 186.874 67.4174 186.767 67.6531C186.66 67.8674 186.606 68.1138 186.606 68.3924C186.606 68.7781 186.735 69.3138 186.992 69.9995L190.592 79.2567L194.16 69.9995C194.417 69.3138 194.545 68.7781 194.545 68.3924C194.545 68.1138 194.492 67.8674 194.385 67.6531C194.277 67.4174 194.085 67.1603 193.806 66.8817L193.838 66.7853H196.217L196.249 66.8817C195.97 67.2031 195.713 67.5995 195.477 68.071C195.263 68.5424 194.995 69.1853 194.674 69.9995L188.856 85.171C188.277 86.6924 187.763 87.7531 187.313 88.3531C186.863 88.9745 186.285 89.2853 185.577 89.2853L184.388 86.6495L184.452 86.5853C185.138 86.7567 185.674 86.8424 186.06 86.8424C186.681 86.8424 187.163 86.6924 187.506 86.3924C187.849 86.0924 188.149 85.6103 188.406 84.946L189.21 82.8567H189.081L184.067 69.9995C183.702 69.0995 183.445 68.4888 183.295 68.1674C183.145 67.8245 182.985 67.5888 182.813 67.4603C182.663 67.3317 182.46 67.2674 182.202 67.2674H179.792V78.6781C179.792 79.5567 179.835 80.2317 179.92 80.7031C180.006 81.1745 180.167 81.5174 180.402 81.7317C180.638 81.946 181.002 82.0531 181.495 82.0531C182.074 82.0531 182.781 81.7853 183.617 81.2495L183.745 81.4745C182.224 82.4817 180.927 82.9853 179.856 82.9853Z" fill="black"/>
<path d="M100.38 61.6294L102.125 70.9025L111.398 72.6477L102.125 74.3929L100.38 83.6661L98.6344 74.3929L89.3613 72.6477L98.6344 70.9025L100.38 61.6294Z" fill="black"/>
<path d="M376.818 64.8259H406.091" stroke="#292D32" stroke-width="2.25177" stroke-linecap="round" stroke-linejoin="round"/>
<path d="M376.818 74.8711H406.091" stroke="#292D32" stroke-width="2.25177" stroke-linecap="round" stroke-linejoin="round"/>
<path d="M376.818 84.9146H406.091" stroke="#292D32" stroke-width="2.25177" stroke-linecap="round" stroke-linejoin="round"/>
</svg>
