<svg width="176" height="65" viewBox="0 0 176 65" fill="none" xmlns="http://www.w3.org/2000/svg">
<path d="M15.3674 44.1001C15.3674 45.6214 15.1424 46.8427 14.6924 47.764C14.2639 48.7068 13.7175 49.4139 13.0533 49.8853C12.4105 50.3781 11.532 50.8923 10.4178 51.428L10.3214 51.203C11.0713 50.7745 11.607 50.2174 11.9284 49.5317C12.2498 48.8461 12.4426 47.9355 12.5069 46.7998C12.5926 45.6857 12.6355 43.9072 12.6355 41.4646V30.6977H11.3499V30.2156H12.6355V29.3157C12.6355 28.2443 12.7533 27.3873 12.989 26.7445C13.2247 26.0803 13.664 25.5874 14.3068 25.266C14.9496 24.9232 15.8709 24.7518 17.0708 24.7518H18.7742V27.323H18.6778C18.3564 26.3802 18.0779 25.7803 17.8422 25.5232C17.6279 25.266 17.3708 25.1375 17.0708 25.1375C16.4923 25.1375 16.0637 25.4267 15.7852 26.0053C15.5067 26.5838 15.3674 27.6015 15.3674 29.0586V30.2156H17.9386V30.6977H15.3674V44.1001ZM19.9094 44.9036C20.3594 44.4536 20.6272 44.0358 20.7129 43.6501C20.82 43.2644 20.8736 42.6431 20.8736 41.786V26.6802C20.8736 25.8231 20.82 25.2018 20.7129 24.8161C20.6272 24.4304 20.3594 24.0126 19.9094 23.5626L19.9416 23.4662L23.6055 22.1806V41.786C23.6055 42.6431 23.6484 43.2644 23.7341 43.6501C23.8412 44.0358 24.1198 44.4536 24.5697 44.9036L24.5376 45H19.9416L19.9094 44.9036ZM35.307 32.4654C35.307 31.2655 35.1034 30.4299 34.6963 29.9585C34.3106 29.4657 33.6143 29.2193 32.6072 29.2193C31.4716 29.2193 30.486 29.4871 29.6503 30.0228C28.8147 30.5584 27.9684 31.4155 27.1113 32.594L27.0149 32.5618V30.1192C27.2934 30.1192 27.572 30.0763 27.8505 29.9906C28.1505 29.9049 28.5254 29.7764 28.9754 29.6049C29.7039 29.3478 30.3253 29.155 30.8395 29.0264C31.3538 28.8764 31.943 28.8014 32.6072 28.8014C34.1071 28.8014 35.382 29.1014 36.4319 29.7014C37.5032 30.2799 38.0389 31.2655 38.0389 32.6582V41.786C38.0389 42.6431 38.0817 43.2644 38.1674 43.6501C38.2746 44.0358 38.5531 44.4536 39.0031 44.9036L38.9709 45H35.307V43.5216C34.7927 44.1001 34.1714 44.5179 33.4429 44.775C32.7144 45.0107 31.9644 45.1286 31.1931 45.1286C29.4789 45.1286 28.1826 44.7429 27.3041 43.9715C26.4471 43.2002 26.0185 42.2145 26.0185 41.0146C26.0185 39.8362 26.3078 38.872 26.8863 38.122C27.4648 37.3507 28.1505 36.7614 28.9433 36.3543C29.7361 35.9472 30.7431 35.5187 31.9644 35.0687C33.1429 34.6402 33.9892 34.2652 34.5035 33.9438C35.0392 33.6224 35.307 33.1939 35.307 32.6582V32.4654ZM28.6861 41.1432C28.6861 42.1288 28.9218 42.9645 29.3932 43.6501C29.886 44.3143 30.5931 44.6465 31.5145 44.6465C32.4787 44.6465 33.3464 44.3358 34.1178 43.7144C34.9106 43.093 35.307 42.0753 35.307 40.6611V33.7189C35.0927 33.976 34.8142 34.2331 34.4713 34.4902C34.1285 34.7259 33.6678 35.0152 33.0893 35.358C32.1894 35.8937 31.4395 36.3972 30.8395 36.8686C30.261 37.3185 29.7575 37.9078 29.3289 38.6363C28.9004 39.3434 28.6861 40.179 28.6861 41.1432ZM41.5888 33.1082C41.5888 32.2511 41.5353 31.6298 41.4281 31.2441C41.3424 30.8584 41.0746 30.4406 40.6246 29.9906L40.6568 29.8942L44.3207 28.6086V41.786C44.3207 42.6431 44.3636 43.2644 44.4493 43.6501C44.5564 44.0358 44.835 44.4536 45.2849 44.9036L45.2528 45H40.6568L40.6246 44.9036C41.0746 44.4536 41.3424 44.0358 41.4281 43.6501C41.5353 43.2644 41.5888 42.6431 41.5888 41.786V33.1082ZM41.0103 25.716C41.0103 25.1803 41.1925 24.7304 41.5567 24.3661C41.9424 23.9804 42.4031 23.7876 42.9387 23.7876C43.4744 23.7876 43.9244 23.9804 44.2886 24.3661C44.6743 24.7304 44.8671 25.1803 44.8671 25.716V25.7481C44.8671 27.0766 45.0278 28.0729 45.3492 28.7372C45.6921 29.38 46.2599 29.7014 47.0526 29.7014C47.5455 29.7014 48.1026 29.5942 48.7239 29.38L50.9094 28.6086V30.9548C52.4307 29.4978 53.9735 28.7693 55.5376 28.7693C56.2661 28.7693 56.8446 28.8764 57.2732 29.0907L55.9554 31.2441L55.8269 31.2119C55.5055 30.3334 54.852 29.8942 53.8663 29.8942C53.3735 29.8942 52.8914 30.0335 52.42 30.312C51.9486 30.5691 51.4451 30.9655 50.9094 31.5012V41.786C50.9094 42.6431 50.9523 43.2644 51.038 43.6501C51.1451 44.0358 51.4237 44.4536 51.8736 44.9036L51.8415 45H47.2455L47.2133 44.9036C47.6633 44.4536 47.9311 44.0358 48.0168 43.6501C48.124 43.2644 48.1775 42.6431 48.1775 41.786V30.5691C47.599 30.5691 47.0741 30.5049 46.6027 30.3763C46.1313 30.2263 45.6921 29.8728 45.2849 29.3157C44.8993 28.7586 44.6529 27.9122 44.5457 26.7766C44.3743 27.0337 44.1493 27.248 43.8708 27.4194C43.5922 27.5694 43.2816 27.6444 42.9387 27.6444C42.4031 27.6444 41.9424 27.4623 41.5567 27.098C41.1925 26.7123 41.0103 26.2517 41.0103 25.716ZM86.4169 44.9036C86.8668 44.4536 87.1347 44.0358 87.2204 43.6501C87.3275 43.2644 87.3811 42.6431 87.3811 41.786V26.6802C87.3811 25.8231 87.3275 25.2018 87.2204 24.8161C87.1347 24.4304 86.8668 24.0126 86.4169 23.5626L86.449 23.4662L90.113 22.1806V29.7335C90.5844 29.4335 91.0557 29.2085 91.5271 29.0586C91.9985 28.8871 92.5342 28.8014 93.1341 28.8014C94.3983 28.8014 95.5553 29.0907 96.6053 29.6692C97.6552 30.2263 98.4908 31.1155 99.1122 32.3368C99.755 33.5582 100.076 35.1009 100.076 36.965C100.076 38.872 99.7657 40.4361 99.1443 41.6574C98.5229 42.8788 97.7087 43.768 96.7017 44.3251C95.6946 44.8822 94.5911 45.1607 93.3913 45.1607C92.1271 45.1607 91.0343 44.7215 90.113 43.843V45H86.449L86.4169 44.9036ZM90.113 40.5647C90.113 42.0645 90.4022 43.1359 90.9808 43.7787C91.5807 44.4215 92.2878 44.7429 93.102 44.7429C94.6019 44.7429 95.6839 44.0894 96.3481 42.7823C97.0124 41.4753 97.3445 39.5362 97.3445 36.965C97.3445 34.4581 97.0124 32.5404 96.3481 31.2119C95.6839 29.8835 94.6126 29.2193 93.1341 29.2193C92.1914 29.2193 91.4521 29.5299 90.9165 30.1513C90.3808 30.7513 90.113 31.7905 90.113 33.2689V40.5647ZM101.503 36.74C101.545 34.0403 102.242 32.0476 103.592 30.762C104.963 29.455 106.72 28.8014 108.863 28.8014C110.77 28.8014 112.377 29.3157 113.684 30.3442C114.991 31.3512 115.805 32.9046 116.126 35.0045L114.744 35.4223L107.384 37.5757C105.52 38.1113 104.588 38.8613 104.588 39.8255C104.588 39.9754 104.599 40.0826 104.62 40.1469C105.027 41.6039 105.702 42.6859 106.645 43.393C107.588 44.1001 108.713 44.4536 110.02 44.4536C111.391 44.4536 112.591 44.0465 113.619 43.2323C114.648 42.4181 115.644 40.9182 116.608 38.7327C117.058 37.8114 117.723 37.0936 118.601 36.5793C119.501 36.0651 120.658 35.5508 122.072 35.0366C123.229 34.6295 124.076 34.2652 124.611 33.9438C125.147 33.6224 125.415 33.1939 125.415 32.6582V32.4654C125.415 31.2655 125.211 30.4299 124.804 29.9585C124.418 29.4657 123.722 29.2193 122.715 29.2193C121.579 29.2193 120.594 29.4871 119.758 30.0228C118.922 30.5584 118.076 31.4155 117.219 32.594L117.123 32.5618V30.1192C117.401 30.1192 117.68 30.0763 117.958 29.9906C118.258 29.9049 118.633 29.7764 119.083 29.6049C119.812 29.3478 120.433 29.155 120.947 29.0264C121.462 28.8764 122.051 28.8014 122.715 28.8014C124.215 28.8014 125.49 29.1014 126.54 29.7014C127.611 30.2799 128.147 31.2655 128.147 32.6582V41.786C128.147 42.6431 128.189 43.2644 128.275 43.6501C128.382 44.0358 128.661 44.4536 129.111 44.9036L129.079 45H125.415V43.5216C124.901 44.1001 124.279 44.5179 123.551 44.775C122.822 45.0107 122.072 45.1286 121.301 45.1286C119.63 45.1286 118.365 44.775 117.508 44.0679C116.651 43.3394 116.191 42.4074 116.126 41.2718C114.926 42.7502 113.759 43.768 112.623 44.3251C111.487 44.8607 110.138 45.1286 108.573 45.1286C107.352 45.1286 106.206 44.8179 105.134 44.1965C104.063 43.5751 103.195 42.6645 102.531 41.4646C101.867 40.2647 101.524 38.8291 101.503 37.1578V36.74ZM104.234 36.965C104.234 37.7149 104.288 38.4434 104.395 39.1505C104.588 38.6791 104.92 38.2827 105.392 37.9613C105.863 37.6399 106.506 37.3507 107.32 37.0936L113.459 35.2937C113.352 33.301 112.934 31.7905 112.205 30.762C111.477 29.7335 110.363 29.2193 108.863 29.2193C107.191 29.2193 106.002 29.8728 105.295 31.1798C104.588 32.4868 104.234 34.4152 104.234 36.965ZM118.794 41.1432C118.794 42.1288 119.03 42.9645 119.501 43.6501C119.994 44.3143 120.701 44.6465 121.622 44.6465C122.586 44.6465 123.454 44.3358 124.226 43.7144C125.018 43.093 125.415 42.0753 125.415 40.6611V33.7189C125.2 33.976 124.922 34.2331 124.579 34.4902C124.236 34.7259 123.776 35.0152 123.197 35.358C122.297 35.8937 121.547 36.3972 120.947 36.8686C120.369 37.3185 119.865 37.9078 119.437 38.6363C119.008 39.3434 118.794 40.179 118.794 41.1432ZM134.592 45.4178C133.543 45.4178 132.707 45.0857 132.086 44.4215C131.486 43.7358 131.186 42.7073 131.186 41.336V33.1082C131.186 32.2511 131.132 31.6298 131.025 31.2441C130.939 30.8584 130.671 30.4406 130.221 29.9906L130.254 29.8942L133.918 28.6086V41.6896C133.918 42.5252 134.11 43.168 134.496 43.618C134.882 44.0679 135.417 44.2929 136.103 44.2929C137.367 44.2929 138.889 43.5751 140.667 42.1395V33.1082C140.667 32.2511 140.613 31.6298 140.506 31.2441C140.421 30.8584 140.153 30.4406 139.703 29.9906L139.735 29.8942L143.399 28.6086V41.786C143.399 42.6431 143.442 43.2644 143.527 43.6501C143.635 44.0358 143.913 44.4536 144.363 44.9036L144.331 45H140.667V42.7502C139.596 43.5858 138.524 44.2394 137.453 44.7107C136.403 45.1821 135.45 45.4178 134.592 45.4178ZM148.965 45.1286C147.1 45.1286 146.168 43.8215 146.168 41.2075V29.4121H144.883V28.93H146.168C146.168 28.2229 146.115 27.6873 146.008 27.323C145.901 26.9587 145.633 26.5624 145.204 26.1338L145.236 26.0374L148.9 24.7518V28.93H156.421L156.453 29.0264C156.175 29.305 155.982 29.5621 155.875 29.7978C155.768 30.012 155.714 30.2585 155.714 30.537C155.714 30.9227 155.843 31.4583 156.1 32.144L159.699 41.4003L163.267 32.144C163.524 31.4583 163.653 30.9227 163.653 30.537C163.653 30.2585 163.599 30.012 163.492 29.7978C163.385 29.5621 163.192 29.305 162.913 29.0264L162.945 28.93H165.324L165.356 29.0264C165.077 29.3478 164.82 29.7442 164.585 30.2156C164.37 30.687 164.103 31.3298 163.781 32.144L157.964 47.3141C157.385 48.8354 156.871 49.896 156.421 50.4959C155.971 51.1173 155.393 51.428 154.686 51.428L153.496 48.7925L153.561 48.7282C154.246 48.8997 154.782 48.9854 155.168 48.9854C155.789 48.9854 156.271 48.8354 156.614 48.5354C156.957 48.2354 157.257 47.7533 157.514 47.0891L158.317 45H158.189L153.175 32.144C152.811 31.2441 152.554 30.6334 152.404 30.312C152.254 29.9692 152.093 29.7335 151.921 29.6049C151.771 29.4764 151.568 29.4121 151.311 29.4121H148.9V40.8218C148.9 41.7003 148.943 42.3752 149.029 42.8466C149.115 43.318 149.275 43.6608 149.511 43.8751C149.747 44.0894 150.111 44.1965 150.604 44.1965C151.182 44.1965 151.889 43.9287 152.725 43.393L152.854 43.618C151.332 44.625 150.036 45.1286 148.965 45.1286Z" fill="black"/>
<path d="M70.5982 26L72.1185 34.0779L80.1964 35.5982L72.1185 37.1185L70.5982 45.1964L69.0779 37.1185L61 35.5982L69.0779 34.0779L70.5982 26Z" fill="black"/>
</svg>
