<svg width="38" height="49" viewBox="0 0 38 49" fill="none" xmlns="http://www.w3.org/2000/svg">
<path d="M17.5192 30.5726L17.5822 30.9597L17.9657 31.0418L27.7459 33.1346L17.874 34.7403L17.4869 34.8033L17.4049 35.1867L15.312 44.967L13.7063 35.0951L13.6433 34.708L13.2599 34.6259L3.47965 32.5331L13.3515 30.9274L13.7386 30.8644L13.8207 30.481L15.9135 20.7007L17.5192 30.5726Z" fill="black" stroke="black" stroke-width="1.14796"/>
<path d="M28.146 9.36047L28.209 9.74753L28.5925 9.82959L34.5309 11.1003L28.5368 12.0753L28.1497 12.1383L28.0677 12.5217L26.7969 18.4602L25.8219 12.4661L25.759 12.079L25.3755 11.997L19.4371 10.7262L25.4312 9.75124L25.8182 9.68828L25.9003 9.30481L27.1711 3.36636L28.146 9.36047Z" fill="black" stroke="black" stroke-width="1.14796"/>
</svg>
