<svg width="410" height="165" viewBox="0 0 410 165" fill="none" xmlns="http://www.w3.org/2000/svg">
<path d="M124.464 39.9036C124.914 39.4536 125.182 39.0357 125.268 38.65C125.375 38.2643 125.429 37.6429 125.429 36.7857V20.7143C125.429 19.8571 125.375 19.2357 125.268 18.85C125.182 18.4643 124.914 18.0464 124.464 17.5964L124.496 17.5H129.254L129.286 17.5964C128.836 18.0464 128.557 18.4643 128.45 18.85C128.364 19.2357 128.321 19.8571 128.321 20.7143V26.6607H138.286V20.7143C138.286 19.8571 138.232 19.2357 138.125 18.85C138.039 18.4643 137.771 18.0464 137.321 17.5964L137.354 17.5H142.111L142.143 17.5964C141.693 18.0464 141.414 18.4643 141.307 18.85C141.221 19.2357 141.179 19.8571 141.179 20.7143V36.7857C141.179 37.6429 141.221 38.2643 141.307 38.65C141.414 39.0357 141.693 39.4536 142.143 39.9036L142.111 40H137.354L137.321 39.9036C137.771 39.4536 138.039 39.0357 138.125 38.65C138.232 38.2643 138.286 37.6429 138.286 36.7857V27.1429H128.321V36.7857C128.321 37.6429 128.364 38.2643 128.45 38.65C128.557 39.0357 128.836 39.4536 129.286 39.9036L129.254 40H124.496L124.464 39.9036ZM152.89 27.4643C152.89 26.2643 152.686 25.4286 152.279 24.9571C151.893 24.4643 151.197 24.2179 150.19 24.2179C149.054 24.2179 148.068 24.4857 147.233 25.0214C146.397 25.5571 145.551 26.4143 144.693 27.5929L144.597 27.5607V25.1179C144.876 25.1179 145.154 25.075 145.433 24.9893C145.733 24.9036 146.108 24.775 146.558 24.6036C147.286 24.3464 147.908 24.1536 148.422 24.025C148.936 23.875 149.526 23.8 150.19 23.8C151.69 23.8 152.965 24.1 154.015 24.7C155.086 25.2786 155.622 26.2643 155.622 27.6571V36.7857C155.622 37.6429 155.665 38.2643 155.751 38.65C155.858 39.0357 156.136 39.4536 156.586 39.9036L156.554 40H152.89V38.5214C152.376 39.1 151.754 39.5179 151.026 39.775C150.297 40.0107 149.547 40.1286 148.776 40.1286C147.061 40.1286 145.765 39.7429 144.886 38.9714C144.029 38.2 143.601 37.2143 143.601 36.0143C143.601 34.8357 143.89 33.8714 144.468 33.1214C145.047 32.35 145.733 31.7607 146.526 31.3536C147.318 30.9464 148.326 30.5179 149.547 30.0679C150.726 29.6393 151.572 29.2643 152.086 28.9429C152.622 28.6214 152.89 28.1929 152.89 27.6571V27.4643ZM146.268 36.1429C146.268 37.1286 146.504 37.9643 146.976 38.65C147.468 39.3143 148.176 39.6464 149.097 39.6464C150.061 39.6464 150.929 39.3357 151.701 38.7143C152.493 38.0929 152.89 37.075 152.89 35.6607V28.7179C152.676 28.975 152.397 29.2321 152.054 29.4893C151.711 29.725 151.251 30.0143 150.672 30.3571C149.772 30.8929 149.022 31.3964 148.422 31.8679C147.843 32.3179 147.34 32.9071 146.911 33.6357C146.483 34.3429 146.268 35.1786 146.268 36.1429ZM159.172 28.1071C159.172 27.25 159.119 26.6286 159.012 26.2429C158.926 25.8571 158.658 25.4393 158.208 24.9893L158.24 24.8929L161.904 23.6071V36.7857C161.904 37.6429 161.947 38.2643 162.033 38.65C162.14 39.0357 162.419 39.4536 162.869 39.9036L162.837 40H158.24L158.208 39.9036C158.658 39.4536 158.926 39.0357 159.012 38.65C159.119 38.2643 159.172 37.6429 159.172 36.7857V28.1071ZM158.594 20.7143C158.594 20.1786 158.776 19.7286 159.14 19.3643C159.526 18.9786 159.987 18.7857 160.522 18.7857C161.058 18.7857 161.508 18.9786 161.872 19.3643C162.258 19.7286 162.451 20.1786 162.451 20.7143V20.7464C162.451 22.075 162.612 23.0714 162.933 23.7357C163.276 24.3786 163.844 24.7 164.637 24.7C165.129 24.7 165.687 24.5929 166.308 24.3786L168.494 23.6071V25.9536C170.015 24.4964 171.558 23.7679 173.122 23.7679C173.851 23.7679 174.429 23.875 174.858 24.0893L173.54 26.2429L173.412 26.2107C173.09 25.3321 172.437 24.8929 171.451 24.8929C170.958 24.8929 170.476 25.0321 170.004 25.3107C169.533 25.5679 169.029 25.9643 168.494 26.5V36.7857C168.494 37.6429 168.537 38.2643 168.622 38.65C168.729 39.0357 169.008 39.4536 169.458 39.9036L169.426 40H164.829L164.797 39.9036C165.247 39.4536 165.515 39.0357 165.601 38.65C165.708 38.2643 165.762 37.6429 165.762 36.7857V25.5679C165.183 25.5679 164.658 25.5036 164.187 25.375C163.715 25.225 163.276 24.8714 162.869 24.3143C162.483 23.7571 162.237 22.9107 162.129 21.775C161.958 22.0321 161.733 22.2464 161.454 22.4179C161.176 22.5679 160.865 22.6429 160.522 22.6429C159.987 22.6429 159.526 22.4607 159.14 22.0964C158.776 21.7107 158.594 21.25 158.594 20.7143ZM183.181 27.1429C182.859 26.3071 182.581 25.6536 182.345 25.1821C182.131 24.7107 181.884 24.325 181.606 24.025L181.638 23.9286H186.427L186.459 24.025C186.181 24.3036 185.988 24.5607 185.881 24.7964C185.774 25.0107 185.72 25.2571 185.72 25.5357C185.72 25.9214 185.849 26.4571 186.106 27.1429L189.706 36.3679L191.602 31.4821L189.899 27.1429C189.577 26.3071 189.299 25.6536 189.063 25.1821C188.849 24.7107 188.602 24.325 188.324 24.025L188.356 23.9286H193.145L193.177 24.025C192.899 24.3036 192.706 24.5607 192.599 24.7964C192.491 25.0107 192.438 25.2571 192.438 25.5357C192.438 25.9214 192.566 26.4571 192.824 27.1429L196.424 36.3679L199.991 27.1429C200.591 25.6 201.149 24.475 201.663 23.7679C202.177 23.0393 202.863 22.4607 203.72 22.0321C203.377 21.6464 203.206 21.2071 203.206 20.7143C203.206 20.1786 203.388 19.7286 203.752 19.3643C204.138 18.9786 204.599 18.7857 205.134 18.7857C205.67 18.7857 206.12 18.9786 206.484 19.3643C206.87 19.7286 207.063 20.1786 207.063 20.7143C207.063 21.25 206.87 21.7107 206.484 22.0964C206.12 22.4607 205.67 22.6429 205.134 22.6429H205.102C204.245 22.6429 203.549 22.8036 203.013 23.125C202.499 23.425 202.059 23.8857 201.695 24.5071C201.352 25.1071 200.956 25.9857 200.506 27.1429L195.524 40H194.913L191.859 32.1571L188.806 40H188.195L183.181 27.1429ZM202.82 39.9036C203.27 39.4536 203.538 39.0357 203.624 38.65C203.731 38.2643 203.784 37.6429 203.784 36.7857V28.1071C203.784 27.25 203.731 26.6286 203.624 26.2429C203.538 25.8571 203.27 25.4393 202.82 24.9893L202.852 24.8929L206.516 23.6071V36.7857C206.516 37.6429 206.559 38.2643 206.645 38.65C206.752 39.0357 207.031 39.4536 207.481 39.9036L207.449 40H202.852L202.82 39.9036ZM213.165 40.1286C211.301 40.1286 210.369 38.8214 210.369 36.2071V24.4107H209.083V23.9286H210.369C210.369 23.2214 210.315 22.6857 210.208 22.3214C210.101 21.9571 209.833 21.5607 209.404 21.1321L209.436 21.0357L213.101 19.75V23.9286H215.672V24.4107H213.101V35.8214C213.101 37.1071 213.197 37.9964 213.39 38.4893C213.583 38.9607 213.979 39.1964 214.579 39.1964C215.029 39.1964 215.447 39.0679 215.833 38.8107C216.219 38.5321 216.626 38.05 217.054 37.3643C217.504 36.6786 218.019 35.7036 218.597 34.4393V21.6786C218.597 20.8214 218.544 20.2 218.436 19.8143C218.351 19.4286 218.083 19.0107 217.633 18.5607L217.665 18.4643L221.329 17.1786V28.3964C222.229 26.6393 223.14 25.3857 224.061 24.6357C225.004 23.8857 226.119 23.5107 227.404 23.5107C228.454 23.5107 229.279 23.8536 229.879 24.5393C230.501 25.2036 230.811 26.2214 230.811 27.5929V36.7857C230.811 37.6429 230.854 38.2643 230.94 38.65C231.047 39.0357 231.326 39.4536 231.776 39.9036L231.744 40H227.147L227.115 39.9036C227.565 39.4536 227.833 39.0357 227.919 38.65C228.026 38.2643 228.079 37.6429 228.079 36.7857V27.2393C228.079 26.4036 227.886 25.7607 227.501 25.3107C227.115 24.8607 226.579 24.6357 225.894 24.6357C225.122 24.6357 224.319 25.0536 223.483 25.8893C222.669 26.7036 221.801 28.1714 220.879 30.2929L219.176 34.1821C218.426 35.8964 217.729 37.1821 217.086 38.0393C216.444 38.8964 215.822 39.4643 215.222 39.7429C214.644 40 213.958 40.1286 213.165 40.1286ZM217.633 39.9036C218.083 39.4536 218.351 39.0357 218.436 38.65C218.544 38.2643 218.597 37.6429 218.597 36.7857V36.4321L221.329 30.4214V36.7857C221.329 37.6429 221.372 38.2643 221.458 38.65C221.565 39.0357 221.844 39.4536 222.294 39.9036L222.261 40H217.665L217.633 39.9036ZM243.91 39.1C243.91 40.6214 243.685 41.8429 243.235 42.7643C242.807 43.7071 242.26 44.4143 241.596 44.8857C240.953 45.3786 240.075 45.8929 238.96 46.4286L238.864 46.2036C239.614 45.775 240.15 45.2179 240.471 44.5321C240.793 43.8464 240.985 42.9357 241.05 41.8C241.135 40.6857 241.178 38.9071 241.178 36.4643V25.6964H239.893V25.2143H241.178V24.3143C241.178 23.2429 241.296 22.3857 241.532 21.7429C241.768 21.0786 242.207 20.5857 242.85 20.2643C243.493 19.9214 244.414 19.75 245.614 19.75H247.318V22.3214H247.221C246.9 21.3786 246.621 20.7786 246.385 20.5214C246.171 20.2643 245.914 20.1357 245.614 20.1357C245.035 20.1357 244.607 20.425 244.328 21.0036C244.05 21.5821 243.91 22.6 243.91 24.0571V25.2143H246.482V25.6964H243.91V39.1ZM248.453 39.9036C248.903 39.4536 249.171 39.0357 249.256 38.65C249.364 38.2643 249.417 37.6429 249.417 36.7857V21.6786C249.417 20.8214 249.364 20.2 249.256 19.8143C249.171 19.4286 248.903 19.0107 248.453 18.5607L248.485 18.4643L252.149 17.1786V36.7857C252.149 37.6429 252.192 38.2643 252.278 38.65C252.385 39.0357 252.664 39.4536 253.114 39.9036L253.081 40H248.485L248.453 39.9036ZM263.852 27.4643C263.852 26.2643 263.648 25.4286 263.241 24.9571C262.855 24.4643 262.159 24.2179 261.152 24.2179C260.016 24.2179 259.03 24.4857 258.195 25.0214C257.359 25.5571 256.513 26.4143 255.655 27.5929L255.559 27.5607V25.1179C255.838 25.1179 256.116 25.075 256.395 24.9893C256.695 24.9036 257.07 24.775 257.52 24.6036C258.248 24.3464 258.87 24.1536 259.384 24.025C259.898 23.875 260.488 23.8 261.152 23.8C262.652 23.8 263.927 24.1 264.977 24.7C266.048 25.2786 266.584 26.2643 266.584 27.6571V36.7857C266.584 37.6429 266.627 38.2643 266.713 38.65C266.82 39.0357 267.098 39.4536 267.548 39.9036L267.516 40H263.852V38.5214C263.338 39.1 262.716 39.5179 261.988 39.775C261.259 40.0107 260.509 40.1286 259.738 40.1286C258.023 40.1286 256.727 39.7429 255.848 38.9714C254.991 38.2 254.563 37.2143 254.563 36.0143C254.563 34.8357 254.852 33.8714 255.43 33.1214C256.009 32.35 256.695 31.7607 257.488 31.3536C258.28 30.9464 259.288 30.5179 260.509 30.0679C261.688 29.6393 262.534 29.2643 263.048 28.9429C263.584 28.6214 263.852 28.1929 263.852 27.6571V27.4643ZM257.23 36.1429C257.23 37.1286 257.466 37.9643 257.938 38.65C258.43 39.3143 259.138 39.6464 260.059 39.6464C261.023 39.6464 261.891 39.3357 262.663 38.7143C263.455 38.0929 263.852 37.075 263.852 35.6607V28.7179C263.638 28.975 263.359 29.2321 263.016 29.4893C262.673 29.725 262.213 30.0143 261.634 30.3571C260.734 30.8929 259.984 31.3964 259.384 31.8679C258.805 32.3179 258.302 32.9071 257.873 33.6357C257.445 34.3429 257.23 35.1786 257.23 36.1429ZM270.134 28.1071C270.134 27.25 270.081 26.6286 269.974 26.2429C269.888 25.8571 269.62 25.4393 269.17 24.9893L269.202 24.8929L272.866 23.6071V36.7857C272.866 37.6429 272.909 38.2643 272.995 38.65C273.102 39.0357 273.381 39.4536 273.831 39.9036L273.799 40H269.202L269.17 39.9036C269.62 39.4536 269.888 39.0357 269.974 38.65C270.081 38.2643 270.134 37.6429 270.134 36.7857V28.1071ZM269.556 20.7143C269.556 20.1786 269.738 19.7286 270.102 19.3643C270.488 18.9786 270.949 18.7857 271.484 18.7857C272.02 18.7857 272.47 18.9786 272.834 19.3643C273.22 19.7286 273.413 20.1786 273.413 20.7143V20.7464C273.413 22.075 273.574 23.0714 273.895 23.7357C274.238 24.3786 274.806 24.7 275.599 24.7C276.091 24.7 276.649 24.5929 277.27 24.3786L279.456 23.6071V25.9536C280.977 24.4964 282.52 23.7679 284.084 23.7679C284.813 23.7679 285.391 23.875 285.82 24.0893L284.502 26.2429L284.374 26.2107C284.052 25.3321 283.399 24.8929 282.413 24.8929C281.92 24.8929 281.438 25.0321 280.966 25.3107C280.495 25.5679 279.991 25.9643 279.456 26.5V36.7857C279.456 37.6429 279.499 38.2643 279.584 38.65C279.691 39.0357 279.97 39.4536 280.42 39.9036L280.388 40H275.791L275.759 39.9036C276.209 39.4536 276.477 39.0357 276.563 38.65C276.67 38.2643 276.724 37.6429 276.724 36.7857V25.5679C276.145 25.5679 275.62 25.5036 275.149 25.375C274.677 25.225 274.238 24.8714 273.831 24.3143C273.445 23.7571 273.199 22.9107 273.091 21.775C272.92 22.0321 272.695 22.2464 272.416 22.4179C272.138 22.5679 271.827 22.6429 271.484 22.6429C270.949 22.6429 270.488 22.4607 270.102 22.0964C269.738 21.7107 269.556 21.25 269.556 20.7143Z" fill="black"/>
<path d="M112.253 90.252L111.965 90.36L108.977 81.756L106.421 89.136L105.485 90.252L105.197 90.36L101.165 78.732C101.057 78.468 100.931 78.27 100.787 78.138C100.655 78.006 100.445 77.94 100.157 77.94H99.5451V77.4H104.009V77.94H103.577C103.049 77.94 102.785 78.096 102.785 78.408C102.785 78.504 102.833 78.684 102.929 78.948L106.061 88.056L108.617 80.676L107.933 78.732C107.789 78.348 107.663 78.12 107.555 78.048C107.447 77.976 107.297 77.94 107.105 77.94H106.961V77.4H110.993V77.94H110.345C109.793 77.94 109.517 78.084 109.517 78.372C109.517 78.516 109.565 78.708 109.661 78.948L112.829 88.056L115.925 79.164C116.069 78.684 116.141 78.384 116.141 78.264C116.141 78.132 116.057 78.048 115.889 78.012C115.733 77.964 115.409 77.94 114.917 77.94H114.665V77.4H118.193V77.94H117.869C117.485 77.94 117.233 77.994 117.113 78.102C116.993 78.21 116.873 78.444 116.753 78.804L113.189 89.136L112.253 90.252ZM125.261 87.804L125.585 88.128C124.817 89.544 123.437 90.252 121.445 90.252C120.521 90.252 119.729 89.844 119.069 89.028C118.421 88.212 118.097 87.3 118.097 86.292C118.097 84.936 118.535 83.778 119.411 82.818C120.299 81.846 121.373 81.36 122.633 81.36C123.233 81.36 123.761 81.534 124.217 81.882C125.033 82.518 125.441 83.34 125.441 84.348C125.441 84.492 125.411 84.666 125.351 84.87C125.303 85.074 125.261 85.176 125.225 85.176L119.429 85.356C119.429 86.292 119.723 87.156 120.311 87.948C120.899 88.74 121.613 89.136 122.453 89.136C123.053 89.136 123.605 89.016 124.109 88.776C124.625 88.524 125.009 88.2 125.261 87.804ZM119.609 84.636L123.821 84.456C123.845 84.456 123.857 84.348 123.857 84.132C123.857 83.508 123.671 83.064 123.299 82.8C122.939 82.536 122.435 82.404 121.787 82.404C121.151 82.404 120.629 82.602 120.221 82.998C119.813 83.394 119.609 83.94 119.609 84.636ZM134.988 90.252C133.932 90.252 133.05 89.856 132.342 89.064C131.634 88.272 131.28 87.348 131.28 86.292C131.28 84.948 131.784 83.79 132.792 82.818C133.812 81.846 134.886 81.36 136.014 81.36C137.142 81.36 138.048 81.762 138.732 82.566C139.428 83.358 139.776 84.276 139.776 85.32C139.776 86.628 139.29 87.78 138.318 88.776C137.358 89.76 136.248 90.252 134.988 90.252ZM132.54 85.32C132.54 86.436 132.876 87.366 133.548 88.11C134.232 88.842 134.994 89.208 135.834 89.208C136.686 89.208 137.352 88.89 137.832 88.254C138.312 87.618 138.552 86.964 138.552 86.292C138.552 85.272 138.234 84.384 137.598 83.628C136.974 82.86 136.212 82.476 135.312 82.476C134.412 82.476 133.722 82.782 133.242 83.394C132.774 83.994 132.54 84.636 132.54 85.32ZM145.902 76.104C146.358 76.104 146.874 76.248 147.45 76.536L147.306 78.156L146.802 78.12C146.802 77.88 146.682 77.604 146.442 77.292C146.202 76.98 145.89 76.824 145.506 76.824C144.858 76.824 144.372 77.142 144.048 77.778C143.724 78.414 143.562 79.44 143.562 80.856C143.562 81.336 143.802 81.576 144.282 81.576H146.046V82.332H143.598V88.668C143.598 88.86 143.604 89.004 143.616 89.1C143.64 89.184 143.712 89.274 143.832 89.37C143.952 89.454 144.138 89.496 144.39 89.496H144.966V90H141.078V89.496H141.294C141.558 89.496 141.75 89.454 141.87 89.37C142.002 89.274 142.074 89.184 142.086 89.1C142.11 89.004 142.122 88.86 142.122 88.668V82.98C142.122 82.752 142.08 82.59 141.996 82.494C141.912 82.386 141.738 82.332 141.474 82.332H141.078V81.576H142.122V80.784C142.122 77.664 143.382 76.104 145.902 76.104ZM152.09 76.104C152.546 76.104 153.062 76.248 153.638 76.536L153.494 78.156L152.99 78.12C152.99 77.88 152.87 77.604 152.63 77.292C152.39 76.98 152.078 76.824 151.694 76.824C151.046 76.824 150.56 77.142 150.236 77.778C149.912 78.414 149.75 79.44 149.75 80.856C149.75 81.336 149.99 81.576 150.47 81.576H152.234V82.332H149.786V88.668C149.786 88.86 149.792 89.004 149.804 89.1C149.828 89.184 149.9 89.274 150.02 89.37C150.14 89.454 150.326 89.496 150.578 89.496H151.154V90H147.266V89.496H147.482C147.746 89.496 147.938 89.454 148.058 89.37C148.19 89.274 148.262 89.184 148.274 89.1C148.298 89.004 148.31 88.86 148.31 88.668V82.98C148.31 82.752 148.268 82.59 148.184 82.494C148.1 82.386 147.926 82.332 147.662 82.332H147.266V81.576H148.31V80.784C148.31 77.664 149.57 76.104 152.09 76.104ZM160.329 87.804L160.653 88.128C159.885 89.544 158.505 90.252 156.513 90.252C155.589 90.252 154.797 89.844 154.137 89.028C153.489 88.212 153.165 87.3 153.165 86.292C153.165 84.936 153.603 83.778 154.479 82.818C155.367 81.846 156.441 81.36 157.701 81.36C158.301 81.36 158.829 81.534 159.285 81.882C160.101 82.518 160.509 83.34 160.509 84.348C160.509 84.492 160.479 84.666 160.419 84.87C160.371 85.074 160.329 85.176 160.293 85.176L154.497 85.356C154.497 86.292 154.791 87.156 155.379 87.948C155.967 88.74 156.681 89.136 157.521 89.136C158.121 89.136 158.673 89.016 159.177 88.776C159.693 88.524 160.077 88.2 160.329 87.804ZM154.677 84.636L158.889 84.456C158.913 84.456 158.925 84.348 158.925 84.132C158.925 83.508 158.739 83.064 158.367 82.8C158.007 82.536 157.503 82.404 156.855 82.404C156.219 82.404 155.697 82.602 155.289 82.998C154.881 83.394 154.677 83.94 154.677 84.636ZM165.937 90H162.049V89.496H162.337C162.661 89.496 162.865 89.442 162.949 89.334C163.045 89.226 163.093 89.052 163.093 88.812V83.412C163.093 83.184 163.015 83.022 162.859 82.926C162.715 82.818 162.445 82.764 162.049 82.764V82.26C162.289 82.26 162.649 82.176 163.129 82.008C163.621 81.828 163.993 81.66 164.245 81.504L164.569 81.432V83.664C165.001 82.716 165.493 82.092 166.045 81.792C166.597 81.48 167.413 81.324 168.493 81.324L168.385 83.412H167.845C167.845 83.244 167.779 83.082 167.647 82.926C167.527 82.77 167.329 82.692 167.053 82.692C166.453 82.692 165.889 83.016 165.361 83.664C164.833 84.312 164.569 84.936 164.569 85.536V88.704C164.569 88.896 164.575 89.034 164.587 89.118C164.611 89.202 164.683 89.286 164.803 89.37C164.923 89.454 165.109 89.496 165.361 89.496H165.937V90ZM180.667 87.804L180.991 88.128C180.223 89.544 178.843 90.252 176.851 90.252C175.927 90.252 175.135 89.844 174.475 89.028C173.827 88.212 173.503 87.3 173.503 86.292C173.503 84.936 173.941 83.778 174.817 82.818C175.705 81.846 176.779 81.36 178.039 81.36C178.639 81.36 179.167 81.534 179.623 81.882C180.439 82.518 180.847 83.34 180.847 84.348C180.847 84.492 180.817 84.666 180.757 84.87C180.709 85.074 180.667 85.176 180.631 85.176L174.835 85.356C174.835 86.292 175.129 87.156 175.717 87.948C176.305 88.74 177.019 89.136 177.859 89.136C178.459 89.136 179.011 89.016 179.515 88.776C180.031 88.524 180.415 88.2 180.667 87.804ZM175.015 84.636L179.227 84.456C179.251 84.456 179.263 84.348 179.263 84.132C179.263 83.508 179.077 83.064 178.705 82.8C178.345 82.536 177.841 82.404 177.193 82.404C176.557 82.404 176.035 82.602 175.627 82.998C175.219 83.394 175.015 83.94 175.015 84.636ZM191.043 90H187.515V89.496H187.695C187.839 89.496 187.911 89.46 187.911 89.388C187.911 89.316 187.827 89.148 187.659 88.884L186.183 86.328L184.779 88.812C184.611 89.076 184.527 89.256 184.527 89.352C184.527 89.448 184.671 89.496 184.959 89.496H185.247V90H181.863V89.496H182.367C183.003 89.496 183.531 89.172 183.951 88.524L185.751 85.608L184.023 82.8C183.735 82.344 183.279 82.116 182.655 82.116H182.403V81.612H185.895V82.116H185.715C185.571 82.116 185.499 82.158 185.499 82.242C185.499 82.314 185.547 82.428 185.643 82.584L186.687 84.348L187.731 82.584C187.755 82.536 187.779 82.488 187.803 82.44C187.827 82.38 187.845 82.338 187.857 82.314C187.869 82.29 187.875 82.272 187.875 82.26C187.875 82.164 187.755 82.116 187.515 82.116H187.335V81.612H190.503V82.116H190.035C189.399 82.116 188.979 82.272 188.775 82.584L187.119 85.068L189.207 88.632C189.411 88.98 189.609 89.214 189.801 89.334C190.005 89.442 190.263 89.496 190.575 89.496H191.043V90ZM198.896 87.804L199.22 88.128C198.452 89.544 197.072 90.252 195.08 90.252C194.156 90.252 193.364 89.844 192.704 89.028C192.056 88.212 191.732 87.3 191.732 86.292C191.732 85.644 191.888 84.996 192.2 84.348C192.524 83.688 192.854 83.166 193.19 82.782C193.538 82.386 194.006 82.05 194.594 81.774C195.194 81.498 195.824 81.36 196.484 81.36C197.144 81.36 197.828 81.492 198.536 81.756L198.428 83.412H197.888C197.888 83.1 197.69 82.842 197.294 82.638C196.91 82.434 196.478 82.332 195.998 82.332C195.518 82.332 195.086 82.41 194.702 82.566C194.318 82.71 194.024 82.89 193.82 83.106C193.628 83.322 193.472 83.58 193.352 83.88C193.16 84.324 193.064 84.816 193.064 85.356C193.064 86.292 193.358 87.156 193.946 87.948C194.534 88.74 195.248 89.136 196.088 89.136C196.688 89.136 197.24 89.016 197.744 88.776C198.26 88.524 198.644 88.2 198.896 87.804ZM207.351 87.804L207.675 88.128C206.907 89.544 205.527 90.252 203.535 90.252C202.611 90.252 201.819 89.844 201.159 89.028C200.511 88.212 200.187 87.3 200.187 86.292C200.187 84.936 200.625 83.778 201.501 82.818C202.389 81.846 203.463 81.36 204.723 81.36C205.323 81.36 205.851 81.534 206.307 81.882C207.123 82.518 207.531 83.34 207.531 84.348C207.531 84.492 207.501 84.666 207.441 84.87C207.393 85.074 207.351 85.176 207.315 85.176L201.519 85.356C201.519 86.292 201.813 87.156 202.401 87.948C202.989 88.74 203.703 89.136 204.543 89.136C205.143 89.136 205.695 89.016 206.199 88.776C206.715 88.524 207.099 88.2 207.351 87.804ZM201.699 84.636L205.911 84.456C205.935 84.456 205.947 84.348 205.947 84.132C205.947 83.508 205.761 83.064 205.389 82.8C205.029 82.536 204.525 82.404 203.877 82.404C203.241 82.404 202.719 82.602 202.311 82.998C201.903 83.394 201.699 83.94 201.699 84.636ZM212.65 90H209.05V89.496H209.302C209.566 89.496 209.758 89.442 209.878 89.334C209.998 89.214 210.058 89.016 210.058 88.74V78.12C210.058 77.892 209.98 77.73 209.824 77.634C209.668 77.526 209.398 77.472 209.014 77.472V76.968C209.254 76.968 209.62 76.902 210.112 76.77C210.616 76.638 210.982 76.5 211.21 76.356L211.534 76.284V88.704C211.534 88.896 211.54 89.034 211.552 89.118C211.576 89.202 211.648 89.286 211.768 89.37C211.888 89.454 212.074 89.496 212.326 89.496H212.65V90ZM217.66 90H214.06V89.496H214.312C214.576 89.496 214.768 89.442 214.888 89.334C215.008 89.214 215.068 89.016 215.068 88.74V78.12C215.068 77.892 214.99 77.73 214.834 77.634C214.678 77.526 214.408 77.472 214.024 77.472V76.968C214.264 76.968 214.63 76.902 215.122 76.77C215.626 76.638 215.992 76.5 216.22 76.356L216.544 76.284V88.704C216.544 88.896 216.55 89.034 216.562 89.118C216.586 89.202 216.658 89.286 216.778 89.37C216.898 89.454 217.084 89.496 217.336 89.496H217.66V90ZM226.054 87.804L226.378 88.128C225.61 89.544 224.23 90.252 222.238 90.252C221.314 90.252 220.522 89.844 219.862 89.028C219.214 88.212 218.89 87.3 218.89 86.292C218.89 84.936 219.328 83.778 220.204 82.818C221.092 81.846 222.166 81.36 223.426 81.36C224.026 81.36 224.554 81.534 225.01 81.882C225.826 82.518 226.234 83.34 226.234 84.348C226.234 84.492 226.204 84.666 226.144 84.87C226.096 85.074 226.054 85.176 226.018 85.176L220.222 85.356C220.222 86.292 220.516 87.156 221.104 87.948C221.692 88.74 222.406 89.136 223.246 89.136C223.846 89.136 224.398 89.016 224.902 88.776C225.418 88.524 225.802 88.2 226.054 87.804ZM220.402 84.636L224.614 84.456C224.638 84.456 224.65 84.348 224.65 84.132C224.65 83.508 224.464 83.064 224.092 82.8C223.732 82.536 223.228 82.404 222.58 82.404C221.944 82.404 221.422 82.602 221.014 82.998C220.606 83.394 220.402 83.94 220.402 84.636ZM236.969 90H233.873V89.496H233.945C234.077 89.496 234.185 89.43 234.269 89.298C234.365 89.166 234.413 89.004 234.413 88.812V84.24C234.413 83.7 234.281 83.292 234.017 83.016C233.765 82.728 233.405 82.584 232.937 82.584C232.265 82.584 231.671 82.944 231.155 83.664C230.639 84.384 230.381 84.924 230.381 85.284V88.704C230.381 88.896 230.387 89.034 230.399 89.118C230.423 89.202 230.495 89.286 230.615 89.37C230.735 89.454 230.921 89.496 231.173 89.496H231.497V90H227.861V89.496H228.149C228.473 89.496 228.677 89.442 228.761 89.334C228.857 89.226 228.905 89.052 228.905 88.812V83.412C228.905 83.184 228.827 83.022 228.671 82.926C228.527 82.818 228.257 82.764 227.861 82.764V82.26C228.101 82.26 228.461 82.176 228.941 82.008C229.433 81.828 229.805 81.66 230.057 81.504L230.381 81.432V83.736C230.657 82.98 231.083 82.398 231.659 81.99C232.235 81.57 232.937 81.36 233.765 81.36C234.197 81.36 234.563 81.456 234.863 81.648C235.163 81.84 235.379 82.086 235.511 82.386C235.739 82.902 235.853 83.412 235.853 83.916V88.776C235.853 88.944 235.865 89.07 235.889 89.154C235.949 89.382 236.201 89.496 236.645 89.496H236.969V90ZM243.396 88.884L243.54 89.316C242.64 89.94 241.656 90.252 240.588 90.252C240.204 90.252 239.874 90.114 239.598 89.838C239.322 89.562 239.184 89.196 239.184 88.74V82.368H238.14V81.612H238.536C238.932 81.612 239.298 81.372 239.634 80.892C239.982 80.412 240.156 79.968 240.156 79.56H240.624V81.612H243.072V82.368H241.308C240.852 82.368 240.624 82.584 240.624 83.016V88.164C240.624 88.956 240.912 89.352 241.488 89.352C242.136 89.352 242.772 89.196 243.396 88.884ZM248.902 89.496L249.082 87.552L249.586 87.588C249.586 87.996 249.85 88.386 250.378 88.758C250.906 89.13 251.476 89.316 252.088 89.316C253.348 89.316 253.978 88.932 253.978 88.164C253.978 87.78 253.816 87.438 253.492 87.138C253.168 86.838 252.778 86.592 252.322 86.4C251.866 86.196 251.41 85.992 250.954 85.788C250.498 85.572 250.108 85.296 249.784 84.96C249.46 84.612 249.298 84.216 249.298 83.772C249.298 82.212 250.45 81.432 252.754 81.432C253.27 81.432 253.834 81.576 254.446 81.864L254.338 83.664H253.906C253.906 83.328 253.708 83.004 253.312 82.692C252.928 82.38 252.508 82.224 252.052 82.224C251.596 82.224 251.206 82.314 250.882 82.494C250.57 82.674 250.414 82.944 250.414 83.304C250.414 83.652 250.576 83.94 250.9 84.168C251.224 84.396 251.614 84.582 252.07 84.726C252.526 84.87 252.982 85.032 253.438 85.212C253.894 85.392 254.284 85.686 254.608 86.094C254.932 86.502 255.094 87.012 255.094 87.624C255.094 88.236 254.896 88.746 254.5 89.154C253.792 89.886 252.766 90.252 251.422 90.252C250.378 90.252 249.538 90 248.902 89.496ZM263.513 87.804L263.837 88.128C263.069 89.544 261.689 90.252 259.697 90.252C258.773 90.252 257.981 89.844 257.321 89.028C256.673 88.212 256.349 87.3 256.349 86.292C256.349 84.936 256.787 83.778 257.663 82.818C258.551 81.846 259.625 81.36 260.885 81.36C261.485 81.36 262.013 81.534 262.469 81.882C263.285 82.518 263.693 83.34 263.693 84.348C263.693 84.492 263.663 84.666 263.603 84.87C263.555 85.074 263.513 85.176 263.477 85.176L257.681 85.356C257.681 86.292 257.975 87.156 258.563 87.948C259.151 88.74 259.865 89.136 260.705 89.136C261.305 89.136 261.857 89.016 262.361 88.776C262.877 88.524 263.261 88.2 263.513 87.804ZM257.861 84.636L262.073 84.456C262.097 84.456 262.109 84.348 262.109 84.132C262.109 83.508 261.923 83.064 261.551 82.8C261.191 82.536 260.687 82.404 260.039 82.404C259.403 82.404 258.881 82.602 258.473 82.998C258.065 83.394 257.861 83.94 257.861 84.636ZM269.12 90H265.232V89.496H265.52C265.844 89.496 266.048 89.442 266.132 89.334C266.228 89.226 266.276 89.052 266.276 88.812V83.412C266.276 83.184 266.198 83.022 266.042 82.926C265.898 82.818 265.628 82.764 265.232 82.764V82.26C265.472 82.26 265.832 82.176 266.312 82.008C266.804 81.828 267.176 81.66 267.428 81.504L267.752 81.432V83.664C268.184 82.716 268.676 82.092 269.228 81.792C269.78 81.48 270.596 81.324 271.676 81.324L271.568 83.412H271.028C271.028 83.244 270.962 83.082 270.83 82.926C270.71 82.77 270.512 82.692 270.236 82.692C269.636 82.692 269.072 83.016 268.544 83.664C268.016 84.312 267.752 84.936 267.752 85.536V88.704C267.752 88.896 267.758 89.034 267.77 89.118C267.794 89.202 267.866 89.286 267.986 89.37C268.106 89.454 268.292 89.496 268.544 89.496H269.12V90ZM275.643 90.252L272.907 82.944C272.799 82.668 272.679 82.47 272.547 82.35C272.427 82.218 272.235 82.152 271.971 82.152H271.719V81.612H275.067L275.031 82.152H274.851C274.491 82.152 274.311 82.26 274.311 82.476C274.311 82.62 274.323 82.716 274.347 82.764L276.363 88.056L278.415 82.872C278.511 82.68 278.559 82.53 278.559 82.422C278.559 82.314 278.493 82.242 278.361 82.206C278.241 82.17 277.959 82.152 277.515 82.152H277.299V81.612H280.683V82.152H280.539C280.155 82.152 279.879 82.212 279.711 82.332C279.555 82.452 279.411 82.68 279.279 83.016L276.903 89.1C276.807 89.1 276.621 89.262 276.345 89.586C276.069 89.898 275.931 90.096 275.931 90.18L275.643 90.252ZM283.166 77.472C283.442 77.472 283.652 77.562 283.796 77.742C283.952 77.922 284.03 78.156 284.03 78.444C284.03 78.72 283.916 78.954 283.688 79.146C283.46 79.326 283.208 79.416 282.932 79.416C282.668 79.416 282.458 79.326 282.302 79.146C282.158 78.966 282.086 78.744 282.086 78.48C282.086 78.204 282.2 77.97 282.428 77.778C282.656 77.574 282.902 77.472 283.166 77.472ZM285.146 90H281.51V89.496H281.798C282.122 89.496 282.326 89.442 282.41 89.334C282.506 89.226 282.554 89.052 282.554 88.812V83.412C282.554 83.184 282.476 83.022 282.32 82.926C282.176 82.818 281.906 82.764 281.51 82.764V82.26C281.75 82.26 282.11 82.176 282.59 82.008C283.082 81.828 283.454 81.66 283.706 81.504L284.03 81.432V88.704C284.03 88.896 284.036 89.034 284.048 89.118C284.072 89.202 284.144 89.286 284.264 89.37C284.384 89.454 284.57 89.496 284.822 89.496H285.146V90ZM293.466 87.804L293.79 88.128C293.022 89.544 291.642 90.252 289.65 90.252C288.726 90.252 287.934 89.844 287.274 89.028C286.626 88.212 286.302 87.3 286.302 86.292C286.302 85.644 286.458 84.996 286.77 84.348C287.094 83.688 287.424 83.166 287.76 82.782C288.108 82.386 288.576 82.05 289.164 81.774C289.764 81.498 290.394 81.36 291.054 81.36C291.714 81.36 292.398 81.492 293.106 81.756L292.998 83.412H292.458C292.458 83.1 292.26 82.842 291.864 82.638C291.48 82.434 291.048 82.332 290.568 82.332C290.088 82.332 289.656 82.41 289.272 82.566C288.888 82.71 288.594 82.89 288.39 83.106C288.198 83.322 288.042 83.58 287.922 83.88C287.73 84.324 287.634 84.816 287.634 85.356C287.634 86.292 287.928 87.156 288.516 87.948C289.104 88.74 289.818 89.136 290.658 89.136C291.258 89.136 291.81 89.016 292.314 88.776C292.83 88.524 293.214 88.2 293.466 87.804ZM301.921 87.804L302.245 88.128C301.477 89.544 300.097 90.252 298.105 90.252C297.181 90.252 296.389 89.844 295.729 89.028C295.081 88.212 294.757 87.3 294.757 86.292C294.757 84.936 295.195 83.778 296.071 82.818C296.959 81.846 298.033 81.36 299.293 81.36C299.893 81.36 300.421 81.534 300.877 81.882C301.693 82.518 302.101 83.34 302.101 84.348C302.101 84.492 302.071 84.666 302.011 84.87C301.963 85.074 301.921 85.176 301.885 85.176L296.089 85.356C296.089 86.292 296.383 87.156 296.971 87.948C297.559 88.74 298.273 89.136 299.113 89.136C299.713 89.136 300.265 89.016 300.769 88.776C301.285 88.524 301.669 88.2 301.921 87.804ZM296.269 84.636L300.481 84.456C300.505 84.456 300.517 84.348 300.517 84.132C300.517 83.508 300.331 83.064 299.959 82.8C299.599 82.536 299.095 82.404 298.447 82.404C297.811 82.404 297.289 82.602 296.881 82.998C296.473 83.394 296.269 83.94 296.269 84.636ZM303.729 89.496L303.909 87.552L304.413 87.588C304.413 87.996 304.677 88.386 305.205 88.758C305.733 89.13 306.303 89.316 306.915 89.316C308.175 89.316 308.805 88.932 308.805 88.164C308.805 87.78 308.643 87.438 308.319 87.138C307.995 86.838 307.605 86.592 307.149 86.4C306.693 86.196 306.237 85.992 305.781 85.788C305.325 85.572 304.935 85.296 304.611 84.96C304.287 84.612 304.125 84.216 304.125 83.772C304.125 82.212 305.277 81.432 307.581 81.432C308.097 81.432 308.661 81.576 309.273 81.864L309.165 83.664H308.733C308.733 83.328 308.535 83.004 308.139 82.692C307.755 82.38 307.335 82.224 306.879 82.224C306.423 82.224 306.033 82.314 305.709 82.494C305.397 82.674 305.241 82.944 305.241 83.304C305.241 83.652 305.403 83.94 305.727 84.168C306.051 84.396 306.441 84.582 306.897 84.726C307.353 84.87 307.809 85.032 308.265 85.212C308.721 85.392 309.111 85.686 309.435 86.094C309.759 86.502 309.921 87.012 309.921 87.624C309.921 88.236 309.723 88.746 309.327 89.154C308.619 89.886 307.593 90.252 306.249 90.252C305.205 90.252 304.365 90 303.729 89.496ZM84.7555 112H82.1635V110.56C81.5635 111.208 81.0655 111.652 80.6695 111.892C80.2735 112.132 79.7335 112.252 79.0495 112.252C78.3775 112.252 77.8495 112.096 77.4655 111.784C77.0935 111.46 76.9075 111.01 76.9075 110.434C76.9075 109.858 77.1535 109.3 77.6455 108.76C78.1495 108.208 78.7315 107.794 79.3915 107.518C80.0635 107.23 80.6515 107.014 81.1555 106.87C81.6595 106.714 81.9955 106.636 82.1635 106.636V106.24C82.1635 105.112 81.6955 104.548 80.7595 104.548C80.1115 104.548 79.5055 104.686 78.9415 104.962C78.3895 105.238 77.9755 105.592 77.6995 106.024L77.3395 105.7C78.1435 104.14 79.5355 103.36 81.5155 103.36C82.0195 103.36 82.4335 103.498 82.7575 103.774C83.0935 104.038 83.3155 104.35 83.4235 104.71C83.5435 105.07 83.6035 105.472 83.6035 105.916V110.776C83.6035 110.932 83.6155 111.052 83.6395 111.136C83.6635 111.22 83.7355 111.304 83.8555 111.388C83.9875 111.46 84.1795 111.496 84.4315 111.496H84.7555V112ZM82.1635 109.552V107.356C81.2275 107.536 80.3575 107.896 79.5535 108.436C78.7495 108.976 78.3475 109.564 78.3475 110.2C78.3475 110.452 78.4675 110.674 78.7075 110.866C78.9595 111.046 79.2655 111.136 79.6255 111.136C79.9975 111.136 80.4355 110.974 80.9395 110.65C81.4435 110.314 81.8515 109.948 82.1635 109.552ZM95.2633 112H92.1673V111.496H92.2393C92.3713 111.496 92.4793 111.43 92.5633 111.298C92.6593 111.166 92.7073 111.004 92.7073 110.812V106.24C92.7073 105.7 92.5753 105.292 92.3113 105.016C92.0593 104.728 91.6993 104.584 91.2313 104.584C90.5593 104.584 89.9653 104.944 89.4493 105.664C88.9333 106.384 88.6753 106.924 88.6753 107.284V110.704C88.6753 110.896 88.6813 111.034 88.6933 111.118C88.7173 111.202 88.7893 111.286 88.9093 111.37C89.0293 111.454 89.2153 111.496 89.4673 111.496H89.7913V112H86.1553V111.496H86.4433C86.7673 111.496 86.9713 111.442 87.0553 111.334C87.1513 111.226 87.1993 111.052 87.1993 110.812V105.412C87.1993 105.184 87.1213 105.022 86.9653 104.926C86.8213 104.818 86.5513 104.764 86.1553 104.764V104.26C86.3953 104.26 86.7553 104.176 87.2353 104.008C87.7273 103.828 88.0993 103.66 88.3513 103.504L88.6753 103.432V105.736C88.9513 104.98 89.3773 104.398 89.9533 103.99C90.5293 103.57 91.2313 103.36 92.0593 103.36C92.4913 103.36 92.8573 103.456 93.1573 103.648C93.4573 103.84 93.6733 104.086 93.8053 104.386C94.0333 104.902 94.1473 105.412 94.1473 105.916V110.776C94.1473 110.944 94.1593 111.07 94.1833 111.154C94.2433 111.382 94.4953 111.496 94.9393 111.496H95.2633V112ZM105.018 112H102.426V109.912C102.174 110.596 101.766 111.16 101.202 111.604C100.638 112.036 99.9362 112.252 99.0962 112.252C98.2682 112.252 97.6142 111.982 97.1342 111.442C96.6542 110.902 96.4142 110.176 96.4142 109.264C96.4142 107.572 96.8522 106.168 97.7282 105.052C98.6162 103.924 99.7022 103.36 100.986 103.36C101.274 103.36 101.754 103.48 102.426 103.72V100.12C102.426 99.892 102.348 99.73 102.192 99.634C102.036 99.526 101.766 99.472 101.382 99.472V98.968C101.634 98.968 102.006 98.902 102.498 98.77C102.99 98.638 103.338 98.5 103.542 98.356L103.866 98.284V110.776C103.866 111.004 103.908 111.172 103.992 111.28C104.088 111.376 104.31 111.424 104.658 111.424H105.018V112ZM102.426 108.436V105.232C102.378 105.16 102.306 105.064 102.21 104.944C102.114 104.824 101.91 104.668 101.598 104.476C101.298 104.284 100.986 104.188 100.662 104.188C99.7862 104.188 99.0542 104.602 98.4662 105.43C97.8902 106.258 97.6022 107.308 97.6022 108.58C97.6022 109.288 97.8122 109.876 98.2322 110.344C98.6642 110.8 99.2102 111.028 99.8702 111.028C100.542 111.028 101.136 110.668 101.652 109.948C102.168 109.216 102.426 108.712 102.426 108.436ZM118.804 112H116.212V110.56C115.612 111.208 115.114 111.652 114.718 111.892C114.322 112.132 113.782 112.252 113.098 112.252C112.426 112.252 111.898 112.096 111.514 111.784C111.142 111.46 110.956 111.01 110.956 110.434C110.956 109.858 111.202 109.3 111.694 108.76C112.198 108.208 112.78 107.794 113.44 107.518C114.112 107.23 114.7 107.014 115.204 106.87C115.708 106.714 116.044 106.636 116.212 106.636V106.24C116.212 105.112 115.744 104.548 114.808 104.548C114.16 104.548 113.554 104.686 112.99 104.962C112.438 105.238 112.024 105.592 111.748 106.024L111.388 105.7C112.192 104.14 113.584 103.36 115.564 103.36C116.068 103.36 116.482 103.498 116.806 103.774C117.142 104.038 117.364 104.35 117.472 104.71C117.592 105.07 117.652 105.472 117.652 105.916V110.776C117.652 110.932 117.664 111.052 117.688 111.136C117.712 111.22 117.784 111.304 117.904 111.388C118.036 111.46 118.228 111.496 118.48 111.496H118.804V112ZM116.212 109.552V107.356C115.276 107.536 114.406 107.896 113.602 108.436C112.798 108.976 112.396 109.564 112.396 110.2C112.396 110.452 112.516 110.674 112.756 110.866C113.008 111.046 113.314 111.136 113.674 111.136C114.046 111.136 114.484 110.974 114.988 110.65C115.492 110.314 115.9 109.948 116.212 109.552ZM127.716 112.18L127.392 112.252L125.592 106.996L124.188 111.1C124.068 111.136 123.882 111.31 123.63 111.622C123.378 111.934 123.252 112.12 123.252 112.18L122.928 112.252L120.372 104.944C120.264 104.668 120.144 104.47 120.012 104.35C119.892 104.218 119.7 104.152 119.436 104.152H119.184V103.612H122.568L122.532 104.152C122.052 104.152 121.812 104.296 121.812 104.584C121.812 104.68 121.86 104.872 121.956 105.16L123.684 110.056L125.16 105.772L124.836 104.944C124.632 104.416 124.368 104.152 124.044 104.152V103.612H127.248V104.152H127.104C126.576 104.152 126.312 104.296 126.312 104.584C126.312 104.632 126.348 104.764 126.42 104.98L128.148 110.056L129.912 104.908C130.008 104.68 130.056 104.518 130.056 104.422C130.056 104.314 129.99 104.242 129.858 104.206C129.738 104.17 129.456 104.152 129.012 104.152H128.796V103.612H132.18V104.152H132C131.604 104.152 131.328 104.212 131.172 104.332C131.016 104.452 130.884 104.68 130.776 105.016L128.688 111.1C128.58 111.1 128.388 111.268 128.112 111.604C127.848 111.928 127.716 112.12 127.716 112.18ZM140.373 112H137.781V110.56C137.181 111.208 136.683 111.652 136.287 111.892C135.891 112.132 135.351 112.252 134.667 112.252C133.995 112.252 133.467 112.096 133.083 111.784C132.711 111.46 132.525 111.01 132.525 110.434C132.525 109.858 132.771 109.3 133.263 108.76C133.767 108.208 134.349 107.794 135.009 107.518C135.681 107.23 136.269 107.014 136.773 106.87C137.277 106.714 137.613 106.636 137.781 106.636V106.24C137.781 105.112 137.313 104.548 136.377 104.548C135.729 104.548 135.123 104.686 134.559 104.962C134.007 105.238 133.593 105.592 133.317 106.024L132.957 105.7C133.761 104.14 135.153 103.36 137.133 103.36C137.637 103.36 138.051 103.498 138.375 103.774C138.711 104.038 138.933 104.35 139.041 104.71C139.161 105.07 139.221 105.472 139.221 105.916V110.776C139.221 110.932 139.233 111.052 139.257 111.136C139.281 111.22 139.353 111.304 139.473 111.388C139.605 111.46 139.797 111.496 140.049 111.496H140.373V112ZM137.781 109.552V107.356C136.845 107.536 135.975 107.896 135.171 108.436C134.367 108.976 133.965 109.564 133.965 110.2C133.965 110.452 134.085 110.674 134.325 110.866C134.577 111.046 134.883 111.136 135.243 111.136C135.615 111.136 136.053 110.974 136.557 110.65C137.061 110.314 137.469 109.948 137.781 109.552ZM145.66 112H141.772V111.496H142.06C142.384 111.496 142.588 111.442 142.672 111.334C142.768 111.226 142.816 111.052 142.816 110.812V105.412C142.816 105.184 142.738 105.022 142.582 104.926C142.438 104.818 142.168 104.764 141.772 104.764V104.26C142.012 104.26 142.372 104.176 142.852 104.008C143.344 103.828 143.716 103.66 143.968 103.504L144.292 103.432V105.664C144.724 104.716 145.216 104.092 145.768 103.792C146.32 103.48 147.136 103.324 148.216 103.324L148.108 105.412H147.568C147.568 105.244 147.502 105.082 147.37 104.926C147.25 104.77 147.052 104.692 146.776 104.692C146.176 104.692 145.612 105.016 145.084 105.664C144.556 106.312 144.292 106.936 144.292 107.536V110.704C144.292 110.896 144.298 111.034 144.31 111.118C144.334 111.202 144.406 111.286 144.526 111.37C144.646 111.454 144.832 111.496 145.084 111.496H145.66V112ZM157.331 112H154.739V109.912C154.487 110.596 154.079 111.16 153.515 111.604C152.951 112.036 152.249 112.252 151.409 112.252C150.581 112.252 149.927 111.982 149.447 111.442C148.967 110.902 148.727 110.176 148.727 109.264C148.727 107.572 149.165 106.168 150.041 105.052C150.929 103.924 152.015 103.36 153.299 103.36C153.587 103.36 154.067 103.48 154.739 103.72V100.12C154.739 99.892 154.661 99.73 154.505 99.634C154.349 99.526 154.079 99.472 153.695 99.472V98.968C153.947 98.968 154.319 98.902 154.811 98.77C155.303 98.638 155.651 98.5 155.855 98.356L156.179 98.284V110.776C156.179 111.004 156.221 111.172 156.305 111.28C156.401 111.376 156.623 111.424 156.971 111.424H157.331V112ZM154.739 108.436V105.232C154.691 105.16 154.619 105.064 154.523 104.944C154.427 104.824 154.223 104.668 153.911 104.476C153.611 104.284 153.299 104.188 152.975 104.188C152.099 104.188 151.367 104.602 150.779 105.43C150.203 106.258 149.915 107.308 149.915 108.58C149.915 109.288 150.125 109.876 150.545 110.344C150.977 110.8 151.523 111.028 152.183 111.028C152.855 111.028 153.449 110.668 153.965 109.948C154.481 109.216 154.739 108.712 154.739 108.436ZM166.383 107.932H159.219V107.068H166.383V107.932ZM176.127 112.18L175.803 112.252L174.003 106.996L172.599 111.1C172.479 111.136 172.293 111.31 172.041 111.622C171.789 111.934 171.663 112.12 171.663 112.18L171.339 112.252L168.783 104.944C168.675 104.668 168.555 104.47 168.423 104.35C168.303 104.218 168.111 104.152 167.847 104.152H167.595V103.612H170.979L170.943 104.152C170.463 104.152 170.223 104.296 170.223 104.584C170.223 104.68 170.271 104.872 170.367 105.16L172.095 110.056L173.571 105.772L173.247 104.944C173.043 104.416 172.779 104.152 172.455 104.152V103.612H175.659V104.152H175.515C174.987 104.152 174.723 104.296 174.723 104.584C174.723 104.632 174.759 104.764 174.831 104.98L176.559 110.056L178.323 104.908C178.419 104.68 178.467 104.518 178.467 104.422C178.467 104.314 178.401 104.242 178.269 104.206C178.149 104.17 177.867 104.152 177.423 104.152H177.207V103.612H180.591V104.152H180.411C180.015 104.152 179.739 104.212 179.583 104.332C179.427 104.452 179.295 104.68 179.187 105.016L177.099 111.1C176.991 111.1 176.799 111.268 176.523 111.604C176.259 111.928 176.127 112.12 176.127 112.18ZM183.067 99.472C183.343 99.472 183.553 99.562 183.697 99.742C183.853 99.922 183.931 100.156 183.931 100.444C183.931 100.72 183.817 100.954 183.589 101.146C183.361 101.326 183.109 101.416 182.833 101.416C182.569 101.416 182.359 101.326 182.203 101.146C182.059 100.966 181.987 100.744 181.987 100.48C181.987 100.204 182.101 99.97 182.329 99.778C182.557 99.574 182.803 99.472 183.067 99.472ZM185.047 112H181.411V111.496H181.699C182.023 111.496 182.227 111.442 182.311 111.334C182.407 111.226 182.455 111.052 182.455 110.812V105.412C182.455 105.184 182.377 105.022 182.221 104.926C182.077 104.818 181.807 104.764 181.411 104.764V104.26C181.651 104.26 182.011 104.176 182.491 104.008C182.983 103.828 183.355 103.66 183.607 103.504L183.931 103.432V110.704C183.931 110.896 183.937 111.034 183.949 111.118C183.973 111.202 184.045 111.286 184.165 111.37C184.285 111.454 184.471 111.496 184.723 111.496H185.047V112ZM195.599 112H192.503V111.496H192.575C192.707 111.496 192.815 111.43 192.899 111.298C192.995 111.166 193.043 111.004 193.043 110.812V106.24C193.043 105.7 192.911 105.292 192.647 105.016C192.395 104.728 192.035 104.584 191.567 104.584C190.895 104.584 190.301 104.944 189.785 105.664C189.269 106.384 189.011 106.924 189.011 107.284V110.704C189.011 110.896 189.017 111.034 189.029 111.118C189.053 111.202 189.125 111.286 189.245 111.37C189.365 111.454 189.551 111.496 189.803 111.496H190.127V112H186.491V111.496H186.779C187.103 111.496 187.307 111.442 187.391 111.334C187.487 111.226 187.535 111.052 187.535 110.812V105.412C187.535 105.184 187.457 105.022 187.301 104.926C187.157 104.818 186.887 104.764 186.491 104.764V104.26C186.731 104.26 187.091 104.176 187.571 104.008C188.063 103.828 188.435 103.66 188.687 103.504L189.011 103.432V105.736C189.287 104.98 189.713 104.398 190.289 103.99C190.865 103.57 191.567 103.36 192.395 103.36C192.827 103.36 193.193 103.456 193.493 103.648C193.793 103.84 194.009 104.086 194.141 104.386C194.369 104.902 194.483 105.412 194.483 105.916V110.776C194.483 110.944 194.495 111.07 194.519 111.154C194.579 111.382 194.831 111.496 195.275 111.496H195.599V112ZM206.146 112H203.05V111.496H203.122C203.254 111.496 203.362 111.43 203.446 111.298C203.542 111.166 203.59 111.004 203.59 110.812V106.24C203.59 105.7 203.458 105.292 203.194 105.016C202.942 104.728 202.582 104.584 202.114 104.584C201.442 104.584 200.848 104.944 200.332 105.664C199.816 106.384 199.558 106.924 199.558 107.284V110.704C199.558 110.896 199.564 111.034 199.576 111.118C199.6 111.202 199.672 111.286 199.792 111.37C199.912 111.454 200.098 111.496 200.35 111.496H200.674V112H197.038V111.496H197.326C197.65 111.496 197.854 111.442 197.938 111.334C198.034 111.226 198.082 111.052 198.082 110.812V105.412C198.082 105.184 198.004 105.022 197.848 104.926C197.704 104.818 197.434 104.764 197.038 104.764V104.26C197.278 104.26 197.638 104.176 198.118 104.008C198.61 103.828 198.982 103.66 199.234 103.504L199.558 103.432V105.736C199.834 104.98 200.26 104.398 200.836 103.99C201.412 103.57 202.114 103.36 202.942 103.36C203.374 103.36 203.74 103.456 204.04 103.648C204.34 103.84 204.556 104.086 204.688 104.386C204.916 104.902 205.03 105.412 205.03 105.916V110.776C205.03 110.944 205.042 111.07 205.066 111.154C205.126 111.382 205.378 111.496 205.822 111.496H206.146V112ZM209.241 99.472C209.517 99.472 209.727 99.562 209.871 99.742C210.027 99.922 210.105 100.156 210.105 100.444C210.105 100.72 209.991 100.954 209.763 101.146C209.535 101.326 209.283 101.416 209.007 101.416C208.743 101.416 208.533 101.326 208.377 101.146C208.233 100.966 208.161 100.744 208.161 100.48C208.161 100.204 208.275 99.97 208.503 99.778C208.731 99.574 208.977 99.472 209.241 99.472ZM211.221 112H207.585V111.496H207.873C208.197 111.496 208.401 111.442 208.485 111.334C208.581 111.226 208.629 111.052 208.629 110.812V105.412C208.629 105.184 208.551 105.022 208.395 104.926C208.251 104.818 207.981 104.764 207.585 104.764V104.26C207.825 104.26 208.185 104.176 208.665 104.008C209.157 103.828 209.529 103.66 209.781 103.504L210.105 103.432V110.704C210.105 110.896 210.111 111.034 210.123 111.118C210.147 111.202 210.219 111.286 210.339 111.37C210.459 111.454 210.645 111.496 210.897 111.496H211.221V112ZM221.773 112H218.677V111.496H218.749C218.881 111.496 218.989 111.43 219.073 111.298C219.169 111.166 219.217 111.004 219.217 110.812V106.24C219.217 105.7 219.085 105.292 218.821 105.016C218.569 104.728 218.209 104.584 217.741 104.584C217.069 104.584 216.475 104.944 215.959 105.664C215.443 106.384 215.185 106.924 215.185 107.284V110.704C215.185 110.896 215.191 111.034 215.203 111.118C215.227 111.202 215.299 111.286 215.419 111.37C215.539 111.454 215.725 111.496 215.977 111.496H216.301V112H212.665V111.496H212.953C213.277 111.496 213.481 111.442 213.565 111.334C213.661 111.226 213.709 111.052 213.709 110.812V105.412C213.709 105.184 213.631 105.022 213.475 104.926C213.331 104.818 213.061 104.764 212.665 104.764V104.26C212.905 104.26 213.265 104.176 213.745 104.008C214.237 103.828 214.609 103.66 214.861 103.504L215.185 103.432V105.736C215.461 104.98 215.887 104.398 216.463 103.99C217.039 103.57 217.741 103.36 218.569 103.36C219.001 103.36 219.367 103.456 219.667 103.648C219.967 103.84 220.183 104.086 220.315 104.386C220.543 104.902 220.657 105.412 220.657 105.916V110.776C220.657 110.944 220.669 111.07 220.693 111.154C220.753 111.382 221.005 111.496 221.449 111.496H221.773V112ZM225.644 111.064L227.444 110.992C228.812 110.992 229.76 111.142 230.288 111.442C230.816 111.73 231.08 112.198 231.08 112.846C231.08 113.494 230.894 114.058 230.522 114.538C230.15 115.018 229.664 115.396 229.064 115.672C227.876 116.2 226.604 116.464 225.248 116.464C224.456 116.464 223.814 116.272 223.322 115.888C222.83 115.516 222.584 115.048 222.584 114.484C222.584 113.164 223.148 112.312 224.276 111.928C224 111.928 223.772 111.868 223.592 111.748C223.424 111.628 223.34 111.496 223.34 111.352C223.34 111.196 223.364 111.046 223.412 110.902C223.46 110.758 223.538 110.614 223.646 110.47C223.754 110.314 223.844 110.194 223.916 110.11C224 110.014 224.132 109.876 224.312 109.696L224.672 109.336C224.024 108.76 223.7 107.98 223.7 106.996C223.7 106 224.072 105.142 224.816 104.422C225.56 103.69 226.376 103.324 227.264 103.324C227.816 103.324 228.308 103.48 228.74 103.792C229.244 103.216 230.084 102.928 231.26 102.928L231.08 104.476C231.008 104.368 230.882 104.266 230.702 104.17C230.522 104.062 230.384 104.008 230.288 104.008C229.964 104.008 229.628 104.116 229.28 104.332C229.736 104.86 229.964 105.496 229.964 106.24C229.964 107.176 229.604 108.01 228.884 108.742C228.164 109.474 227.348 109.84 226.436 109.84C225.968 109.84 225.584 109.756 225.284 109.588C224.78 110.188 224.528 110.56 224.528 110.704C224.528 110.944 224.9 111.064 225.644 111.064ZM226.544 111.964H225.284C224.912 112.192 224.666 112.366 224.546 112.486C224.426 112.606 224.324 112.72 224.24 112.828C224.156 112.936 224.084 113.044 224.024 113.152C223.904 113.404 223.844 113.686 223.844 113.998C223.844 114.31 223.988 114.58 224.276 114.808C224.768 115.168 225.452 115.348 226.328 115.348C227.216 115.348 228.038 115.198 228.794 114.898C229.55 114.598 229.928 114.184 229.928 113.656C229.928 113.128 229.622 112.714 229.01 112.414C228.398 112.114 227.576 111.964 226.544 111.964ZM224.852 106.366C224.852 107.002 225.074 107.566 225.518 108.058C225.974 108.55 226.484 108.796 227.048 108.796C227.612 108.796 228.044 108.622 228.344 108.274C228.656 107.914 228.812 107.44 228.812 106.852C228.812 106.252 228.59 105.688 228.146 105.16C227.714 104.632 227.204 104.368 226.616 104.368C226.028 104.368 225.584 104.542 225.284 104.89C224.996 105.226 224.852 105.718 224.852 106.366ZM240.083 116.212H236.447V115.672H236.663C236.927 115.672 237.119 115.63 237.239 115.546C237.371 115.462 237.443 115.378 237.455 115.294C237.479 115.21 237.491 115.072 237.491 114.88V105.556C237.491 105.004 237.143 104.728 236.447 104.728V104.26C236.675 104.26 237.035 104.17 237.527 103.99C238.019 103.798 238.379 103.624 238.607 103.468L238.931 103.432V105.7C239.183 105.016 239.591 104.458 240.155 104.026C240.719 103.582 241.415 103.36 242.243 103.36C243.071 103.36 243.725 103.63 244.205 104.17C244.697 104.71 244.943 105.436 244.943 106.348C244.943 108.04 244.499 109.45 243.611 110.578C242.723 111.694 241.643 112.252 240.371 112.252C239.927 112.252 239.447 112.132 238.931 111.892V114.952C238.931 115.12 238.943 115.246 238.967 115.33C239.027 115.558 239.279 115.672 239.723 115.672H240.083V116.212ZM238.931 107.176V110.38C238.979 110.452 239.051 110.548 239.147 110.668C239.243 110.788 239.441 110.944 239.741 111.136C240.053 111.328 240.371 111.424 240.695 111.424C241.571 111.424 242.297 111.01 242.873 110.182C243.461 109.354 243.755 108.304 243.755 107.032C243.755 106.324 243.533 105.742 243.089 105.286C242.657 104.818 242.111 104.584 241.451 104.584C240.803 104.584 240.221 104.95 239.705 105.682C239.189 106.402 238.931 106.9 238.931 107.176ZM250.215 112H246.327V111.496H246.615C246.939 111.496 247.143 111.442 247.227 111.334C247.323 111.226 247.371 111.052 247.371 110.812V105.412C247.371 105.184 247.293 105.022 247.137 104.926C246.993 104.818 246.723 104.764 246.327 104.764V104.26C246.567 104.26 246.927 104.176 247.407 104.008C247.899 103.828 248.271 103.66 248.523 103.504L248.847 103.432V105.664C249.279 104.716 249.771 104.092 250.323 103.792C250.875 103.48 251.691 103.324 252.771 103.324L252.663 105.412H252.123C252.123 105.244 252.057 105.082 251.925 104.926C251.805 104.77 251.607 104.692 251.331 104.692C250.731 104.692 250.167 105.016 249.639 105.664C249.111 106.312 248.847 106.936 248.847 107.536V110.704C248.847 110.896 248.853 111.034 248.865 111.118C248.889 111.202 248.961 111.286 249.081 111.37C249.201 111.454 249.387 111.496 249.639 111.496H250.215V112ZM257.025 112.252C255.969 112.252 255.087 111.856 254.379 111.064C253.671 110.272 253.317 109.348 253.317 108.292C253.317 106.948 253.821 105.79 254.829 104.818C255.849 103.846 256.923 103.36 258.051 103.36C259.179 103.36 260.085 103.762 260.769 104.566C261.465 105.358 261.812 106.276 261.812 107.32C261.812 108.628 261.327 109.78 260.355 110.776C259.395 111.76 258.285 112.252 257.025 112.252ZM254.577 107.32C254.577 108.436 254.913 109.366 255.585 110.11C256.269 110.842 257.031 111.208 257.871 111.208C258.723 111.208 259.389 110.89 259.869 110.254C260.349 109.618 260.589 108.964 260.589 108.292C260.589 107.272 260.271 106.384 259.635 105.628C259.011 104.86 258.249 104.476 257.349 104.476C256.449 104.476 255.759 104.782 255.279 105.394C254.811 105.994 254.577 106.636 254.577 107.32ZM271.43 112H268.838V109.912C268.586 110.596 268.178 111.16 267.614 111.604C267.05 112.036 266.348 112.252 265.508 112.252C264.68 112.252 264.026 111.982 263.546 111.442C263.066 110.902 262.826 110.176 262.826 109.264C262.826 107.572 263.264 106.168 264.14 105.052C265.028 103.924 266.114 103.36 267.398 103.36C267.686 103.36 268.166 103.48 268.838 103.72V100.12C268.838 99.892 268.76 99.73 268.604 99.634C268.448 99.526 268.178 99.472 267.794 99.472V98.968C268.046 98.968 268.418 98.902 268.91 98.77C269.402 98.638 269.75 98.5 269.954 98.356L270.278 98.284V110.776C270.278 111.004 270.32 111.172 270.404 111.28C270.5 111.376 270.722 111.424 271.07 111.424H271.43V112ZM268.838 108.436V105.232C268.79 105.16 268.718 105.064 268.622 104.944C268.526 104.824 268.322 104.668 268.01 104.476C267.71 104.284 267.398 104.188 267.074 104.188C266.198 104.188 265.466 104.602 264.878 105.43C264.302 106.258 264.014 107.308 264.014 108.58C264.014 109.288 264.224 109.876 264.644 110.344C265.076 110.8 265.622 111.028 266.282 111.028C266.954 111.028 267.548 110.668 268.064 109.948C268.58 109.216 268.838 108.712 268.838 108.436ZM281.796 112H279.204V109.876C278.928 110.632 278.502 111.22 277.926 111.64C277.35 112.048 276.648 112.252 275.82 112.252C275.388 112.252 275.022 112.156 274.722 111.964C274.422 111.772 274.206 111.526 274.074 111.226C273.846 110.71 273.732 110.2 273.732 109.696V105.412C273.732 104.86 273.384 104.584 272.688 104.584V104.08C272.928 104.08 273.288 104.014 273.768 103.882C274.26 103.75 274.62 103.612 274.848 103.468L275.172 103.432V109.372C275.172 109.912 275.298 110.326 275.55 110.614C275.814 110.89 276.18 111.028 276.648 111.028C277.32 111.028 277.914 110.668 278.43 109.948C278.946 109.228 279.204 108.688 279.204 108.328V105.412C279.204 104.86 278.856 104.584 278.16 104.584V104.08C278.424 104.08 278.796 104.014 279.276 103.882C279.768 103.75 280.128 103.612 280.356 103.468L280.68 103.432V110.776C280.68 110.944 280.692 111.07 280.716 111.154C280.776 111.382 281.028 111.496 281.472 111.496H281.796V112ZM290.082 109.804L290.406 110.128C289.638 111.544 288.258 112.252 286.266 112.252C285.342 112.252 284.55 111.844 283.89 111.028C283.242 110.212 282.918 109.3 282.918 108.292C282.918 107.644 283.074 106.996 283.386 106.348C283.71 105.688 284.04 105.166 284.376 104.782C284.724 104.386 285.192 104.05 285.78 103.774C286.38 103.498 287.01 103.36 287.67 103.36C288.33 103.36 289.014 103.492 289.722 103.756L289.614 105.412H289.074C289.074 105.1 288.876 104.842 288.48 104.638C288.096 104.434 287.664 104.332 287.184 104.332C286.704 104.332 286.272 104.41 285.888 104.566C285.504 104.71 285.21 104.89 285.006 105.106C284.814 105.322 284.658 105.58 284.538 105.88C284.346 106.324 284.25 106.816 284.25 107.356C284.25 108.292 284.544 109.156 285.132 109.948C285.72 110.74 286.434 111.136 287.274 111.136C287.874 111.136 288.426 111.016 288.93 110.776C289.446 110.524 289.83 110.2 290.082 109.804ZM296.737 110.884L296.881 111.316C295.981 111.94 294.997 112.252 293.929 112.252C293.545 112.252 293.215 112.114 292.939 111.838C292.663 111.562 292.525 111.196 292.525 110.74V104.368H291.481V103.612H291.877C292.273 103.612 292.639 103.372 292.975 102.892C293.323 102.412 293.497 101.968 293.497 101.56H293.965V103.612H296.413V104.368H294.649C294.193 104.368 293.965 104.584 293.965 105.016V110.164C293.965 110.956 294.253 111.352 294.829 111.352C295.477 111.352 296.113 111.196 296.737 110.884ZM297.743 111.496L297.923 109.552L298.427 109.588C298.427 109.996 298.691 110.386 299.219 110.758C299.747 111.13 300.317 111.316 300.929 111.316C302.189 111.316 302.819 110.932 302.819 110.164C302.819 109.78 302.657 109.438 302.333 109.138C302.009 108.838 301.619 108.592 301.163 108.4C300.707 108.196 300.251 107.992 299.795 107.788C299.339 107.572 298.949 107.296 298.625 106.96C298.301 106.612 298.139 106.216 298.139 105.772C298.139 104.212 299.291 103.432 301.595 103.432C302.111 103.432 302.675 103.576 303.287 103.864L303.179 105.664H302.747C302.747 105.328 302.549 105.004 302.153 104.692C301.769 104.38 301.349 104.224 300.893 104.224C300.437 104.224 300.047 104.314 299.723 104.494C299.411 104.674 299.255 104.944 299.255 105.304C299.255 105.652 299.417 105.94 299.741 106.168C300.065 106.396 300.455 106.582 300.911 106.726C301.367 106.87 301.823 107.032 302.279 107.212C302.735 107.392 303.125 107.686 303.449 108.094C303.773 108.502 303.935 109.012 303.935 109.624C303.935 110.236 303.737 110.746 303.341 111.154C302.633 111.886 301.607 112.252 300.263 112.252C299.219 112.252 298.379 112 297.743 111.496ZM316.134 99.472C316.41 99.472 316.62 99.562 316.764 99.742C316.92 99.922 316.998 100.156 316.998 100.444C316.998 100.72 316.884 100.954 316.656 101.146C316.428 101.326 316.176 101.416 315.9 101.416C315.636 101.416 315.426 101.326 315.27 101.146C315.126 100.966 315.054 100.744 315.054 100.48C315.054 100.204 315.168 99.97 315.396 99.778C315.624 99.574 315.87 99.472 316.134 99.472ZM318.114 112H314.478V111.496H314.766C315.09 111.496 315.294 111.442 315.378 111.334C315.474 111.226 315.522 111.052 315.522 110.812V105.412C315.522 105.184 315.444 105.022 315.288 104.926C315.144 104.818 314.874 104.764 314.478 104.764V104.26C314.718 104.26 315.078 104.176 315.558 104.008C316.05 103.828 316.422 103.66 316.674 103.504L316.998 103.432V110.704C316.998 110.896 317.004 111.034 317.016 111.118C317.04 111.202 317.112 111.286 317.232 111.37C317.352 111.454 317.538 111.496 317.79 111.496H318.114V112ZM328.666 112H325.57V111.496H325.642C325.774 111.496 325.882 111.43 325.966 111.298C326.062 111.166 326.11 111.004 326.11 110.812V106.24C326.11 105.7 325.978 105.292 325.714 105.016C325.462 104.728 325.102 104.584 324.634 104.584C323.962 104.584 323.368 104.944 322.852 105.664C322.336 106.384 322.078 106.924 322.078 107.284V110.704C322.078 110.896 322.084 111.034 322.096 111.118C322.12 111.202 322.192 111.286 322.312 111.37C322.432 111.454 322.618 111.496 322.87 111.496H323.194V112H319.558V111.496H319.846C320.17 111.496 320.374 111.442 320.458 111.334C320.554 111.226 320.602 111.052 320.602 110.812V105.412C320.602 105.184 320.524 105.022 320.368 104.926C320.224 104.818 319.954 104.764 319.558 104.764V104.26C319.798 104.26 320.158 104.176 320.638 104.008C321.13 103.828 321.502 103.66 321.754 103.504L322.078 103.432V105.736C322.354 104.98 322.78 104.398 323.356 103.99C323.932 103.57 324.634 103.36 325.462 103.36C325.894 103.36 326.26 103.456 326.56 103.648C326.86 103.84 327.076 104.086 327.208 104.386C327.436 104.902 327.55 105.412 327.55 105.916V110.776C327.55 110.944 327.562 111.07 327.586 111.154C327.646 111.382 327.898 111.496 328.342 111.496H328.666V112ZM92.9942 134.252C91.9382 134.252 91.0562 133.856 90.3482 133.064C89.6402 132.272 89.2862 131.348 89.2862 130.292C89.2862 128.948 89.7902 127.79 90.7982 126.818C91.8182 125.846 92.8922 125.36 94.0202 125.36C95.1482 125.36 96.0542 125.762 96.7382 126.566C97.4342 127.358 97.7822 128.276 97.7822 129.32C97.7822 130.628 97.2962 131.78 96.3242 132.776C95.3642 133.76 94.2542 134.252 92.9942 134.252ZM90.5462 129.32C90.5462 130.436 90.8822 131.366 91.5542 132.11C92.2382 132.842 93.0002 133.208 93.8402 133.208C94.6922 133.208 95.3582 132.89 95.8382 132.254C96.3182 131.618 96.5582 130.964 96.5582 130.292C96.5582 129.272 96.2402 128.384 95.6042 127.628C94.9802 126.86 94.2182 126.476 93.3182 126.476C92.4182 126.476 91.7282 126.782 91.2482 127.394C90.7802 127.994 90.5462 128.636 90.5462 129.32ZM107.94 134H105.348V131.876C105.072 132.632 104.646 133.22 104.07 133.64C103.494 134.048 102.792 134.252 101.964 134.252C101.532 134.252 101.166 134.156 100.866 133.964C100.566 133.772 100.35 133.526 100.218 133.226C99.99 132.71 99.876 132.2 99.876 131.696V127.412C99.876 126.86 99.528 126.584 98.832 126.584V126.08C99.072 126.08 99.432 126.014 99.912 125.882C100.404 125.75 100.764 125.612 100.992 125.468L101.316 125.432V131.372C101.316 131.912 101.442 132.326 101.694 132.614C101.958 132.89 102.324 133.028 102.792 133.028C103.464 133.028 104.058 132.668 104.574 131.948C105.09 131.228 105.348 130.688 105.348 130.328V127.412C105.348 126.86 105 126.584 104.304 126.584V126.08C104.568 126.08 104.94 126.014 105.42 125.882C105.912 125.75 106.272 125.612 106.5 125.468L106.824 125.432V132.776C106.824 132.944 106.836 133.07 106.86 133.154C106.92 133.382 107.172 133.496 107.616 133.496H107.94V134ZM113.238 134H109.35V133.496H109.638C109.962 133.496 110.166 133.442 110.25 133.334C110.346 133.226 110.394 133.052 110.394 132.812V127.412C110.394 127.184 110.316 127.022 110.16 126.926C110.016 126.818 109.746 126.764 109.35 126.764V126.26C109.59 126.26 109.95 126.176 110.43 126.008C110.922 125.828 111.294 125.66 111.546 125.504L111.87 125.432V127.664C112.302 126.716 112.794 126.092 113.346 125.792C113.898 125.48 114.714 125.324 115.794 125.324L115.686 127.412H115.146C115.146 127.244 115.08 127.082 114.948 126.926C114.828 126.77 114.63 126.692 114.354 126.692C113.754 126.692 113.19 127.016 112.662 127.664C112.134 128.312 111.87 128.936 111.87 129.536V132.704C111.87 132.896 111.876 133.034 111.888 133.118C111.912 133.202 111.984 133.286 112.104 133.37C112.224 133.454 112.41 133.496 112.662 133.496H113.238V134ZM129.48 134H125.592V133.496H125.88C126.204 133.496 126.408 133.442 126.492 133.334C126.588 133.226 126.636 133.052 126.636 132.812V127.412C126.636 127.184 126.558 127.022 126.402 126.926C126.258 126.818 125.988 126.764 125.592 126.764V126.26C125.832 126.26 126.192 126.176 126.672 126.008C127.164 125.828 127.536 125.66 127.788 125.504L128.112 125.432V127.664C128.544 126.716 129.036 126.092 129.588 125.792C130.14 125.48 130.956 125.324 132.036 125.324L131.928 127.412H131.388C131.388 127.244 131.322 127.082 131.19 126.926C131.07 126.77 130.872 126.692 130.596 126.692C129.996 126.692 129.432 127.016 128.904 127.664C128.376 128.312 128.112 128.936 128.112 129.536V132.704C128.112 132.896 128.118 133.034 128.13 133.118C128.154 133.202 128.226 133.286 128.346 133.37C128.466 133.454 128.652 133.496 128.904 133.496H129.48V134ZM139.745 131.804L140.069 132.128C139.301 133.544 137.921 134.252 135.929 134.252C135.005 134.252 134.213 133.844 133.553 133.028C132.905 132.212 132.581 131.3 132.581 130.292C132.581 128.936 133.019 127.778 133.895 126.818C134.783 125.846 135.857 125.36 137.117 125.36C137.717 125.36 138.245 125.534 138.701 125.882C139.517 126.518 139.925 127.34 139.925 128.348C139.925 128.492 139.895 128.666 139.835 128.87C139.787 129.074 139.745 129.176 139.709 129.176L133.913 129.356C133.913 130.292 134.207 131.156 134.795 131.948C135.383 132.74 136.097 133.136 136.937 133.136C137.537 133.136 138.089 133.016 138.593 132.776C139.109 132.524 139.493 132.2 139.745 131.804ZM134.093 128.636L138.305 128.456C138.329 128.456 138.341 128.348 138.341 128.132C138.341 127.508 138.155 127.064 137.783 126.8C137.423 126.536 136.919 126.404 136.271 126.404C135.635 126.404 135.113 126.602 134.705 126.998C134.297 127.394 134.093 127.94 134.093 128.636ZM145.045 134H141.445V133.496H141.697C141.961 133.496 142.153 133.442 142.273 133.334C142.393 133.214 142.453 133.016 142.453 132.74V122.12C142.453 121.892 142.375 121.73 142.219 121.634C142.063 121.526 141.793 121.472 141.409 121.472V120.968C141.649 120.968 142.015 120.902 142.507 120.77C143.011 120.638 143.377 120.5 143.605 120.356L143.929 120.284V132.704C143.929 132.896 143.935 133.034 143.947 133.118C143.971 133.202 144.043 133.286 144.163 133.37C144.283 133.454 144.469 133.496 144.721 133.496H145.045V134ZM154.339 134H151.747V132.56C151.147 133.208 150.649 133.652 150.253 133.892C149.857 134.132 149.317 134.252 148.633 134.252C147.961 134.252 147.433 134.096 147.049 133.784C146.677 133.46 146.491 133.01 146.491 132.434C146.491 131.858 146.737 131.3 147.229 130.76C147.733 130.208 148.315 129.794 148.975 129.518C149.647 129.23 150.235 129.014 150.739 128.87C151.243 128.714 151.579 128.636 151.747 128.636V128.24C151.747 127.112 151.279 126.548 150.343 126.548C149.695 126.548 149.089 126.686 148.525 126.962C147.973 127.238 147.559 127.592 147.283 128.024L146.923 127.7C147.727 126.14 149.119 125.36 151.099 125.36C151.603 125.36 152.017 125.498 152.341 125.774C152.677 126.038 152.899 126.35 153.007 126.71C153.127 127.07 153.187 127.472 153.187 127.916V132.776C153.187 132.932 153.199 133.052 153.223 133.136C153.247 133.22 153.319 133.304 153.439 133.388C153.571 133.46 153.763 133.496 154.015 133.496H154.339V134ZM151.747 131.552V129.356C150.811 129.536 149.941 129.896 149.137 130.436C148.333 130.976 147.931 131.564 147.931 132.2C147.931 132.452 148.051 132.674 148.291 132.866C148.543 133.046 148.849 133.136 149.209 133.136C149.581 133.136 150.019 132.974 150.523 132.65C151.027 132.314 151.435 131.948 151.747 131.552ZM164.306 134H160.778V133.496H160.958C161.102 133.496 161.174 133.46 161.174 133.388C161.174 133.316 161.09 133.148 160.922 132.884L159.446 130.328L158.042 132.812C157.874 133.076 157.79 133.256 157.79 133.352C157.79 133.448 157.934 133.496 158.222 133.496H158.51V134H155.126V133.496H155.63C156.266 133.496 156.794 133.172 157.214 132.524L159.014 129.608L157.286 126.8C156.998 126.344 156.542 126.116 155.918 126.116H155.666V125.612H159.158V126.116H158.978C158.834 126.116 158.762 126.158 158.762 126.242C158.762 126.314 158.81 126.428 158.906 126.584L159.95 128.348L160.994 126.584C161.018 126.536 161.042 126.488 161.066 126.44C161.09 126.38 161.108 126.338 161.12 126.314C161.132 126.29 161.138 126.272 161.138 126.26C161.138 126.164 161.018 126.116 160.778 126.116H160.598V125.612H163.766V126.116H163.298C162.662 126.116 162.242 126.272 162.038 126.584L160.382 129.068L162.47 132.632C162.674 132.98 162.872 133.214 163.064 133.334C163.268 133.442 163.526 133.496 163.838 133.496H164.306V134ZM172.282 131.804L172.606 132.128C171.838 133.544 170.458 134.252 168.466 134.252C167.542 134.252 166.75 133.844 166.09 133.028C165.442 132.212 165.118 131.3 165.118 130.292C165.118 128.936 165.556 127.778 166.432 126.818C167.32 125.846 168.394 125.36 169.654 125.36C170.254 125.36 170.782 125.534 171.238 125.882C172.054 126.518 172.462 127.34 172.462 128.348C172.462 128.492 172.432 128.666 172.372 128.87C172.324 129.074 172.282 129.176 172.246 129.176L166.45 129.356C166.45 130.292 166.744 131.156 167.332 131.948C167.92 132.74 168.634 133.136 169.474 133.136C170.074 133.136 170.626 133.016 171.13 132.776C171.646 132.524 172.03 132.2 172.282 131.804ZM166.63 128.636L170.842 128.456C170.866 128.456 170.878 128.348 170.878 128.132C170.878 127.508 170.692 127.064 170.32 126.8C169.96 126.536 169.456 126.404 168.808 126.404C168.172 126.404 167.65 126.602 167.242 126.998C166.834 127.394 166.63 127.94 166.63 128.636ZM182.406 134H179.814V131.912C179.562 132.596 179.154 133.16 178.59 133.604C178.026 134.036 177.324 134.252 176.484 134.252C175.656 134.252 175.002 133.982 174.522 133.442C174.042 132.902 173.802 132.176 173.802 131.264C173.802 129.572 174.24 128.168 175.116 127.052C176.004 125.924 177.09 125.36 178.374 125.36C178.662 125.36 179.142 125.48 179.814 125.72V122.12C179.814 121.892 179.736 121.73 179.58 121.634C179.424 121.526 179.154 121.472 178.77 121.472V120.968C179.022 120.968 179.394 120.902 179.886 120.77C180.378 120.638 180.726 120.5 180.93 120.356L181.254 120.284V132.776C181.254 133.004 181.296 133.172 181.38 133.28C181.476 133.376 181.698 133.424 182.046 133.424H182.406V134ZM179.814 130.436V127.232C179.766 127.16 179.694 127.064 179.598 126.944C179.502 126.824 179.298 126.668 178.986 126.476C178.686 126.284 178.374 126.188 178.05 126.188C177.174 126.188 176.442 126.602 175.854 127.43C175.278 128.258 174.99 129.308 174.99 130.58C174.99 131.288 175.2 131.876 175.62 132.344C176.052 132.8 176.598 133.028 177.258 133.028C177.93 133.028 178.524 132.668 179.04 131.948C179.556 131.216 179.814 130.712 179.814 130.436ZM196.192 134H193.6V132.56C193 133.208 192.502 133.652 192.106 133.892C191.71 134.132 191.17 134.252 190.486 134.252C189.814 134.252 189.286 134.096 188.902 133.784C188.53 133.46 188.344 133.01 188.344 132.434C188.344 131.858 188.59 131.3 189.082 130.76C189.586 130.208 190.168 129.794 190.828 129.518C191.5 129.23 192.088 129.014 192.592 128.87C193.096 128.714 193.432 128.636 193.6 128.636V128.24C193.6 127.112 193.132 126.548 192.196 126.548C191.548 126.548 190.942 126.686 190.378 126.962C189.826 127.238 189.412 127.592 189.136 128.024L188.776 127.7C189.58 126.14 190.972 125.36 192.952 125.36C193.456 125.36 193.87 125.498 194.194 125.774C194.53 126.038 194.752 126.35 194.86 126.71C194.98 127.07 195.04 127.472 195.04 127.916V132.776C195.04 132.932 195.052 133.052 195.076 133.136C195.1 133.22 195.172 133.304 195.292 133.388C195.424 133.46 195.616 133.496 195.868 133.496H196.192V134ZM193.6 131.552V129.356C192.664 129.536 191.794 129.896 190.99 130.436C190.186 130.976 189.784 131.564 189.784 132.2C189.784 132.452 189.904 132.674 190.144 132.866C190.396 133.046 190.702 133.136 191.062 133.136C191.434 133.136 191.872 132.974 192.376 132.65C192.88 132.314 193.288 131.948 193.6 131.552ZM206.7 134H203.604V133.496H203.676C203.808 133.496 203.916 133.43 204 133.298C204.096 133.166 204.144 133.004 204.144 132.812V128.24C204.144 127.7 204.012 127.292 203.748 127.016C203.496 126.728 203.136 126.584 202.668 126.584C201.996 126.584 201.402 126.944 200.886 127.664C200.37 128.384 200.112 128.924 200.112 129.284V132.704C200.112 132.896 200.118 133.034 200.13 133.118C200.154 133.202 200.226 133.286 200.346 133.37C200.466 133.454 200.652 133.496 200.904 133.496H201.228V134H197.592V133.496H197.88C198.204 133.496 198.408 133.442 198.492 133.334C198.588 133.226 198.636 133.052 198.636 132.812V127.412C198.636 127.184 198.558 127.022 198.402 126.926C198.258 126.818 197.988 126.764 197.592 126.764V126.26C197.832 126.26 198.192 126.176 198.672 126.008C199.164 125.828 199.536 125.66 199.788 125.504L200.112 125.432V127.736C200.388 126.98 200.814 126.398 201.39 125.99C201.966 125.57 202.668 125.36 203.496 125.36C203.928 125.36 204.294 125.456 204.594 125.648C204.894 125.84 205.11 126.086 205.242 126.386C205.47 126.902 205.584 127.412 205.584 127.916V132.776C205.584 132.944 205.596 133.07 205.62 133.154C205.68 133.382 205.932 133.496 206.376 133.496H206.7V134ZM216.455 134H213.863V131.912C213.611 132.596 213.203 133.16 212.639 133.604C212.075 134.036 211.373 134.252 210.533 134.252C209.705 134.252 209.051 133.982 208.571 133.442C208.091 132.902 207.851 132.176 207.851 131.264C207.851 129.572 208.289 128.168 209.165 127.052C210.053 125.924 211.139 125.36 212.423 125.36C212.711 125.36 213.191 125.48 213.863 125.72V122.12C213.863 121.892 213.785 121.73 213.629 121.634C213.473 121.526 213.203 121.472 212.819 121.472V120.968C213.071 120.968 213.443 120.902 213.935 120.77C214.427 120.638 214.775 120.5 214.979 120.356L215.303 120.284V132.776C215.303 133.004 215.345 133.172 215.429 133.28C215.525 133.376 215.747 133.424 216.095 133.424H216.455V134ZM213.863 130.436V127.232C213.815 127.16 213.743 127.064 213.647 126.944C213.551 126.824 213.347 126.668 213.035 126.476C212.735 126.284 212.423 126.188 212.099 126.188C211.223 126.188 210.491 126.602 209.903 127.43C209.327 128.258 209.039 129.308 209.039 130.58C209.039 131.288 209.249 131.876 209.669 132.344C210.101 132.8 210.647 133.028 211.307 133.028C211.979 133.028 212.573 132.668 213.089 131.948C213.605 131.216 213.863 130.712 213.863 130.436ZM229.341 131.804L229.665 132.128C228.897 133.544 227.517 134.252 225.525 134.252C224.601 134.252 223.809 133.844 223.149 133.028C222.501 132.212 222.177 131.3 222.177 130.292C222.177 129.644 222.333 128.996 222.645 128.348C222.969 127.688 223.299 127.166 223.635 126.782C223.983 126.386 224.451 126.05 225.039 125.774C225.639 125.498 226.269 125.36 226.929 125.36C227.589 125.36 228.273 125.492 228.981 125.756L228.873 127.412H228.333C228.333 127.1 228.135 126.842 227.739 126.638C227.355 126.434 226.923 126.332 226.443 126.332C225.963 126.332 225.531 126.41 225.147 126.566C224.763 126.71 224.469 126.89 224.265 127.106C224.073 127.322 223.917 127.58 223.797 127.88C223.605 128.324 223.509 128.816 223.509 129.356C223.509 130.292 223.803 131.156 224.391 131.948C224.979 132.74 225.693 133.136 226.533 133.136C227.133 133.136 227.685 133.016 228.189 132.776C228.705 132.524 229.089 132.2 229.341 131.804ZM234.34 134.252C233.284 134.252 232.402 133.856 231.694 133.064C230.986 132.272 230.632 131.348 230.632 130.292C230.632 128.948 231.136 127.79 232.144 126.818C233.164 125.846 234.238 125.36 235.366 125.36C236.494 125.36 237.4 125.762 238.084 126.566C238.78 127.358 239.128 128.276 239.128 129.32C239.128 130.628 238.642 131.78 237.67 132.776C236.71 133.76 235.6 134.252 234.34 134.252ZM231.892 129.32C231.892 130.436 232.228 131.366 232.9 132.11C233.584 132.842 234.346 133.208 235.186 133.208C236.038 133.208 236.704 132.89 237.184 132.254C237.664 131.618 237.904 130.964 237.904 130.292C237.904 129.272 237.586 128.384 236.95 127.628C236.326 126.86 235.564 126.476 234.664 126.476C233.764 126.476 233.074 126.782 232.594 127.394C232.126 127.994 231.892 128.636 231.892 129.32ZM254.686 134H251.554V133.496H251.626C251.758 133.496 251.866 133.43 251.95 133.298C252.046 133.166 252.094 133.004 252.094 132.812V128.24C252.094 127.76 251.974 127.364 251.734 127.052C251.506 126.74 251.206 126.584 250.834 126.584C250.474 126.584 250.138 126.668 249.826 126.836C249.526 127.004 249.28 127.208 249.088 127.448C248.908 127.688 248.746 127.94 248.602 128.204C248.362 128.672 248.242 129.02 248.242 129.248V132.776C248.242 133.256 248.506 133.496 249.034 133.496H249.358V134H246.226V133.496H246.334C246.442 133.496 246.538 133.43 246.622 133.298C246.718 133.166 246.766 133.004 246.766 132.812V128.24C246.766 127.76 246.652 127.364 246.424 127.052C246.196 126.74 245.884 126.584 245.488 126.584C245.104 126.584 244.738 126.71 244.39 126.962C244.042 127.214 243.766 127.508 243.562 127.844C243.154 128.528 242.95 129.008 242.95 129.284V132.704C242.95 132.896 242.956 133.034 242.968 133.118C242.992 133.202 243.064 133.286 243.184 133.37C243.304 133.454 243.49 133.496 243.742 133.496H244.066V134H240.43V133.496H240.718C241.042 133.496 241.246 133.442 241.33 133.334C241.426 133.226 241.474 133.052 241.474 132.812V127.412C241.474 127.184 241.396 127.022 241.24 126.926C241.096 126.818 240.826 126.764 240.43 126.764V126.26C240.67 126.26 241.03 126.176 241.51 126.008C242.002 125.828 242.374 125.66 242.626 125.504L242.95 125.432V127.736C243.298 126.92 243.712 126.32 244.192 125.936C244.684 125.552 245.35 125.36 246.19 125.36C246.574 125.36 246.91 125.444 247.198 125.612C247.486 125.768 247.702 125.978 247.846 126.242C248.086 126.71 248.218 127.208 248.242 127.736C248.518 126.932 248.908 126.338 249.412 125.954C249.916 125.558 250.594 125.36 251.446 125.36C251.878 125.36 252.244 125.456 252.544 125.648C252.844 125.84 253.06 126.086 253.192 126.386C253.42 126.902 253.534 127.412 253.534 127.916V132.776C253.534 132.944 253.546 133.07 253.57 133.154C253.63 133.382 253.882 133.496 254.326 133.496H254.686V134ZM260.916 120.104C261.372 120.104 261.888 120.248 262.464 120.536L262.32 122.156L261.816 122.12C261.816 121.88 261.696 121.604 261.456 121.292C261.216 120.98 260.904 120.824 260.52 120.824C259.872 120.824 259.386 121.142 259.062 121.778C258.738 122.414 258.576 123.44 258.576 124.856C258.576 125.336 258.816 125.576 259.296 125.576H261.06V126.332H258.612V132.668C258.612 132.86 258.618 133.004 258.63 133.1C258.654 133.184 258.726 133.274 258.846 133.37C258.966 133.454 259.152 133.496 259.404 133.496H259.98V134H256.092V133.496H256.308C256.572 133.496 256.764 133.454 256.884 133.37C257.016 133.274 257.088 133.184 257.1 133.1C257.124 133.004 257.136 132.86 257.136 132.668V126.98C257.136 126.752 257.094 126.59 257.01 126.494C256.926 126.386 256.752 126.332 256.488 126.332H256.092V125.576H257.136V124.784C257.136 121.664 258.396 120.104 260.916 120.104ZM265.559 134.252C264.503 134.252 263.621 133.856 262.913 133.064C262.205 132.272 261.851 131.348 261.851 130.292C261.851 128.948 262.355 127.79 263.363 126.818C264.383 125.846 265.457 125.36 266.585 125.36C267.713 125.36 268.619 125.762 269.303 126.566C269.999 127.358 270.347 128.276 270.347 129.32C270.347 130.628 269.861 131.78 268.889 132.776C267.929 133.76 266.819 134.252 265.559 134.252ZM263.111 129.32C263.111 130.436 263.447 131.366 264.119 132.11C264.803 132.842 265.565 133.208 266.405 133.208C267.257 133.208 267.923 132.89 268.403 132.254C268.883 131.618 269.123 130.964 269.123 130.292C269.123 129.272 268.805 128.384 268.169 127.628C267.545 126.86 266.783 126.476 265.883 126.476C264.983 126.476 264.293 126.782 263.813 127.394C263.345 127.994 263.111 128.636 263.111 129.32ZM275.536 134H271.648V133.496H271.936C272.26 133.496 272.464 133.442 272.548 133.334C272.644 133.226 272.692 133.052 272.692 132.812V127.412C272.692 127.184 272.614 127.022 272.458 126.926C272.314 126.818 272.044 126.764 271.648 126.764V126.26C271.888 126.26 272.248 126.176 272.728 126.008C273.22 125.828 273.592 125.66 273.844 125.504L274.168 125.432V127.664C274.6 126.716 275.092 126.092 275.644 125.792C276.196 125.48 277.012 125.324 278.092 125.324L277.984 127.412H277.444C277.444 127.244 277.378 127.082 277.246 126.926C277.126 126.77 276.928 126.692 276.652 126.692C276.052 126.692 275.488 127.016 274.96 127.664C274.432 128.312 274.168 128.936 274.168 129.536V132.704C274.168 132.896 274.174 133.034 274.186 133.118C274.21 133.202 274.282 133.286 274.402 133.37C274.522 133.454 274.708 133.496 274.96 133.496H275.536V134ZM283.967 132.884L284.111 133.316C283.211 133.94 282.227 134.252 281.159 134.252C280.775 134.252 280.445 134.114 280.169 133.838C279.893 133.562 279.755 133.196 279.755 132.74V126.368H278.711V125.612H279.107C279.503 125.612 279.869 125.372 280.205 124.892C280.553 124.412 280.727 123.968 280.727 123.56H281.195V125.612H283.643V126.368H281.879C281.423 126.368 281.195 126.584 281.195 127.016V132.164C281.195 132.956 281.483 133.352 282.059 133.352C282.707 133.352 283.343 133.196 283.967 132.884ZM292.837 134H290.245V132.56C289.645 133.208 289.147 133.652 288.751 133.892C288.355 134.132 287.815 134.252 287.131 134.252C286.459 134.252 285.931 134.096 285.547 133.784C285.175 133.46 284.989 133.01 284.989 132.434C284.989 131.858 285.235 131.3 285.727 130.76C286.231 130.208 286.813 129.794 287.473 129.518C288.145 129.23 288.733 129.014 289.237 128.87C289.741 128.714 290.077 128.636 290.245 128.636V128.24C290.245 127.112 289.777 126.548 288.841 126.548C288.193 126.548 287.587 126.686 287.023 126.962C286.471 127.238 286.057 127.592 285.781 128.024L285.421 127.7C286.225 126.14 287.617 125.36 289.597 125.36C290.101 125.36 290.515 125.498 290.839 125.774C291.175 126.038 291.397 126.35 291.505 126.71C291.625 127.07 291.685 127.472 291.685 127.916V132.776C291.685 132.932 291.697 133.052 291.721 133.136C291.745 133.22 291.817 133.304 291.937 133.388C292.069 133.46 292.261 133.496 292.513 133.496H292.837V134ZM290.245 131.552V129.356C289.309 129.536 288.439 129.896 287.635 130.436C286.831 130.976 286.429 131.564 286.429 132.2C286.429 132.452 286.549 132.674 286.789 132.866C287.041 133.046 287.347 133.136 287.707 133.136C288.079 133.136 288.517 132.974 289.021 132.65C289.525 132.314 289.933 131.948 290.245 131.552ZM295.028 133.136V122.12C295.028 121.892 294.95 121.73 294.794 121.634C294.65 121.526 294.38 121.472 293.984 121.472V120.968C294.248 120.968 294.62 120.902 295.1 120.77C295.592 120.638 295.952 120.5 296.18 120.356L296.504 120.284V127.736C296.744 127.04 297.146 126.47 297.71 126.026C298.274 125.582 298.97 125.36 299.798 125.36C300.638 125.36 301.298 125.636 301.778 126.188C302.27 126.728 302.516 127.46 302.516 128.384C302.516 130.076 302.072 131.48 301.184 132.596C300.296 133.7 299.204 134.252 297.908 134.252C297.452 134.252 296.924 134.114 296.324 133.838C295.736 133.562 295.304 133.328 295.028 133.136ZM296.504 129.176V132.38C296.612 132.596 296.78 132.794 297.008 132.974C297.44 133.298 297.848 133.46 298.232 133.46C299.096 133.46 299.822 133.046 300.41 132.218C300.998 131.378 301.292 130.328 301.292 129.068C301.292 128.348 301.076 127.754 300.644 127.286C300.224 126.818 299.684 126.584 299.024 126.584C298.376 126.584 297.794 126.95 297.278 127.682C296.762 128.402 296.504 128.9 296.504 129.176ZM307.308 134H303.708V133.496H303.96C304.224 133.496 304.416 133.442 304.536 133.334C304.656 133.214 304.716 133.016 304.716 132.74V122.12C304.716 121.892 304.638 121.73 304.482 121.634C304.326 121.526 304.056 121.472 303.672 121.472V120.968C303.912 120.968 304.278 120.902 304.77 120.77C305.274 120.638 305.64 120.5 305.868 120.356L306.192 120.284V132.704C306.192 132.896 306.198 133.034 306.21 133.118C306.234 133.202 306.306 133.286 306.426 133.37C306.546 133.454 306.732 133.496 306.984 133.496H307.308V134ZM315.702 131.804L316.026 132.128C315.258 133.544 313.878 134.252 311.886 134.252C310.962 134.252 310.17 133.844 309.51 133.028C308.862 132.212 308.538 131.3 308.538 130.292C308.538 128.936 308.976 127.778 309.852 126.818C310.74 125.846 311.814 125.36 313.074 125.36C313.674 125.36 314.202 125.534 314.658 125.882C315.474 126.518 315.882 127.34 315.882 128.348C315.882 128.492 315.852 128.666 315.792 128.87C315.744 129.074 315.702 129.176 315.666 129.176L309.87 129.356C309.87 130.292 310.164 131.156 310.752 131.948C311.34 132.74 312.054 133.136 312.894 133.136C313.494 133.136 314.046 133.016 314.55 132.776C315.066 132.524 315.45 132.2 315.702 131.804ZM310.05 128.636L314.262 128.456C314.286 128.456 314.298 128.348 314.298 128.132C314.298 127.508 314.112 127.064 313.74 126.8C313.38 126.536 312.876 126.404 312.228 126.404C311.592 126.404 311.07 126.602 310.662 126.998C310.254 127.394 310.05 127.94 310.05 128.636ZM126.922 155.82C126.91 155.82 126.88 155.82 126.832 155.82C126.784 155.82 126.598 155.94 126.274 156.18L122.134 145.344L121.27 154.776C121.246 154.968 121.336 155.13 121.54 155.262C121.744 155.394 122.026 155.46 122.386 155.46H123.142V156H118.822V155.46H119.398C120.094 155.46 120.466 155.196 120.514 154.668L121.414 144.732C121.438 144.504 121.354 144.318 121.162 144.174C120.982 144.018 120.694 143.94 120.298 143.94H119.722V143.4H123.106L126.958 153.552L130.846 143.4H134.086V143.904H133.366C132.79 143.904 132.502 144.126 132.502 144.57C132.502 144.606 132.502 144.648 132.502 144.696L133.33 154.668C133.354 154.944 133.42 155.148 133.528 155.28C133.648 155.4 133.858 155.46 134.158 155.46H134.878V156H130.27V155.46H130.882C131.218 155.46 131.446 155.406 131.566 155.298C131.686 155.19 131.746 155.076 131.746 154.956C131.746 154.824 131.746 154.728 131.746 154.668L130.954 145.236L126.922 155.82ZM144.845 156H142.253V153.876C141.977 154.632 141.551 155.22 140.975 155.64C140.399 156.048 139.697 156.252 138.869 156.252C138.437 156.252 138.071 156.156 137.771 155.964C137.471 155.772 137.255 155.526 137.123 155.226C136.895 154.71 136.781 154.2 136.781 153.696V149.412C136.781 148.86 136.433 148.584 135.737 148.584V148.08C135.977 148.08 136.337 148.014 136.817 147.882C137.309 147.75 137.669 147.612 137.897 147.468L138.221 147.432V153.372C138.221 153.912 138.347 154.326 138.599 154.614C138.863 154.89 139.229 155.028 139.697 155.028C140.369 155.028 140.963 154.668 141.479 153.948C141.995 153.228 142.253 152.688 142.253 152.328V149.412C142.253 148.86 141.905 148.584 141.209 148.584V148.08C141.473 148.08 141.845 148.014 142.325 147.882C142.817 147.75 143.177 147.612 143.405 147.468L143.729 147.432V154.776C143.729 154.944 143.741 155.07 143.765 155.154C143.825 155.382 144.077 155.496 144.521 155.496H144.845V156ZM155.363 156H152.267V155.496H152.339C152.471 155.496 152.579 155.43 152.663 155.298C152.759 155.166 152.807 155.004 152.807 154.812V150.24C152.807 149.7 152.675 149.292 152.411 149.016C152.159 148.728 151.799 148.584 151.331 148.584C150.659 148.584 150.065 148.944 149.549 149.664C149.033 150.384 148.775 150.924 148.775 151.284V154.704C148.775 154.896 148.781 155.034 148.793 155.118C148.817 155.202 148.889 155.286 149.009 155.37C149.129 155.454 149.315 155.496 149.567 155.496H149.891V156H146.255V155.496H146.543C146.867 155.496 147.071 155.442 147.155 155.334C147.251 155.226 147.299 155.052 147.299 154.812V149.412C147.299 149.184 147.221 149.022 147.065 148.926C146.921 148.818 146.651 148.764 146.255 148.764V148.26C146.495 148.26 146.855 148.176 147.335 148.008C147.827 147.828 148.199 147.66 148.451 147.504L148.775 147.432V149.736C149.051 148.98 149.477 148.398 150.053 147.99C150.629 147.57 151.331 147.36 152.159 147.36C152.591 147.36 152.957 147.456 153.257 147.648C153.557 147.84 153.773 148.086 153.905 148.386C154.133 148.902 154.247 149.412 154.247 149.916V154.776C154.247 154.944 154.259 155.07 154.283 155.154C154.343 155.382 154.595 155.496 155.039 155.496H155.363V156ZM158.458 143.472C158.734 143.472 158.944 143.562 159.088 143.742C159.244 143.922 159.322 144.156 159.322 144.444C159.322 144.72 159.208 144.954 158.98 145.146C158.752 145.326 158.5 145.416 158.224 145.416C157.96 145.416 157.75 145.326 157.594 145.146C157.45 144.966 157.378 144.744 157.378 144.48C157.378 144.204 157.492 143.97 157.72 143.778C157.948 143.574 158.194 143.472 158.458 143.472ZM160.438 156H156.802V155.496H157.09C157.414 155.496 157.618 155.442 157.702 155.334C157.798 155.226 157.846 155.052 157.846 154.812V149.412C157.846 149.184 157.768 149.022 157.612 148.926C157.468 148.818 157.198 148.764 156.802 148.764V148.26C157.042 148.26 157.402 148.176 157.882 148.008C158.374 147.828 158.746 147.66 158.998 147.504L159.322 147.432V154.704C159.322 154.896 159.328 155.034 159.34 155.118C159.364 155.202 159.436 155.286 159.556 155.37C159.676 155.454 159.862 155.496 160.114 155.496H160.438V156ZM168.758 153.804L169.082 154.128C168.314 155.544 166.934 156.252 164.942 156.252C164.018 156.252 163.226 155.844 162.566 155.028C161.918 154.212 161.594 153.3 161.594 152.292C161.594 151.644 161.75 150.996 162.062 150.348C162.386 149.688 162.716 149.166 163.052 148.782C163.4 148.386 163.868 148.05 164.456 147.774C165.056 147.498 165.686 147.36 166.346 147.36C167.006 147.36 167.69 147.492 168.398 147.756L168.29 149.412H167.75C167.75 149.1 167.552 148.842 167.156 148.638C166.772 148.434 166.34 148.332 165.86 148.332C165.38 148.332 164.948 148.41 164.564 148.566C164.18 148.71 163.886 148.89 163.682 149.106C163.49 149.322 163.334 149.58 163.214 149.88C163.022 150.324 162.926 150.816 162.926 151.356C162.926 152.292 163.22 153.156 163.808 153.948C164.396 154.74 165.11 155.136 165.95 155.136C166.55 155.136 167.102 155.016 167.606 154.776C168.122 154.524 168.506 154.2 168.758 153.804ZM179.373 156H176.241V155.496H176.349C176.469 155.496 176.571 155.436 176.655 155.316C176.739 155.184 176.781 155.016 176.781 154.812V150.24C176.781 149.136 176.301 148.584 175.341 148.584C174.657 148.584 174.051 148.944 173.523 149.664C173.007 150.384 172.749 150.924 172.749 151.284V154.704C172.749 154.884 172.761 155.022 172.785 155.118C172.845 155.37 173.097 155.496 173.541 155.496H173.901V156H170.265V155.496H170.517C170.841 155.496 171.051 155.442 171.147 155.334C171.255 155.214 171.309 155.04 171.309 154.812V144.12C171.309 143.892 171.231 143.73 171.075 143.634C170.919 143.526 170.649 143.472 170.265 143.472V142.968C170.517 142.968 170.889 142.902 171.381 142.77C171.873 142.638 172.221 142.5 172.425 142.356L172.749 142.284V149.736C173.373 148.152 174.501 147.36 176.133 147.36C176.565 147.36 176.931 147.456 177.231 147.648C177.543 147.84 177.765 148.086 177.897 148.386C178.137 148.89 178.257 149.4 178.257 149.916V154.776C178.257 154.944 178.269 155.07 178.293 155.154C178.341 155.382 178.581 155.496 179.013 155.496H179.373V156ZM188.285 151.932H181.121V151.068H188.285V151.932ZM191.045 155.136V144.12C191.045 143.892 190.967 143.73 190.811 143.634C190.667 143.526 190.397 143.472 190.001 143.472V142.968C190.265 142.968 190.637 142.902 191.117 142.77C191.609 142.638 191.969 142.5 192.197 142.356L192.521 142.284V149.736C192.761 149.04 193.163 148.47 193.727 148.026C194.291 147.582 194.987 147.36 195.815 147.36C196.655 147.36 197.315 147.636 197.795 148.188C198.287 148.728 198.533 149.46 198.533 150.384C198.533 152.076 198.089 153.48 197.201 154.596C196.313 155.7 195.221 156.252 193.925 156.252C193.469 156.252 192.941 156.114 192.341 155.838C191.753 155.562 191.321 155.328 191.045 155.136ZM192.521 151.176V154.38C192.629 154.596 192.797 154.794 193.025 154.974C193.457 155.298 193.865 155.46 194.249 155.46C195.113 155.46 195.839 155.046 196.427 154.218C197.015 153.378 197.309 152.328 197.309 151.068C197.309 150.348 197.093 149.754 196.661 149.286C196.241 148.818 195.701 148.584 195.041 148.584C194.393 148.584 193.811 148.95 193.295 149.682C192.779 150.402 192.521 150.9 192.521 151.176ZM207.556 156H204.964V154.56C204.364 155.208 203.866 155.652 203.47 155.892C203.074 156.132 202.534 156.252 201.85 156.252C201.178 156.252 200.65 156.096 200.266 155.784C199.894 155.46 199.708 155.01 199.708 154.434C199.708 153.858 199.954 153.3 200.446 152.76C200.95 152.208 201.532 151.794 202.192 151.518C202.864 151.23 203.452 151.014 203.956 150.87C204.46 150.714 204.796 150.636 204.964 150.636V150.24C204.964 149.112 204.496 148.548 203.56 148.548C202.912 148.548 202.306 148.686 201.742 148.962C201.19 149.238 200.776 149.592 200.5 150.024L200.14 149.7C200.944 148.14 202.336 147.36 204.316 147.36C204.82 147.36 205.234 147.498 205.558 147.774C205.894 148.038 206.116 148.35 206.224 148.71C206.344 149.07 206.404 149.472 206.404 149.916V154.776C206.404 154.932 206.416 155.052 206.44 155.136C206.464 155.22 206.536 155.304 206.656 155.388C206.788 155.46 206.98 155.496 207.232 155.496H207.556V156ZM204.964 153.552V151.356C204.028 151.536 203.158 151.896 202.354 152.436C201.55 152.976 201.148 153.564 201.148 154.2C201.148 154.452 201.268 154.674 201.508 154.866C201.76 155.046 202.066 155.136 202.426 155.136C202.798 155.136 203.236 154.974 203.74 154.65C204.244 154.314 204.652 153.948 204.964 153.552ZM208.956 155.496L209.136 153.552L209.64 153.588C209.64 153.996 209.904 154.386 210.432 154.758C210.96 155.13 211.53 155.316 212.142 155.316C213.402 155.316 214.032 154.932 214.032 154.164C214.032 153.78 213.87 153.438 213.546 153.138C213.222 152.838 212.832 152.592 212.376 152.4C211.92 152.196 211.464 151.992 211.008 151.788C210.552 151.572 210.162 151.296 209.838 150.96C209.514 150.612 209.352 150.216 209.352 149.772C209.352 148.212 210.504 147.432 212.808 147.432C213.324 147.432 213.888 147.576 214.5 147.864L214.392 149.664H213.96C213.96 149.328 213.762 149.004 213.366 148.692C212.982 148.38 212.562 148.224 212.106 148.224C211.65 148.224 211.26 148.314 210.936 148.494C210.624 148.674 210.468 148.944 210.468 149.304C210.468 149.652 210.63 149.94 210.954 150.168C211.278 150.396 211.668 150.582 212.124 150.726C212.58 150.87 213.036 151.032 213.492 151.212C213.948 151.392 214.338 151.686 214.662 152.094C214.986 152.502 215.148 153.012 215.148 153.624C215.148 154.236 214.95 154.746 214.554 155.154C213.846 155.886 212.82 156.252 211.476 156.252C210.432 156.252 209.592 156 208.956 155.496ZM223.566 153.804L223.89 154.128C223.122 155.544 221.742 156.252 219.75 156.252C218.826 156.252 218.034 155.844 217.374 155.028C216.726 154.212 216.402 153.3 216.402 152.292C216.402 150.936 216.84 149.778 217.716 148.818C218.604 147.846 219.678 147.36 220.938 147.36C221.538 147.36 222.066 147.534 222.522 147.882C223.338 148.518 223.746 149.34 223.746 150.348C223.746 150.492 223.716 150.666 223.656 150.87C223.608 151.074 223.566 151.176 223.53 151.176L217.734 151.356C217.734 152.292 218.028 153.156 218.616 153.948C219.204 154.74 219.918 155.136 220.758 155.136C221.358 155.136 221.91 155.016 222.414 154.776C222.93 154.524 223.314 154.2 223.566 153.804ZM217.914 150.636L222.126 150.456C222.15 150.456 222.162 150.348 222.162 150.132C222.162 149.508 221.976 149.064 221.604 148.8C221.244 148.536 220.74 148.404 220.092 148.404C219.456 148.404 218.934 148.602 218.526 148.998C218.118 149.394 217.914 149.94 217.914 150.636ZM233.69 156H231.098V153.912C230.846 154.596 230.438 155.16 229.874 155.604C229.31 156.036 228.608 156.252 227.768 156.252C226.94 156.252 226.286 155.982 225.806 155.442C225.326 154.902 225.086 154.176 225.086 153.264C225.086 151.572 225.524 150.168 226.4 149.052C227.288 147.924 228.374 147.36 229.658 147.36C229.946 147.36 230.426 147.48 231.098 147.72V144.12C231.098 143.892 231.02 143.73 230.864 143.634C230.708 143.526 230.438 143.472 230.054 143.472V142.968C230.306 142.968 230.678 142.902 231.17 142.77C231.662 142.638 232.01 142.5 232.214 142.356L232.538 142.284V154.776C232.538 155.004 232.58 155.172 232.664 155.28C232.76 155.376 232.982 155.424 233.33 155.424H233.69V156ZM231.098 152.436V149.232C231.05 149.16 230.978 149.064 230.882 148.944C230.786 148.824 230.582 148.668 230.27 148.476C229.97 148.284 229.658 148.188 229.334 148.188C228.458 148.188 227.726 148.602 227.138 149.43C226.562 150.258 226.274 151.308 226.274 152.58C226.274 153.288 226.484 153.876 226.904 154.344C227.336 154.8 227.882 155.028 228.542 155.028C229.214 155.028 229.808 154.668 230.324 153.948C230.84 153.216 231.098 152.712 231.098 152.436ZM239.7 155.496L239.88 153.552L240.384 153.588C240.384 153.996 240.648 154.386 241.176 154.758C241.704 155.13 242.274 155.316 242.886 155.316C244.146 155.316 244.776 154.932 244.776 154.164C244.776 153.78 244.614 153.438 244.29 153.138C243.966 152.838 243.576 152.592 243.12 152.4C242.664 152.196 242.208 151.992 241.752 151.788C241.296 151.572 240.906 151.296 240.582 150.96C240.258 150.612 240.096 150.216 240.096 149.772C240.096 148.212 241.248 147.432 243.552 147.432C244.068 147.432 244.632 147.576 245.244 147.864L245.136 149.664H244.704C244.704 149.328 244.506 149.004 244.11 148.692C243.726 148.38 243.306 148.224 242.85 148.224C242.394 148.224 242.004 148.314 241.68 148.494C241.368 148.674 241.212 148.944 241.212 149.304C241.212 149.652 241.374 149.94 241.698 150.168C242.022 150.396 242.412 150.582 242.868 150.726C243.324 150.87 243.78 151.032 244.236 151.212C244.692 151.392 245.082 151.686 245.406 152.094C245.73 152.502 245.892 153.012 245.892 153.624C245.892 154.236 245.694 154.746 245.298 155.154C244.59 155.886 243.564 156.252 242.22 156.252C241.176 156.252 240.336 156 239.7 155.496ZM252.511 154.884L252.655 155.316C251.755 155.94 250.771 156.252 249.703 156.252C249.319 156.252 248.989 156.114 248.713 155.838C248.437 155.562 248.299 155.196 248.299 154.74V148.368H247.255V147.612H247.651C248.047 147.612 248.413 147.372 248.749 146.892C249.097 146.412 249.271 145.968 249.271 145.56H249.739V147.612H252.187V148.368H250.423C249.967 148.368 249.739 148.584 249.739 149.016V154.164C249.739 154.956 250.027 155.352 250.603 155.352C251.251 155.352 251.887 155.196 252.511 154.884ZM262.373 156H259.781V153.876C259.505 154.632 259.079 155.22 258.503 155.64C257.927 156.048 257.225 156.252 256.397 156.252C255.965 156.252 255.599 156.156 255.299 155.964C254.999 155.772 254.783 155.526 254.651 155.226C254.423 154.71 254.309 154.2 254.309 153.696V149.412C254.309 148.86 253.961 148.584 253.265 148.584V148.08C253.505 148.08 253.865 148.014 254.345 147.882C254.837 147.75 255.197 147.612 255.425 147.468L255.749 147.432V153.372C255.749 153.912 255.875 154.326 256.127 154.614C256.391 154.89 256.757 155.028 257.225 155.028C257.897 155.028 258.491 154.668 259.007 153.948C259.523 153.228 259.781 152.688 259.781 152.328V149.412C259.781 148.86 259.433 148.584 258.737 148.584V148.08C259.001 148.08 259.373 148.014 259.853 147.882C260.345 147.75 260.705 147.612 260.933 147.468L261.257 147.432V154.776C261.257 154.944 261.269 155.07 261.293 155.154C261.353 155.382 261.605 155.496 262.049 155.496H262.373V156ZM272.098 156H269.506V153.912C269.254 154.596 268.846 155.16 268.282 155.604C267.718 156.036 267.016 156.252 266.176 156.252C265.348 156.252 264.694 155.982 264.214 155.442C263.734 154.902 263.494 154.176 263.494 153.264C263.494 151.572 263.932 150.168 264.808 149.052C265.696 147.924 266.782 147.36 268.066 147.36C268.354 147.36 268.834 147.48 269.506 147.72V144.12C269.506 143.892 269.428 143.73 269.272 143.634C269.116 143.526 268.846 143.472 268.462 143.472V142.968C268.714 142.968 269.086 142.902 269.578 142.77C270.07 142.638 270.418 142.5 270.622 142.356L270.946 142.284V154.776C270.946 155.004 270.988 155.172 271.072 155.28C271.168 155.376 271.39 155.424 271.738 155.424H272.098V156ZM269.506 152.436V149.232C269.458 149.16 269.386 149.064 269.29 148.944C269.194 148.824 268.99 148.668 268.678 148.476C268.378 148.284 268.066 148.188 267.742 148.188C266.866 148.188 266.134 148.602 265.546 149.43C264.97 150.258 264.682 151.308 264.682 152.58C264.682 153.288 264.892 153.876 265.312 154.344C265.744 154.8 266.29 155.028 266.95 155.028C267.622 155.028 268.216 154.668 268.732 153.948C269.248 153.216 269.506 152.712 269.506 152.436ZM275.264 143.472C275.54 143.472 275.75 143.562 275.894 143.742C276.05 143.922 276.128 144.156 276.128 144.444C276.128 144.72 276.014 144.954 275.786 145.146C275.558 145.326 275.306 145.416 275.03 145.416C274.766 145.416 274.556 145.326 274.4 145.146C274.256 144.966 274.184 144.744 274.184 144.48C274.184 144.204 274.298 143.97 274.526 143.778C274.754 143.574 275 143.472 275.264 143.472ZM277.244 156H273.608V155.496H273.896C274.22 155.496 274.424 155.442 274.508 155.334C274.604 155.226 274.652 155.052 274.652 154.812V149.412C274.652 149.184 274.574 149.022 274.418 148.926C274.274 148.818 274.004 148.764 273.608 148.764V148.26C273.848 148.26 274.208 148.176 274.688 148.008C275.18 147.828 275.552 147.66 275.804 147.504L276.128 147.432V154.704C276.128 154.896 276.134 155.034 276.146 155.118C276.17 155.202 276.242 155.286 276.362 155.37C276.482 155.454 276.668 155.496 276.92 155.496H277.244V156ZM282.108 156.252C281.052 156.252 280.17 155.856 279.462 155.064C278.754 154.272 278.4 153.348 278.4 152.292C278.4 150.948 278.904 149.79 279.912 148.818C280.932 147.846 282.006 147.36 283.134 147.36C284.262 147.36 285.168 147.762 285.852 148.566C286.548 149.358 286.896 150.276 286.896 151.32C286.896 152.628 286.41 153.78 285.438 154.776C284.478 155.76 283.368 156.252 282.108 156.252ZM279.66 151.32C279.66 152.436 279.996 153.366 280.668 154.11C281.352 154.842 282.114 155.208 282.954 155.208C283.806 155.208 284.472 154.89 284.952 154.254C285.432 153.618 285.672 152.964 285.672 152.292C285.672 151.272 285.354 150.384 284.718 149.628C284.094 148.86 283.332 148.476 282.432 148.476C281.532 148.476 280.842 148.782 280.362 149.394C279.894 149.994 279.66 150.636 279.66 151.32ZM289.602 154.308C289.878 154.308 290.088 154.404 290.232 154.596C290.388 154.788 290.466 155.022 290.466 155.298C290.466 155.574 290.352 155.808 290.124 156C289.896 156.192 289.644 156.288 289.368 156.288C289.104 156.288 288.894 156.192 288.738 156C288.594 155.808 288.522 155.58 288.522 155.316C288.522 155.052 288.636 154.818 288.864 154.614C289.092 154.41 289.338 154.308 289.602 154.308Z" fill="black"/>
</svg>
